<?xml version="1.0" encoding="UTF-8"?>
<svg xmlns="http://www.w3.org/2000/svg" xmlns:xlink="http://www.w3.org/1999/xlink"
     width="101" height="101" viewBox="-50.5 -50.5 101 101">
<defs>
</defs>
<path d="M-45.335572447035176,-11.945953675555531 L-45.335572447035176,-11.945953675555531 L-38.364540160297,-9.352526296347948 L-33.21052977668975,-10.264219153526955 L-31.78276668982983,-13.361535976586618 L-26.387143378786014,-14.392261496180513 L-22.53479555624155,-16.47103358547511 L-21.170260454183413,-21.93765679685796 L-15.409042681829028,-23.25962750309336 L-14.33804264478084,-25.692688206470173 L-11.113388078059389,-23.865064508266048 L-9.054397803685411,-23.653124303210483 L-5.245851594828539,-23.607736863309555 L-0.09042627145332158,-22.16442994537508 L1.998229889843761,-21.331331182169148 L6.946308435816196,-23.5270237774134 L9.248675185743291,-22.206468010946022 L11.453192357028444,-25.33610287856166 L15.539381191472218,-25.19410307788359 L16.59201435336766,-26.198518920342163 L17.314727308296487,-28.954787411109976 L20.25750810104277,-31.332747489028744 L23.957609771642304,-29.77852159710742 L23.21441094963775,-27.689332270100646 L25.28223263551047,-27.36470954294163 L24.64499708057595,-21.622043203101004 L27.351462425693413,-19.383608490130747 L29.73295643530318,-20.81985438014083 L32.766867551657846,-21.49841027757563 L37.02649245727734,-24.55863790652347 L41.733662127968174,-24.054926184574555 L48.78311078677617,-24.044153503055895 L49.99999999999995,-22.082657363517434 L46.0208407640455,-21.315787351094638 L42.546097302195165,-20.053517533427772 L34.70222490050641,-19.25944923435353 L27.362768272921766,-17.82355878814988 L23.37124369377747,-14.846347794382291 L24.987282630732505,-11.949309885343364 L25.768630142810476,-8.549626585774911 L22.36418252914397,-5.67820797263189 L22.64959023481023,-3.0519225477008876 L20.770044399032678,-0.5907817836142553 L14.267746796596816,-0.8044855367864217 L16.954430326793613,3.717764493597169 L12.60402370591446,5.447367726714029 L9.701517430622468,9.572942469095878 L10.079121791316403,13.677853622498734 L7.405863100271039,15.600141576002313 L4.878486749943472,14.963616908680628 L-0.3454640380413203,15.854823898783833 L-1.092545400085505,17.76722094482708 L-6.1815642507744215,17.75521104544364 L-9.991874007747944,21.624162195024105 L-10.231012499454904,27.440836036642995 L-19.114448667694106,30.28275964930823 L-23.87495541572643,29.68226468013683 L-25.258568280550172,31.18067905898715 L-29.34440167118747,30.309076161901398 L-36.1826210125528,31.33274748902877 L-47.63617564884562,27.842104752297374 L-41.43659313126723,21.645003505906338 L-41.996471810093524,17.245320069628733 L-47.17343566104831,16.09307378097472 L-47.70858365349483,11.753617563517466 L-49.947722418620145,6.296536651246367 L-47.02473027625233,2.553692862920783 L-50.00000000000005,1.5446835928096208 L-48.12186910399047,-3.42917830004624 L-45.335572447035176,-11.945953675555531 Z" stroke-width="4" stroke="#ff0000" fill="#ff0000" fill-opacity="0.5" />
</svg>