<?xml version="1.0" encoding="UTF-8"?>
<svg xmlns="http://www.w3.org/2000/svg" xmlns:xlink="http://www.w3.org/1999/xlink"
     width="101" height="101" viewBox="-50.5 -50.5 101 101">
<defs>
</defs>
<path d="M50.0,22.317856694958866 L50.0,22.317856694958866 L33.43343370444635,31.53278447504065 L19.435463495144486,41.03028460871946 L12.617858541805404,43.18627004009784 L7.254819278331665,43.65958973126256 L7.19935586634362,40.583695845455885 L4.960547587095009,39.797330832967425 L1.9504923296402525,38.414598770657726 L0.8009850750627083,36.14918526510419 L-15.50774790796284,25.600611896031626 L-31.81647605631161,15.051791958443435 L-50.0,3.346217585788676 L-49.906806770442685,2.4095714803577177 L-49.90905972982086,2.0859043741544747 L-49.95028018402327,-3.642525256109751 L-42.142818672643365,-7.210221802400383 L-37.31492978163796,-7.9473746399737095 L-33.35773233546894,-9.24666018110893 L-31.508550657694926,-11.667600403908235 L-25.855822396408108,-13.58099142396025 L-25.648206871564785,-17.160305698546498 L-22.851259331772248,-17.5819088522255 L-20.664172424686132,-19.37000438891959 L-14.337001918303052,-20.184855316979306 L-13.45057360055688,-22.063770256933097 L-14.72450126199568,-23.091105229350795 L-16.39442762890143,-28.195063833687904 L-16.682240772124956,-31.135543257641945 L-18.50456582040162,-34.23204253587307 L-13.856937853034143,-36.87396616480466 L-8.629931890040499,-37.71429583948021 L-5.577650565613671,-39.709136659197746 L-0.9216537727448576,-41.18068656858138 L7.2720597357191625,-42.0425063815316 L15.268900371138797,-42.43475337781946 L17.707327619841244,-41.716716852223165 L22.26014274093104,-43.62223701848192 L27.42630913136039,-43.65958973126256 L29.392538333910434,-42.53469098148097 L32.69890609636304,-42.82824772071581 L31.71678985584251,-40.34684986481761 L32.483298850806996,-35.73794765843549 L31.345278788252084,-31.75064467997487 L28.364705389784696,-29.05400701395567 L28.7909304944627,-25.4122335500848 L32.744879037837435,-22.531839489117772 L32.786602298424675,-21.36159630584281 L35.76718053156884,-19.410354601302085 L37.829349060085654,-10.731452270185342 L39.39333798944938,-6.462829119412949 L39.65617035776511,-4.216406224240246 L38.804720926501986,-0.2721995545715592 L39.15399248091729,1.9320021083058536 L38.539640433484855,4.578049716528397 L38.96136928876007,7.617838236162941 L37.04260694280858,9.63815780249629 L39.9012642969853,13.16200866509449 L40.082893434151174,15.233672498801724 L41.802036810648815,17.92968649151664 L44.06233039349531,17.04388184707472 L47.87836494712363,19.29018387532799 L50.0,22.317856694958866 Z" stroke-width="4" stroke="#ff0000" fill="#ff0000" fill-opacity="0.5" />
</svg>