<?xml version="1.0" encoding="UTF-8"?>
<svg xmlns="http://www.w3.org/2000/svg" xmlns:xlink="http://www.w3.org/1999/xlink"
     width="101" height="101" viewBox="-50.5 -50.5 101 101">
<defs>
</defs>
<path d="M-12.327138624073717,-48.392772750771336 L-12.327138624073717,-48.392772750771336 L-10.344375062350213,-42.40252804524571 L-8.037177258911273,-37.58209229739781 L-6.18984182152635,-34.98244627389375 L-3.1112254215478554,-30.779311000675335 L2.204386739378418,-31.42942548394433 L4.856790807640215,-32.5601823950834 L9.29878826917682,-31.424859497440835 L10.503477183612734,-33.43503505560254 L12.520300753813832,-38.11963270497159 L17.506076660823343,-38.43368897384196 L17.939355017428344,-39.82656405737419 L22.040712200645537,-39.85688606633751 L21.34074164643527,-36.96063581040513 L31.0946132693838,-37.030845891604926 L31.24208337925446,-31.97278591656833 L32.871328651428676,-28.87132350665512 L31.686985708542654,-24.02554171048768 L32.2768741867339,-19.081727862541946 L34.95835426412096,-16.098659553374173 L34.52840393288998,-6.532556086673029 L36.51822548079318,-7.269914674734962 L40.0114222010965,-7.072588493923021 L44.9909681089155,-8.276457460078365 L48.65198894934803,-7.802471082956336 L49.50151163896488,-5.306677136280796 L48.587188919058164,-1.4080320686595746 L50.000000000000014,2.362242860802772 L48.80236907174379,5.373149217966296 L49.48738762789688,8.148095360628133 L32.748778538320025,8.046735283475813 L32.37865227673513,33.62488523738589 L37.80184647529557,40.201682357020125 L43.04766656787095,45.22318228519426 L28.273549055294986,48.49911682727605 L8.811923880824873,47.361309968665914 L3.242079520674324,43.509610959460886 L-29.34364587109013,43.85648123697075 L-30.559146848637294,44.42144167969138 L-35.35133457434915,40.78658683585899 L-40.562676645598,40.54647864770271 L-45.37480840742811,41.91567169560241 L-49.243533401517645,43.444802890462384 L-49.999999999999986,38.39048895364871 L-48.88711313815187,31.321843446310147 L-46.1134049566195,23.962405692884836 L-45.695086636780346,20.512417031483366 L-43.08671861440958,13.26597136660218 L-41.17041909566295,9.971756801089144 L-36.55270350211968,4.7122226715860345 L-33.973829501723046,1.1351179105724285 L-33.1297088243075,-4.819812747928849 L-33.55052718253148,-9.37604829784766 L-35.95451103791061,-12.249870556694235 L-38.09554069519876,-17.126802348814195 L-40.06999223219583,-21.9497300963383 L-39.63838592698648,-23.62051941472734 L-37.16751197707295,-26.807561916746476 L-39.606399905336154,-34.57367793991049 L-41.25226118825456,-39.954926156824435 L-45.27926031661739,-45.04080810243951 L-44.51489970625754,-46.603179357496565 L-41.19701114382061,-47.68366218484544 L-38.86821333028504,-47.53328206244967 L-36.048813128883225,-48.49911682727605 L-12.327138624073717,-48.392772750771336 Z" stroke-width="4" stroke="#ff0000" fill="#ff0000" fill-opacity="0.5" />
</svg>