<?xml version="1.0" encoding="UTF-8"?>
<svg xmlns="http://www.w3.org/2000/svg" xmlns:xlink="http://www.w3.org/1999/xlink"
     width="101" height="101" viewBox="-50.5 -50.5 101 101">
<defs>
</defs>
<path d="M49.99999999999999,-5.174229038853212 L49.99999999999999,-5.174229038853212 L48.9877857732119,0.2744044192718272 L41.47854906671562,0.3005921439225826 L44.061106735378786,3.190455561071341 L39.634661240314095,11.774602360601964 L37.09277188131733,14.025026611075065 L25.431340759500028,14.35714669539309 L18.702802259877963,17.382415582922818 L7.689063971517788,16.349187173828426 L-11.378239680883105,12.905674722592112 L-14.3569866889289,8.26770068177421 L-27.534319053156423,10.585314313364929 L-29.084675020870858,13.121683449344642 L-37.16306805461609,11.225780188186226 L-43.96671625533671,10.863338878890714 L-50.000000000000014,8.435480793424045 L-47.96042426780709,5.171468927344664 L-48.476525118281444,2.805279999978612 L-44.45180251948847,2.070063630570662 L-37.70464993452403,5.772999895862467 L-35.80563988118455,2.2540443967269654 L-24.04636480647153,2.822507362630722 L-14.513406341616218,0.4315174333042769 L-8.121108092766946,0.8408006350123122 L-3.9627134269557867,3.5708042604920616 L-2.7196765415989606,1.3048727168577676 L-4.609726232939821,-7.382971605386259 L0.18052062636662833,-9.075960002117426 L4.881897228648028,-15.223635034855468 L14.788324114960913,-10.93190164882661 L22.28928048693166,-16.38674869131383 L26.982390088559573,-17.382415582922913 L37.33255490188471,-13.313251188681406 L43.59462122269738,-14.005399151459129 L49.741602894090235,-11.487617433077627 L48.67082630138257,-9.794629036346459 L49.99999999999999,-5.174229038853212 Z" stroke-width="4" stroke="#ff0000" fill="#ff0000" fill-opacity="0.5" />
</svg>