<?xml version="1.0" encoding="UTF-8"?>
<svg xmlns="http://www.w3.org/2000/svg" xmlns:xlink="http://www.w3.org/1999/xlink"
     width="101" height="101" viewBox="-50.5 -50.5 101 101">
<defs>
</defs>
<path d="M39.72110984006463,26.273533526916346 L39.72110984006463,26.273533526916346 L39.3667943119063,38.691042711607984 L33.32377884159411,36.06904893533065 L34.45473516974666,49.99999999999997 L29.508653841659015,40.973957358513964 L28.510132984327647,32.15459300375729 L25.214846208465566,23.820178982669052 L17.98095034613467,13.741941806306222 L2.0332714470060163,13.049412853252846 L3.6080052039228483,20.186678781912235 L-1.8283765114982737,29.820688363183073 L-9.195590863216408,26.30977191630437 L-11.713353820518215,29.461455633597794 L-16.61647889247987,27.573129087099005 L-23.315334760129694,26.023015965495077 L-26.01025548151079,11.765936710423395 L-32.01031469569698,-1.2541893603881518 L-29.063976080238945,-11.687192231237333 L-39.72110984006438,-16.326364008301834 L-35.87823035461159,-22.635999143298886 L-25.053790547649626,-29.087453985642867 L-37.55049437785529,-38.25308281692626 L-31.434119110201003,-50.000000000000036 L-17.72058106777027,-42.51825294603565 L-9.45505980892502,-41.664235479928415 L-7.927749343233172,-29.625194978290754 L8.54691849894463,-27.250584913229645 L24.603745418475516,-27.50737017506105 L34.58715332647836,-24.55117984266001 L26.60347081701564,-9.898629468615026 L18.857787782243655,-8.898307945972448 L13.511768300083776,0.9553481750862931 L22.991440087276956,9.928600157592788 L25.821479963356627,-1.1365228079367389 L30.602021281440106,-1.1911141322274035 L39.72110984006463,26.273533526916346 Z" stroke-width="4" stroke="#ff0000" fill="#ff0000" fill-opacity="0.5" />
</svg>