<?xml version="1.0" encoding="UTF-8"?>
<svg xmlns="http://www.w3.org/2000/svg" xmlns:xlink="http://www.w3.org/1999/xlink"
     width="101" height="101" viewBox="-50.5 -50.5 101 101">
<defs>
</defs>
<path d="M-47.002006182965985,-1.7714225887965618 L-47.002006182965985,-1.7714225887965618 L-36.82146235539386,-1.6998416603742108 L-25.386314244699577,-5.667769696894424 L-22.941871883409455,-11.613958238911206 L-14.306595567438446,-14.986698649873741 L-15.296131333097918,-19.70466758000117 L-8.89082844602503,-21.47635875527128 L2.4240245228929673,-25.54008263405184 L13.513001533892078,-22.89860312914829 L15.009280979264167,-20.28380321395844 L20.536074375912992,-21.541124960225517 L30.833100470616163,-19.02918839803338 L31.86454625896432,-14.08479580423692 L29.6073455346024,-11.243287839700049 L36.21075991118317,-4.347303797317703 L40.49710511179041,-2.425941493018562 L39.863546485314274,-0.523611963536757 L46.966089325120144,1.329992819788212 L50.00000000000001,4.138290856821339 L45.90143360926817,6.441762184267367 L37.402778279548805,6.076263391273857 L35.375814093501155,7.060353697840591 L37.84909526909677,10.556654419474516 L40.43995412332372,17.301587535649556 L31.398080017492855,17.926446066940787 L28.15297611191903,20.23889134244677 L27.475327172556465,25.540082634051764 L23.285873225709853,24.52224522703404 L13.780798047302584,25.026808616548944 L11.020118812123108,22.56413397346089 L7.06797944713104,24.400317500810182 L3.1076666270984163,22.878190557152607 L-5.187431754020298,22.666734006386413 L-16.943166786196425,20.13900877266613 L-27.58309881169971,19.313584608794255 L-35.74267161806711,19.54736016887872 L-41.51494251880817,22.401928808995915 L-46.5496960285751,22.812602793573134 L-46.75054604683369,18.123472677751316 L-50.00000000000001,13.243309115961772 L-43.68342544445005,11.093332324992954 L-43.6230092870883,6.894620044408362 L-46.544798275232466,2.8880366212916293 L-47.002006182965985,-1.7714225887965618 Z" stroke-width="4" stroke="#ff0000" fill="#ff0000" fill-opacity="0.5" />
</svg>