<?xml version="1.0" encoding="UTF-8"?>
<svg xmlns="http://www.w3.org/2000/svg" xmlns:xlink="http://www.w3.org/1999/xlink"
     width="101" height="101" viewBox="-50.5 -50.5 101 101">
<defs>
</defs>
<path d="M-6.024050490667336,4.254166373146098 L-6.024050490667336,4.254166373146098 L-9.105796409921846,5.626304692697539 L-12.189162130513289,5.900805871598948 L-18.360425713105872,3.157946822674262 L-21.442737897927554,4.805094266176824 L-18.681648630736465,6.3133054236330475 L-12.83197058911076,10.016494328227468 L-6.66699500407123,12.756990912115374 L-14.286638369867738,15.775575134767578 L-17.204939710893942,17.833099561195112 L-23.858868528395636,21.127237823653683 L-26.45380425063238,21.12873778609453 L-27.257204220588058,24.69402306452555 L-31.160130679550708,26.206819217598333 L-38.119174314646735,26.21027164471982 L-42.985914873347895,23.335062938330537 L-40.72206854983697,18.808305899679855 L-45.764854586971886,17.441407106660673 L-44.47082094173987,14.834311450280527 L-42.53048219014806,10.16932278735741 L-37.82510442276409,8.931318266937621 L-39.431640578675626,6.606096322851748 L-32.806382800302316,1.3831438436861423 L-29.07941813365104,-2.872212441204501 L-28.595629498688766,-5.067813843605083 L-36.201405546356405,2.624554650212365 L-41.043769933780275,5.2396548346326295 L-43.1690235400678,3.455347117565023 L-44.62166228457879,5.514423377450507 L-47.06380945467245,5.651614677941877 L-47.07970364182745,11.132680421699629 L-50.0,14.83892731585479 L-47.21301493187039,23.47712866334256 L-40.877369813841455,29.641970415025863 L-36.181340948517544,28.81610819803829 L-32.13153891652605,28.539523916601397 L-30.670876091080473,29.224258170089627 L-28.399294509078164,29.77116114858628 L-25.14884710931266,29.355597475106382 L-23.025858673522396,26.882092668569644 L-18.812283176154022,25.64620496677474 L-10.230636769755387,21.531982530678764 L-3.7491883134065573,19.062472895337056 L0.46703625300307405,13.303182072819752 L4.35933698768433,11.10885601511072 L9.712479843469968,7.406301871101363 L18.80010676203388,1.5092723069467677 L22.533328038649174,-0.13582927357015334 L29.027787703411413,-4.248702828594257 L37.146580243629465,-6.303606987100147 L45.597336525479115,-11.650911331694264 L47.06180662456596,-13.434176003691368 L43.98145485980815,-17.415592111250515 L47.882108308430325,-18.511906817273093 L50.0,-21.94256556567157 L43.66705505738281,-24.690659878351173 L40.423915051089885,-29.771161148589258 L34.409735475163544,-28.536654293574976 L29.369577639268204,-24.69427317984602 L25.631718835985655,-22.224745160576617 L22.545107436434467,-21.26448491305429 L24.88224022323257,-17.863169902700136 L27.24634296073168,-17.46492146573735 L29.967192514340493,-19.563423758877725 L31.859472873674417,-19.265652411769675 L33.15837485899059,-15.67229238471312 L34.813232181976765,-15.37203626831938 L34.34247155897147,-18.966171435396035 L35.761286040198065,-19.165161664162607 L41.19851513975198,-17.76437558674588 L44.27080994656225,-13.571088297451995 L38.46957024614845,-9.0755068360016 L32.19762080453672,-7.071857237614732 L24.649227339417177,-10.697478495863988 L21.21618296185088,-15.85619516702241 L19.68060091130117,-15.858308393461561 L18.498651230617632,-14.459134637784668 L16.135511633380084,-12.265932369483835 L12.826620598776321,-11.27580624317123 L11.407011028662021,-9.784733387685083 L10.225637342940093,-5.788291074830972 L9.752842063200855,-2.4933582439370583 L8.100119202998044,-0.49443889591058454 L3.7323784128033255,1.8038185089355783 L-1.3187160897844559,3.5686200628572453 L-6.024050490667336,4.254166373146098 Z" stroke-width="4" stroke="#ff0000" fill="#ff0000" fill-opacity="0.5" />
</svg>