<?xml version="1.0" encoding="UTF-8"?>
<svg xmlns="http://www.w3.org/2000/svg" xmlns:xlink="http://www.w3.org/1999/xlink"
     width="101" height="101" viewBox="-50.5 -50.5 101 101">
<defs>
</defs>
<path d="M5.323264228909456,43.60889016958445 L5.323264228909456,43.60889016958445 L-3.3745925441907714,43.29357312611897 L-6.350605460436006,49.42927012582097 L-10.834428920417658,43.92066818138241 L-20.81424652452221,42.0630426626454 L-27.170278754422522,48.95511615460415 L-32.67336621632744,50.00000000000001 L-35.66120132887591,39.48532335346744 L-39.75895762093473,30.929950741102996 L-37.356824622141566,23.54992563075804 L-41.358012638461766,20.32067364247437 L-42.37570543236018,14.817189564951564 L-46.11439492740826,9.629815762130095 L-41.30322629262563,1.397646742248897 L-44.5839162756634,-5.013560821882136 L-42.834101559988376,-7.57749011111415 L-44.2008084704282,-10.405504384089888 L-41.22124889529201,-14.215729607607566 L-41.071274801156406,-20.70615351419361 L-40.69644253333348,-26.06774835440747 L-39.05658949772523,-28.649021949699836 L-45.65107161344989,-40.92554144324304 L-39.980078455145545,-40.27992748951238 L-36.05279060655568,-40.44665096628149 L-34.35144689572387,-42.75359621677514 L-27.68227138103309,-45.844505626640846 L-23.663540750843662,-48.70838310414417 L-13.683524838930218,-49.99999999999999 L-14.495076665417617,-44.28367825290211 L-13.557401072433375,-41.35161339801117 L-14.170492545495053,-36.23833807072892 L-5.887877069904527,-29.406573034363458 L2.653499587481617,-28.147661672538728 L5.654346743187042,-25.297978457822712 L10.810189604384354,-23.786811935780907 L13.966921952377028,-21.571706082504736 L18.765078544002705,-21.646590162056377 L23.195099569969535,-19.38457688473839 L23.531505886195283,-14.97564513153185 L25.017838168776922,-12.748709454729026 L25.118342091801143,-9.459545626470003 L22.892588634628638,-9.332239640342856 L25.82583570914991,-0.4512989962345118 L40.44851963601978,-0.13637856838694684 L39.32855340326329,4.268617537534151 L40.146603624105715,7.278327526855261 L44.312943909170166,9.419731520210137 L46.11439492740831,14.161728865783841 L44.759510213271675,20.16932664812285 L42.6697425224799,23.51130137135189 L43.40344327950472,27.85875007655827 L41.01924951019879,29.435342921109132 L40.88898416138416,27.083854685834297 L33.78368401145579,23.182583296334943 L26.701631638515998,23.07458943991087 L13.409204121354922,25.29403518331384 L9.75092081561565,32.00597653972858 L9.55857749537392,36.108660018117725 L6.554381988586485,45.2414515796018 L5.323264228909456,43.60889016958445 Z" stroke-width="4" stroke="#ff0000" fill="#ff0000" fill-opacity="0.5" />
</svg>