<?xml version="1.0" encoding="UTF-8"?>
<svg xmlns="http://www.w3.org/2000/svg" xmlns:xlink="http://www.w3.org/1999/xlink"
     width="101" height="101" viewBox="-50.5 -50.5 101 101">
<defs>
</defs>
<path d="M10.33205302027006,-38.893347090669444 L10.33205302027006,-38.893347090669444 L12.442084446136127,-37.02282123956533 L15.738811940780545,-30.954986667337764 L27.60570971391661,-19.437055468698386 L32.096158746236924,-18.30942576753248 L32.12217395270706,-14.610642222229211 L35.20648062805596,-7.960847166691301 L43.314983228003726,-6.351500986187073 L50.0,-1.6134094181129117 L35.16313243638019,6.108744821338131 L25.74873148343298,13.937098984662468 L22.256937126247678,20.92448354939275 L19.104347087523696,24.863317929730627 L13.399026710413326,25.702662233281245 L11.555596100550176,30.719811717433572 L10.494613981941399,33.99106926588047 L3.7890136346525445,36.43272379526318 L-4.745400152882606,35.91416030442302 L-9.754423161817526,32.97723118930706 L-14.173893986722907,31.703849222951693 L-19.289127405305607,34.13412668703005 L-21.855405364312514,39.156697316585486 L-26.821080181571663,42.31090216457846 L-32.06473288013816,46.9904726253129 L-39.57555682083902,48.06011599363725 L-41.91534205120624,44.37866543353961 L-40.94919327694085,37.98950478832893 L-47.166030704444836,28.026194513213657 L-49.99674940991305,26.451524788895178 L-50.0,-4.1526026216533065 L-39.66442375950668,-4.517822146584839 L-39.35502001210062,-41.86928328682892 L-31.549419979384982,-42.21607930600951 L-15.382264151339108,-45.88723283557362 L-11.375146407626106,-41.56475542455327 L-4.681457900139774,-45.674277241779926 L-1.5007030711784983,-45.69757663266129 L4.410526459279015,-48.06011599363721 L6.295690451548907,-47.27657698183757 L10.33205302027006,-38.893347090669444 Z" stroke-width="4" stroke="#ff0000" fill="#ff0000" fill-opacity="0.5" />
</svg>