<?xml version="1.0" encoding="UTF-8"?>
<svg xmlns="http://www.w3.org/2000/svg" xmlns:xlink="http://www.w3.org/1999/xlink"
     width="101" height="101" viewBox="-50.5 -50.5 101 101">
<defs>
</defs>
<path d="M-8.32080613304418,40.640524364905716 L-8.32080613304418,40.640524364905716 L-4.922113479087496,37.16719325315824 L-2.0471942476244225,34.69415655842558 L-0.3365264426879371,33.657002700291585 L1.8082752731330458,32.2527165815673 L1.8602045451894018,30.21842186468423 L0.5822212370395398,28.748053671218173 L-0.6793065085927185,29.236157242019196 L-0.17915675278462126,27.76618642746223 L0.16592607295236017,26.25975100339448 L0.1672404801132033,24.859280741117786 L-0.7494668117541108,24.39710869143584 L-1.7048777904469055,24.80899702531319 L-2.6546261196851266,24.69605225960602 L-2.952385193030116,23.715501970311625 L-3.189396239297704,21.381209102768867 L-3.666441977762978,20.620358404189474 L-5.3867844307554735,19.930982415932334 L-6.42657474511326,20.429881447097074 L-9.115622539148315,19.940855753442897 L-8.946272894056078,16.482925621723506 L-9.699555562257784,15.06665954781032 L-8.903294836657142,14.540117209456545 L-9.148332427428295,13.088178736550063 L-8.450402603422821,11.972043272932929 L-7.997905201796896,9.965656782511626 L-8.599544512067345,8.381948991729992 L-9.990997329868462,7.666773941990119 L-10.264205519073393,6.661606538737496 L-9.89016497898654,5.190448682054639 L-14.773773460703108,5.085273183480392 L-15.753404174445054,2.119262479009608 L-15.010058526271395,2.076745483037248 L-15.04362430758634,0.978247529462213 L-15.540021889464363,0.23450704968016106 L-15.652373134108599,-1.2379652141635382 L-17.131888684385927,-1.9934207298617632 L-18.73435225021665,-1.9684113315958305 L-19.78862142174938,-2.708200947993234 L-21.510543201175466,-3.212892540948237 L-22.512750641015483,-4.164615028228416 L-25.365355518352523,-4.585059745154787 L-28.131540672164384,-6.86669735994189 L-27.92678354735159,-8.574402654165052 L-28.239943600724686,-9.5536385362986 L-27.968905711715564,-11.462746160313548 L-31.301979899657734,-11.031378617988493 L-32.64413480702489,-10.074915604106874 L-34.871471612804584,-9.04262963760928 L-35.43967760139644,-8.272167973491356 L-36.75129292067945,-8.216486527504909 L-38.64526193663834,-8.432105342499604 L-40.082128031306915,-7.993363364650013 L-41.24098172765168,-8.285857167449507 L-41.07084241934264,-12.155280801437852 L-43.16094849454784,-10.65411064791561 L-45.408887868383594,-10.719927803384657 L-46.37212924942614,-12.078668185605087 L-48.06272177755126,-12.226363227452397 L-47.52440072076382,-13.320123201726698 L-48.93987458415953,-14.86986528498359 L-49.999999999999986,-17.164007598903655 L-49.32793546729542,-17.62973313306115 L-49.33070183585488,-18.705723137656992 L-47.79096045514351,-19.441037146725687 L-48.04488557805462,-20.818469621477732 L-47.39480425038518,-21.70477233219796 L-47.20992371292917,-22.893572095563915 L-44.29702932264065,-24.627208910906166 L-42.20935591960331,-25.117289187049867 L-41.8678291256426,-25.50021471197594 L-39.57236985726099,-25.380690268562418 L-38.42727413199327,-32.36513405602971 L-38.367117078678106,-33.469816855702696 L-38.765970874877056,-34.928470013252586 L-39.89593053938939,-35.85781701118993 L-39.882964778829866,-37.708609280295335 L-38.44840144399342,-38.12826433400492 L-37.939038101555866,-37.86459833321963 L-37.85294952712164,-38.84028073087763 L-39.34556329759487,-39.10368181239018 L-39.37708869104967,-40.69758899517189 L-34.41390763008772,-40.64065682454208 L-33.57137518728389,-41.5187317540035 L-32.86370448540423,-40.71081967500416 L-32.36710821407169,-39.208200107384 L-31.886376531494502,-39.52215237127457 L-30.48393211117582,-38.174862105697585 L-28.503410912055394,-38.339932285614964 L-28.010370672499104,-39.119477624026665 L-26.115940595113635,-39.71414242498237 L-25.06720161339914,-40.13221560495767 L-24.771151778823366,-41.21103311332976 L-22.951622531200737,-41.935819128608166 L-23.089378005719286,-42.47118022198298 L-25.24727794173619,-42.6900901494812 L-25.600917150522182,-44.294329183899364 L-25.498174324115777,-46.00210070794071 L-26.63826969811072,-46.6624502047291 L-26.160892810554536,-46.89689357189177 L-24.27508534603627,-46.570963900113 L-22.249611931474956,-45.93424316461151 L-21.514295375105558,-46.53640976612672 L-19.682523800321988,-46.93164639533261 L-16.833273718005955,-47.885213128319094 L-15.901690190054612,-48.857339494200836 L-16.238940066141158,-49.57613425823444 L-14.914621358270661,-49.6887478748507 L-14.32180335032195,-49.10178611120975 L-14.653061975163707,-47.98328165794224 L-13.777819644079933,-47.59745730482034 L-13.193555471879556,-46.413726669846035 L-13.900107908752217,-45.51630244427257 L-14.305414017622525,-43.34787196716468 L-13.653358531911133,-42.05994909168606 L-13.468674136608987,-40.88122135528522 L-11.9016205977995,-39.68603805636677 L-10.651280596838665,-39.55966646867347 L-10.369712166738548,-40.05856549983822 L-9.564696368634346,-40.16874389698593 L-8.412096295506446,-40.61551496663978 L-7.583846567723721,-41.2929772295262 L-6.174886152216194,-41.07689735310493 L-5.5550820406588866,-41.168121285749 L-4.170145218046633,-40.95960943970541 L-3.9406385196392475,-41.48009684429691 L-4.367927833544684,-41.986497676021145 L-4.113146817598649,-42.724116992222726 L-3.085140316275906,-42.4977689466825 L-1.8823864396790644,-42.75821006478244 L-0.4232085381851293,-42.21843959389709 L0.6891747515019131,-41.69295183803284 L1.4776713045710268,-42.38364223345083 L2.04745661959646,-42.27714978041504 L2.3948422051656233,-41.56006425515067 L3.614510158405947,-41.74211728883042 L4.590717300007998,-42.709701817565275 L5.372960229860267,-44.58550603223731 L6.879793032837102,-46.91663769961221 L7.747533563361384,-47.037020583361404 L8.377672073855825,-45.62812639767205 L9.80644284690198,-41.17332032647632 L11.168736713597982,-40.752809379731765 L11.237450149962138,-38.99442553809561 L9.321497928968128,-36.89747231861066 L10.11381033848482,-36.129642016115135 L14.616531135834762,-35.729603725091025 L14.708412272059265,-33.176403477350746 L16.643191592521966,-34.847909081335864 L19.848643468127495,-33.93238373699303 L24.079406800915866,-32.37671663230952 L25.322703515443088,-30.883972949500624 L24.905022619775483,-29.473894268986086 L27.867018778344143,-30.258967249915308 L32.82440727751584,-28.911679531639024 L36.63005414389529,-29.010932556087354 L40.39568291628842,-26.90279159193098 L43.6489196057125,-24.049065902286255 L45.61114354390969,-23.31427663716162 L47.78944481122744,-23.21212987911886 L48.71260441576615,-22.408627177630052 L49.5770538337869,-19.165261278415837 L50.00000000000001,-17.62407303090726 L48.98561646281724,-13.412926460804346 L47.689664495534366,-11.749842232931185 L44.099111700205526,-8.205428695169157 L42.47624425577326,-5.325771484405342 L40.59056670359065,-3.117455372947489 L39.95371605575349,-3.067698948387661 L39.242028260670985,-1.19360397248487 L39.42283056970738,3.579232591021045 L38.71265841854098,7.50552216582103 L38.44201536114025,9.185056861610406 L37.63660473142766,10.190094352527366 L37.18496322283669,13.595369231491098 L34.60220919238291,16.92061301708358 L34.16912986398791,19.551477915845442 L32.10732429955217,20.65537359960234 L31.510950259827226,22.18221035497094 L28.743511834071292,22.17615542120866 L24.73633272556437,23.154996471733806 L22.942207707816053,24.288247248749677 L20.089340458507,25.032382560140114 L17.091475758791212,27.0606197959602 L14.935221379026075,29.587098859364602 L14.56446940414205,31.489099514428453 L14.988006544117395,32.8957546228031 L14.51221153029548,35.46909637717291 L13.934134751493751,36.7121281724274 L12.153897617158144,38.114045301501314 L9.327552862730402,42.597284343102864 L7.0875788981813965,44.617887318727085 L5.355783781244748,45.809188531379775 L4.194166263641249,48.23220133497917 L2.5089689183972728,49.68874787485071 L1.803667206167989,48.246022988573685 L2.9269121860369145,47.03774146945932 L1.4536477116757356,45.30449948572547 L-0.5447096869413178,43.89652487558856 L-3.1660298499828254,42.26464253398137 L-4.1129506754447895,42.33901607249944 L-6.667335418010247,40.36895918465184 L-8.32080613304418,40.640524364905716 Z" stroke-width="4" stroke="#ff0000" fill="#ff0000" fill-opacity="0.5" />
</svg>