<?xml version="1.0" encoding="UTF-8"?>
<svg xmlns="http://www.w3.org/2000/svg" xmlns:xlink="http://www.w3.org/1999/xlink"
     width="101" height="101" viewBox="-50.5 -50.5 101 101">
<defs>
</defs>
<path d="M-45.5221119034958,-24.284988154698777 L-45.5221119034958,-24.284988154698777 L-40.8652209490648,-17.62963664427109 L-34.59299836262086,-18.81499233920215 L-22.15479263236025,-16.290368924275043 L1.618253499968826,-15.438802244577374 L9.645490813112936,-19.567442135278462 L28.702237373847698,-23.330937563485907 L40.48209202508105,-17.446441189111273 L49.99999999999997,-15.746642482341313 L41.59884452667757,-9.040267549216459 L35.687169114641605,2.5384233730011445 L40.9128935315023,11.774002821504595 L26.97564813263497,9.602820209613613 L10.485353833353145,14.69512614618571 L10.308843871078427,22.75666505599706 L-4.404695708901054,24.284988154698777 L-15.809790442982742,18.62886692226935 L-28.76914086560136,23.07747158867869 L-40.74308524974691,22.609438523817225 L-41.89245583406381,11.90450752765456 L-50.00000000000003,6.708875922593999 L-47.33736081669854,4.424768375190479 L-49.09237554339865,2.499103609761492 L-46.36951836122872,-2.651769187000372 L-40.19850086320563,-7.712703488677923 L-48.06345714445278,-14.700144312758066 L-49.51566598759543,-20.612661481767464 L-45.5221119034958,-24.284988154698777 Z" stroke-width="4" stroke="#ff0000" fill="#ff0000" fill-opacity="0.5" />
</svg>