<?xml version="1.0" encoding="UTF-8"?>
<svg xmlns="http://www.w3.org/2000/svg" xmlns:xlink="http://www.w3.org/1999/xlink"
     width="101" height="101" viewBox="-50.5 -50.5 101 101">
<defs>
</defs>
<path d="M-15.439565734570508,35.579914308574644 L-15.439565734570508,35.579914308574644 L-24.38873236342611,32.20810434755776 L-30.515432602832263,32.704752151406055 L-35.08934678561701,35.993451864377576 L-40.968743041183906,33.23248130509765 L-43.254000269101475,28.90791094232194 L-49.13407647005828,26.057069908716027 L-50.0,18.466094196234607 L-46.43392179555794,12.923545502010864 L-46.73596138328614,8.494577370135998 L-36.35664730958031,-2.342536089082253 L-34.43761912937439,-11.30994356060987 L-30.85464689716728,-14.500992654889934 L-24.53131168134412,-12.738064245163201 L-19.051265659501922,-15.400377343539656 L-17.27277696104423,-18.75934679738529 L-7.12761254305722,-24.62084218297514 L-4.632866755678494,-28.708229287523153 L7.5887855037735,-34.13219289056946 L14.787171208810836,-35.993451864377576 L18.05086985282974,-33.48485872761557 L26.434452675997,-33.54499466700524 L25.398242053497842,-27.20747212910386 L27.154096415994776,-21.251385879077205 L34.51735580221592,-12.713063176210605 L34.92345318634832,-6.385334467098695 L50.0,-3.4196218902141955 L49.70404069316248,5.535625019532098 L46.8471193786659,9.445311011597914 L40.45552810639263,10.667002890944728 L37.7918681931092,16.383879122446782 L33.29498397747916,17.863701808380146 L21.843657541320084,17.58462345343479 L15.796000953492651,16.543012495434894 L11.574141572214186,18.653602213379155 L5.797456298144546,17.700514914798266 L-16.91600176942712,18.316767727908868 L-17.22311479583398,25.735429587535986 L-15.439565734570508,35.579914308574644 Z" stroke-width="4" stroke="#ff0000" fill="#ff0000" fill-opacity="0.5" />
</svg>