<?xml version="1.0" encoding="UTF-8"?>
<svg xmlns="http://www.w3.org/2000/svg" xmlns:xlink="http://www.w3.org/1999/xlink"
     width="101" height="101" viewBox="-50.5 -50.5 101 101">
<defs>
</defs>
<path d="M7.411143809453407,45.15417334764797 L7.411143809453407,45.15417334764797 L6.292826366592124,44.664410891287886 L0.9751051117603309,45.82150040923583 L-4.484202490485975,44.61821858125646 L-8.75322715090916,45.208486592776325 L-23.371727808893546,45.003531798266984 L-22.05981949065745,37.91084722463898 L-25.570767436451646,31.971757651533363 L-29.66942314320971,30.448166020660047 L-31.494765006279795,26.42285924649759 L-33.79546903924935,25.13463100007069 L-33.692412216868846,22.651942560913525 L-31.381494131681126,16.294588896974886 L-27.108750370450284,7.62724243138281 L-24.50768852225302,7.546473263842439 L-19.157474543698203,2.2886349220152113 L-15.751910104123137,2.139619356320668 L-10.708548892206528,5.831150307998136 L-4.537123318645267,2.8041615839704206 L-3.6968670528362875,-0.9298425769308135 L-1.6788775645962417,-4.548024596012673 L-0.2871253623540582,-9.09373598318966 L4.517162347643761,-12.794322136833621 L6.32996347465707,-19.082737685801195 L8.235616355168025,-21.08470988722949 L9.502949363723843,-25.753672634505897 L11.8770113126243,-31.486873146232607 L19.44483347276967,-38.438204939163505 L19.919270359134885,-41.42411287093651 L20.89832813842026,-43.04658407328318 L17.342346732846302,-46.62461058364458 L17.63156521232158,-49.48470690476218 L20.167165496302776,-49.99999999999999 L23.738930621971097,-44.247539217423935 L24.338711985556962,-38.28732982306512 L24.010038697513405,-32.32015834386105 L28.899739959393536,-24.154414370533647 L23.88237651978944,-24.24237918963668 L21.34770151934251,-23.602675884047773 L17.25368121359111,-24.505132763364667 L15.302069589766107,-20.266049559443765 L20.60447425793832,-15.023069654176629 L24.516977290936904,-13.498085606334254 L25.78245973242417,-9.7793980320926 L28.614240580725916,-3.586843653942881 L27.20716280848886,-1.1533749088079182 L22.68930874402822,7.950579618267539 L20.533443025846044,9.58140532242852 L19.840351758663065,16.545268868080882 L20.734454136165617,20.328717306386434 L20.010720712328187,23.005688337735307 L24.256074284277467,27.69692975651657 L25.02205633395657,30.92214475692576 L28.338488120841667,35.55813866370911 L32.446890746383104,38.44865255809904 L32.847987683488,42.54638298132282 L33.79546903924935,45.14929539658864 L33.149270782249964,49.999999999999986 L26.011319182124822,47.87686057225821 L18.74803208811431,45.50651772416542 L7.411143809453407,45.15417334764797 Z" stroke-width="4" stroke="#ff0000" fill="#ff0000" fill-opacity="0.5" />
</svg>