<?xml version="1.0" encoding="UTF-8"?>
<svg xmlns="http://www.w3.org/2000/svg" xmlns:xlink="http://www.w3.org/1999/xlink"
     width="101" height="101" viewBox="-50.5 -50.5 101 101">
<defs>
</defs>
<path d="M-43.65029428596715,-5.551045663125435 L-43.65029428596715,-5.551045663125435 L-37.248563065421216,-6.13303601080278 L-35.821287932877716,-8.124693811039858 L-34.538861907394896,-7.973448950387919 L-32.60462651470375,-6.220067815119975 L-22.856584362506364,-9.182447698260427 L-19.568694690959262,-12.20525428966523 L-15.530953240614526,-14.912152466093412 L-16.297607422914705,-17.637858494184083 L-14.11408475798229,-18.34969193141615 L-6.636806137197879,-17.86853149084009 L0.6508143861714288,-21.455720749938497 L6.248678359332787,-29.903930515789643 L10.176778319541295,-33.03856987852481 L15.078403344251285,-34.35880518340985 L15.956301826607111,-31.045309268368378 L20.42217935845635,-26.204296784956874 L20.44499036339573,-23.044848712165454 L19.18697040972855,-19.822581330795263 L19.684337039489282,-17.416182913597158 L22.369624382656863,-15.186442024468167 L28.26638530512894,-11.80171785605358 L32.50618920791689,-8.672878032591857 L32.577417461290004,-6.1562419109396735 L37.784745570185706,-2.12390510467084 L41.0118136382709,1.2266102993777934 L42.96686233078451,5.871553445696767 L48.75478703960156,8.935971150660343 L50.00000000000001,11.390585497171895 L47.44354915078563,12.212052681497127 L42.47790464581813,12.03379234350865 L36.65276687191668,11.219123551015313 L33.775010706692825,11.882547482856712 L32.613825249893175,13.76536906943876 L30.106596925593784,13.997644876014137 L27.051981913180505,12.359704770155899 L18.431520410777736,16.22418788834749 L14.902752411783714,15.446530841818229 L13.839198985289695,16.043325887881203 L11.524029101762876,20.71927992177049 L5.74771121453581,19.207977285628242 L0.08342741775939819,18.44572115180244 L-4.848209641962452,15.58937450071891 L-11.219921084453432,12.957901307017934 L-15.366103853255705,15.451331528533231 L-18.380702818986478,19.382637108580465 L-19.076934024394774,24.78262761560964 L-24.05698833255039,24.35048838082826 L-29.29792899149419,23.049649398880465 L-33.91265878368099,27.153013139402113 L-37.971608429045745,34.35880518340985 L-38.78827492665595,32.11526619149676 L-39.133994057524156,28.58329257266401 L-42.6751664115463,26.091860056265602 L-45.53371208686703,22.095938781643014 L-46.19393814191279,19.31601596584513 L-49.85315318782245,15.272474976226922 L-49.229342664422944,12.965102337090439 L-49.99999999999999,9.7040190807165 L-49.402600996576105,3.7016275644281227 L-47.54438680093,2.295963265145261 L-43.65029428596715,-5.551045663125435 Z" stroke-width="4" stroke="#ff0000" fill="#ff0000" fill-opacity="0.5" />
</svg>