<?xml version="1.0" encoding="UTF-8"?>
<svg xmlns="http://www.w3.org/2000/svg" xmlns:xlink="http://www.w3.org/1999/xlink"
     width="101" height="101" viewBox="-50.5 -50.5 101 101">
<defs>
</defs>
<path d="M-26.3817180543033,15.989862892287528 L-26.3817180543033,15.989862892287528 L-25.756278461163653,13.043671750857456 L-29.76748826213996,12.899674407884273 L-29.7535901604943,8.876342860288117 L-32.3574826922662,6.559306646100985 L-29.656822594985737,-1.6797031735770855 L-21.67848036580404,-7.577552126481481 L-21.348791374920687,-15.712782782115973 L-18.93882802475263,-28.40515218014742 L-17.57837775628221,-31.09744964830985 L-20.180981805183272,-33.24156020264208 L-20.281608564533137,-35.23079636685358 L-22.621968820590958,-36.85746846266167 L-24.15806557439597,-46.580078741314864 L-17.84356129159775,-50.0 L7.103030780667384,-38.02442738351349 L32.049560305220325,-26.048917314739136 L32.3574826922662,-1.2197898459418497 L26.963993471269802,-1.6568732586326007 L24.10781474243321,2.949327909195736 L22.453803041632693,6.811461492970114 L23.757985388228956,8.272826240266408 L21.701854445844468,10.191164572725643 L22.410457477094237,12.781640620235628 L20.790534279430037,15.389004550033325 L20.160178436113306,17.686256922858977 L22.35685408775882,17.324293312492436 L23.667916682694525,19.737446595981506 L23.737157000074127,23.370718100901346 L26.035973065704184,25.214311917309427 L25.960571798675176,26.729311327797237 L22.001076446126557,27.795787349037198 L18.8279872240043,30.327925145399988 L14.306075353105294,37.15232463263384 L8.419191014145488,40.05002878758454 L2.3791023089800607,39.66135104934734 L0.6152693351397155,40.23636467693013 L1.2345667429435954,42.43816924097413 L-2.0270900396208402,44.62478096573042 L-4.683022267923758,47.066581101396416 L-12.557416454238991,49.45956900247971 L-14.119877068726481,48.04320107932333 L-15.155811042110553,47.92102663312859 L-16.308753020663584,49.52987263096632 L-21.480022729838605,50.00000000000001 L-20.500325404472598,48.305663789159176 L-22.471991916333682,43.99401230751334 L-23.35310153776678,41.40482474287418 L-26.077235791427157,40.34303354527626 L-29.76910824788535,36.69253640042295 L-28.41027171038908,33.74101619391543 L-25.559753549504485,34.369364255671286 L-23.794951086125383,33.92396199726104 L-20.301542520403842,33.98520871702446 L-23.706064532351085,28.299696737417516 L-23.477221217810207,24.144971210851786 L-23.894989896980796,19.995080622437314 L-26.3817180543033,15.989862892287528 Z" stroke-width="4" stroke="#ff0000" fill="#ff0000" fill-opacity="0.5" />
</svg>