<?xml version="1.0" encoding="UTF-8"?>
<svg xmlns="http://www.w3.org/2000/svg" xmlns:xlink="http://www.w3.org/1999/xlink"
     width="101" height="101" viewBox="-50.5 -50.5 101 101">
<defs>
</defs>
<path d="M-14.577359252701916,25.225374339203697 L-14.577359252701916,25.225374339203697 L-17.136250566909084,23.810220077213156 L-20.069227133475103,21.8309174096486 L-21.766613944378136,22.781657423834023 L-26.837299057272915,21.952575036643683 L-28.29306163129972,19.3819541584979 L-29.40714911843044,19.477368155936876 L-35.38365772379543,16.0654632759483 L-36.194365985101136,14.21044737859483 L-33.96494814313775,13.762094805709305 L-34.229577383154094,10.768749525708541 L-32.82831575292991,8.60448065757262 L-29.86415396262681,8.203835083406581 L-27.347872694495383,4.448874816333433 L-25.060870640776034,1.3141055326136253 L-27.26326806086952,-0.10784267446008625 L-26.135897425172573,-3.5757901322279775 L-27.4840503624334,-9.04218520043333 L-26.202904725227697,-10.610959105469878 L-27.146085952667065,-15.6646623433195 L-29.565554997194596,-18.847449342684325 L-28.79977520825512,-21.751869828729248 L-26.873891950579296,-21.322966940316665 L-25.74729213187068,-23.098935256750778 L-27.13450577186569,-26.618449773505294 L-26.40932831963698,-27.492155891461806 L-23.321955317711105,-27.30240345517222 L-18.838728355130346,-31.473610871268193 L-16.378184923178264,-32.109546837290104 L-16.319053102120154,-34.08591562003862 L-15.217932071304768,-39.13498798063278 L-11.790897667173256,-41.90786765132064 L-8.025594111675291,-42.02134505771866 L-7.550376475382565,-43.2668239770691 L-2.874929267084578,-42.76813526224808 L1.8272276461578834,-45.78541769616547 L4.155453470439097,-47.12136901877388 L7.048138417219858,-50.0 L9.165005028236354,-49.6339396097754 L10.732697399359033,-48.062076461460066 L9.572749289085568,-46.050196319319014 L5.734570663900435,-45.0486600631353 L4.218911427152661,-42.06117657744112 L1.9059645101517004,-40.347889425406734 L0.16936761337725204,-38.12727323789145 L-0.5615222500207891,-33.86343632603528 L-2.2187668242758813,-30.369245238711265 L0.8658276512966843,-29.969059764608033 L1.6320735156245507,-27.22196959873897 L2.950427504662173,-25.90732031150567 L3.422245180750574,-23.501433181818996 L2.7125079695903027,-21.289774007214614 L2.922791624266737,-20.042598095424754 L4.393528363973763,-19.54453081445479 L5.816707488098577,-17.46024167801481 L13.500629500540434,-18.034888730476375 L16.971821560049918,-17.27357848500403 L21.177452826299003,-12.131721270186892 L23.592446352033846,-12.770746479487608 L27.89627611740078,-12.450845478680339 L31.302002510831727,-13.132331350919518 L33.41515844471831,-12.105471665305293 L32.33905012640801,-8.887173306547943 L31.005566613227284,-6.881011550901711 L30.537608997406036,-2.5955559114193845 L31.73970107836694,1.3747789876484044 L33.438318806321135,3.1502872040197194 L33.64381622527929,4.488090877530325 L30.615730402874316,7.462601931583719 L32.783853355951905,8.779408311319239 L34.372082920786895,10.868639041940213 L36.19436598510105,16.827693721546247 L35.06669060780407,17.564146612976376 L33.901800903349695,14.039379785115345 L32.24178377806685,12.14422165111389 L30.26541499531827,14.203964150437187 L18.623043006210086,14.070415625715171 L18.696993634485704,17.809320193194225 L22.198289383818427,18.427192750257092 L21.996347283527395,20.715897771741375 L20.801509247712495,20.097403780827452 L17.436385190992233,21.081808778828705 L17.405970784243486,25.423301020764857 L20.056571394085196,27.603314871569346 L20.99218188412766,31.024947581457134 L20.85106859733412,33.61625503645248 L18.16496260342535,50.0 L15.174855949840723,46.82354087033006 L13.390396695883943,46.681812125010985 L17.244320303737716,40.60062776769608 L12.668613228534083,37.80243661822869 L9.082402128649909,38.31593816494169 L6.924622463997138,37.28213515110702 L3.6320627600386195,38.86217852001944 L-0.8171944771261898,38.11368534772511 L-4.33733042773176,31.848777657540953 L-7.103254819548188,30.309187242202054 L-9.010614568202147,27.48875593125747 L-12.984349427474198,24.65875214887643 L-14.577359252701916,25.225374339203697 Z" stroke-width="4" stroke="#ff0000" fill="#ff0000" fill-opacity="0.5" />
</svg>