<?xml version="1.0" encoding="UTF-8"?>
<svg xmlns="http://www.w3.org/2000/svg" xmlns:xlink="http://www.w3.org/1999/xlink"
     width="101" height="101" viewBox="-50.5 -50.5 101 101">
<defs>
</defs>
<path d="M37.642956369979295,44.05927618347523 L37.642956369979295,44.05927618347523 L21.66152902831921,37.524241436312124 L15.68198946320302,31.34231808946399 L19.07353758427635,26.229506506938854 L18.00363065666628,19.722626430226228 L9.838658424062901,12.67167796240284 L-1.7505814263404993,6.883154289066555 L-11.888677728860463,3.1081018598280017 L-13.82378121347223,-5.506608837680368 L-21.54891034651751,-10.768557712215058 L-19.655685461676356,-2.206386692618456 L-25.532472259845136,4.830867296377033 L-32.2638239873669,-3.34170316318904 L-41.72623764956785,-6.251559035425689 L-45.75088299937922,-12.186981763371755 L-45.581954976676464,-21.153213534621514 L-41.68285707470001,-30.429941844113188 L-50.0,-34.580900354554366 L-43.25038896737444,-40.26976356261415 L-38.81255321335785,-44.05927618347528 L-19.40912594178981,-36.26031466672785 L-12.637456490579135,-40.099304114321974 L-3.297586326018651,-37.6422201076768 L1.5838916410373558,-31.582015644690337 L10.275468122934516,-29.620288915217557 L17.327152853060397,-35.86158445414537 L24.786726898812947,-19.86036638179203 L36.17355351699248,-8.00783913198796 L50.0,4.563015070700312 L38.61164195623121,7.193621376816331 L38.78056997893397,19.04691433941508 L44.90544772257855,23.423875926254713 L40.503364865975136,26.912080562410043 L41.64857670189245,32.24176556878163 L39.19225840804154,38.21367745644331 L37.642956369979295,44.05927618347523 Z" stroke-width="4" stroke="#ff0000" fill="#ff0000" fill-opacity="0.5" />
</svg>