<?xml version="1.0" encoding="UTF-8"?>
<svg xmlns="http://www.w3.org/2000/svg" xmlns:xlink="http://www.w3.org/1999/xlink"
     width="101" height="101" viewBox="-50.5 -50.5 101 101">
<defs>
</defs>
<path d="M40.22171448504402,-24.714519926746284 L40.22171448504402,-24.714519926746284 L44.45875991976979,-17.95831516525671 L49.99999999999999,-12.987616639051163 L43.28525333565887,-6.424749280544085 L35.39701752856023,-10.28549751460705 L23.337525071945567,-10.043934769338053 L8.344292317083804,-12.939844771954307 L0.19556989622397264,-12.553187407342723 L-3.5854015871631737,-8.934437952384993 L-9.843184791139786,-12.939844771954307 L-13.494375163512686,-5.70054940263355 L-4.954495508851474,2.4544867881748123 L-1.173506584110923,7.8596145460888 L6.844510334001935,14.374274003662782 L13.493450771779898,18.23545827156199 L20.078416325106808,25.52207203278983 L35.5153745530653,32.124723118514076 L33.59710473532749,35.08991017702982 L17.20143019098281,28.636539635475774 L7.086073079270932,22.357600069765493 L-8.866155053632188,17.173733321705782 L-23.533129850876414,4.337315775704199 L-20.013534490276434,3.0340280805791227 L-27.965762623179565,-4.301264498124992 L-28.29203802215051,-10.189046830033924 L-39.504281852271724,-12.939844771954307 L-44.84993459492458,-5.411232231621102 L-49.99999999999999,-11.250789221243531 L-49.60884276619864,-17.306671317694235 L-48.98693642626669,-17.5887852097322 L-36.83191767681172,-16.993023458620353 L-33.63769076480333,-19.936687886979932 L-27.705276009418316,-17.08945670183995 L-20.860748234062974,-16.751460713351356 L-20.925647510246783,-21.62574343769071 L-14.86345164384755,-23.41123223162108 L-13.16809976454174,-30.456736722769577 L0.7165256823929432,-35.0899101770297 L6.257765762623207,-32.94254818173882 L19.296066974797235,-25.46259701752848 L33.70255515828027,-22.108834045521892 L40.22171448504402,-24.714519926746284 Z" stroke-width="4" stroke="#ff0000" fill="#ff0000" fill-opacity="0.5" />
</svg>