<?xml version="1.0" encoding="UTF-8"?>
<svg xmlns="http://www.w3.org/2000/svg" xmlns:xlink="http://www.w3.org/1999/xlink"
     width="101" height="101" viewBox="-50.5 -50.5 101 101">
<defs>
</defs>
<path d="M-24.930178942335758,-15.435608007716285 L-24.930178942335758,-15.435608007716285 L-16.93070576090169,-14.77486193704366 L-9.653718674069493,-14.670285487871185 L-0.9544974356494562,-11.514959035410731 L2.7321025710561777,-8.12415728016389 L11.38322660811644,-9.170421916096895 L14.663227897377121,-6.994127751279382 L22.50691541987203,-1.2578163740915458 L28.273365116571604,2.9196010775699834 L31.322438710569003,2.7922958527116295 L36.846235108900835,4.681183074453161 L36.17161466741437,7.288721951866515 L42.99917587348798,7.670183791882236 L50.0,11.46087862741166 L48.90132210342872,13.630476416996563 L42.742629680446775,14.80622283128674 L36.50856367289608,15.266179526207855 L30.127316339174147,14.533403427617946 L16.86585372856583,15.435608007716318 L23.074801382546784,10.268627454249321 L19.30012968554087,7.862831931355054 L13.329547056438342,7.243727496983888 L10.12922614909526,4.57014179829261 L7.933778313487907,-0.7045364746834949 L2.699556149801053,-0.34388619088871214 L-5.93696182399247,-2.8274634000951546 L-8.71609647448338,-4.770199481591224 L-20.788169848232112,-6.205594835399719 L-24.02103717683032,-8.012152763305973 L-20.547906127748234,-10.326301491003951 L-29.6328960035328,-10.800373366913359 L-36.288157529865565,-5.987578270253069 L-40.12575477781273,-5.858346564000014 L-41.45346167404185,-3.598528316405289 L-46.03699622279981,-2.5857640804950166 L-50.0,-3.4637950238614916 L-45.11109962631815,-6.325008896083529 L-43.10399313283471,-9.66675947120305 L-38.916517225429544,-11.72626996339498 L-34.186523781023524,-13.531642364289093 L-27.17420559965154,-14.418055354108553 L-24.930178942335758,-15.435608007716285 Z" stroke-width="4" stroke="#ff0000" fill="#ff0000" fill-opacity="0.5" />
</svg>