<?xml version="1.0" encoding="UTF-8"?>
<svg xmlns="http://www.w3.org/2000/svg" xmlns:xlink="http://www.w3.org/1999/xlink"
     width="101" height="101" viewBox="-50.5 -50.5 101 101">
<defs>
</defs>
<path d="M21.376885613605722,18.74033442748589 L21.376885613605722,18.74033442748589 L14.40572729638577,15.884972901239069 L7.304053979467532,16.669922862928388 L-4.433842988534912,12.055171961186351 L-9.756196589371328,13.184336143491198 L-18.262868187713554,19.370559620676367 L-29.497531616733202,14.503398062583361 L-38.03547479651168,8.002659294154421 L-45.75213067891842,4.368215008151314 L-47.35250073604652,-2.0086774101989406 L-49.999999999999986,-6.503090185698417 L-39.01070053634996,-9.795648985873832 L-33.396105841298535,-13.563330169379212 L-22.53730625569234,-16.492152693023016 L-18.745022140370388,-19.370559620676367 L-14.75736624934429,-17.632642994523078 L-8.008904537448988,-19.210360813260696 L-0.8416032401471504,-14.342034887773936 L10.464177329827349,-13.026496314172325 L9.520979254148582,-8.866136007487023 L17.73540975827583,-5.7380705645957075 L19.992966918507754,-9.642890032455583 L30.36336730816252,-7.9518656568023 L31.79807964061272,-3.217154670179373 L43.04056096499143,-2.303670645526843 L50.000000000000014,5.1422168920070845 L45.4911309228307,5.160589702183517 L43.14762227861255,7.882699209273531 L39.67726306522285,8.5402794753935 L38.68641665632096,11.980939759411495 L35.791209570555615,12.699067130014306 L35.3825166152959,14.105653185157244 L30.21880429146503,15.670079069619055 L23.519578686511917,15.413767026415863 L21.376885613605722,18.74033442748589 Z" stroke-width="4" stroke="#ff0000" fill="#ff0000" fill-opacity="0.5" />
</svg>