<?xml version="1.0" encoding="UTF-8"?>
<svg xmlns="http://www.w3.org/2000/svg" xmlns:xlink="http://www.w3.org/1999/xlink"
     width="101" height="101" viewBox="-50.5 -50.5 101 101">
<defs>
</defs>
<path d="M48.20823310593007,-39.541964189620245 L48.20823310593007,-39.541964189620245 L47.88960632087133,-33.385189891306844 L49.99999999999999,-32.67215629556569 L48.30727578811331,-30.802566390189625 L46.284498814541756,-29.404116363409663 L44.2712417330163,-26.658238297641113 L43.16352752438788,-24.21016751850745 L42.86721035359869,-19.98366190651003 L41.64739520378571,-17.971763305154877 L41.603313048802285,-14.002121019310849 L40.089086812780145,-12.534420096407864 L39.89399221095911,-9.401206688440261 L39.170754217659685,-8.995237000029277 L38.68342315098738,-6.114800946850148 L40.00745689774098,-3.720879819155751 L40.34241177197836,2.629625335381375 L41.29013071527877,7.473797128994325 L40.763619606175546,10.211924486194368 L41.816910361159835,13.265956402685536 L44.870673740873166,16.214416507492807 L47.71409910755224,22.848991449578378 L45.63989470830902,22.313234250633908 L38.56751004064276,23.20190669536956 L37.15613865596395,23.831267390389083 L35.65551301792583,27.192500115312853 L36.833973503950006,29.51459028764606 L35.89877048066818,35.74863999285587 L35.24682110374723,41.03388081137282 L36.669349928274336,41.97071611702981 L40.350573183854166,44.019888676235844 L41.79568542485572,43.06237603868446 L42.235943573999144,48.74025448440623 L38.20616484619792,48.69671466840553 L36.04352760021001,45.798865848082315 L34.10346521964306,43.555146291464986 L30.068515842511484,42.81938711271995 L28.887064593941844,40.060308621420646 L25.668140564997152,41.72256180716195 L21.451702449455585,40.988166374014234 L19.69203886390618,38.59750981107016 L16.34876651053621,38.11181629220003 L13.881103077473593,38.23888157696591 L13.579072918371343,36.60221310109851 L11.762816523246954,36.469698099370405 L9.364814689614647,36.159232726187476 L6.103166985856838,36.947777810774454 L3.815091472051212,36.81852737379666 L2.511740322619019,37.301503932326206 L2.7933616866047304,31.035619455373713 L1.0369679312326643,29.08168267461788 L0.6505856313236419,25.843439793949095 L1.426340993687171,22.669408795748403 L0.35917057308695205,20.6379228058913 L0.2625763144664473,17.324847676461836 L-6.126298006741016,17.370835916025285 L-5.667810949265938,15.473765747049308 L-8.354237078589453,15.493626937756122 L-8.638038329360054,16.405972742358657 L-11.903766739055774,16.611682445045265 L-13.224804457836884,19.680136366135052 L-14.013886615979569,20.9968195767734 L-16.923435215133782,20.253172788357425 L-18.660783920986585,20.993828814227943 L-22.142558066602607,21.41965969334574 L-24.159079712878384,18.666567992564378 L-25.369101168440388,16.963776284221854 L-26.88033664191706,13.806347177404664 L-28.179064746428633,9.882682600270051 L-43.716976558108314,9.813026266266746 L-45.56370924480508,10.445656791463607 L-47.08909292067551,10.347156448263073 L-49.26234000210197,11.05488249357144 L-50.00000000000001,9.421752384659243 L-48.66073337288723,8.865581125171206 L-48.495841260433714,6.570160340677341 L-47.634375277093106,5.216466443538932 L-45.7182600585979,4.1098421783029435 L-44.33491127650169,4.646146981657148 L-42.53416156394136,2.6304414765689534 L-39.66597289400296,2.68241650665034 L-39.32856959620284,4.172969382805599 L-37.36156929101869,5.1057239825246805 L-34.2634552195441,1.8057123775235333 L-31.196091241846766,-0.765616782642963 L-29.865254563387644,-2.4507219216365455 L-30.04157791789431,-6.7828046107448845 L-27.75486088425898,-11.897982667477963 L-25.342163243823183,-14.610262043453254 L-21.87535870721552,-17.148124149501903 L-21.270208445618575,-18.827784836960266 L-21.139057189487772,-20.758869664463823 L-20.2808610363245,-22.586009697231628 L-20.556495609792275,-25.570116742941646 L-19.900196990155568,-30.23619599857033 L-18.87111666859382,-33.52124325999015 L-17.29403703027389,-36.33677765976201 L-16.981939374715814,-39.516795448480636 L-16.508487973659403,-43.18889898446763 L-14.458499273265776,-45.862266854789844 L-11.639010537804399,-47.557850193546564 L-7.3061169729355,-45.76839482193695 L-3.9525033209048317,-43.826020918909684 L-0.10067496455841557,-43.30767122168228 L3.827338855291948,-42.27995464571785 L5.401701533271277,-45.459698632231614 L6.124939526570707,-45.86553141954017 L8.524573642578172,-45.33670878797663 L14.386663052477546,-47.96463602314514 L16.463863479693245,-46.85080338832336 L18.16882980939364,-47.00875566796891 L18.95845957194604,-48.28911269761937 L20.915392380674362,-48.74025448440623 L24.87660471786473,-48.18626311170309 L28.253344125352537,-48.065042450925695 L29.9917827745978,-48.62365686854946 L33.18132045536255,-44.27688363806466 L35.54558669809915,-43.638408488879314 L36.95505726362496,-44.52258952436977 L39.389790716125454,-44.17607177240382 L42.32219653395894,-45.28990967265262 L43.57276177754917,-43.0410142012779 L48.20823310593007,-39.541964189620245 Z" stroke-width="4" stroke="#ff0000" fill="#ff0000" fill-opacity="0.5" />
</svg>