<?xml version="1.0" encoding="UTF-8"?>
<svg xmlns="http://www.w3.org/2000/svg" xmlns:xlink="http://www.w3.org/1999/xlink"
     width="101" height="101" viewBox="-50.5 -50.5 101 101">
<defs>
</defs>
<path d="M-34.72868444475157,25.48485793415292 L-34.72868444475157,25.48485793415292 L-26.33336030471675,13.697196222176695 L-29.74446743584017,6.808957275278303 L-35.77320252685605,14.13326513201073 L-45.220773391011214,7.221398622377448 L-42.01955409521026,2.7751424160018865 L-44.682828361214234,-11.540084917271193 L-39.15781145678136,-13.918487747657627 L-36.2549177428014,-23.744273115697922 L-30.286087513779627,-33.90259513603434 L-31.3856366815862,-40.33927634358892 L-22.74457327091752,-43.722670772626024 L-11.900768021970983,-49.99999999999999 L3.8750937886479093,-40.99378191317959 L6.815889393984533,-41.24564100647108 L10.65858597712033,-34.46011413469256 L24.043395220828458,-32.271630852297285 L28.523894043156847,-34.781247096830256 L36.2659113417504,-29.55659045752456 L43.0204763272483,-25.821085407330187 L45.22077339101099,-13.843504147362802 L40.311145663924165,-3.588179783355121 L23.11258281279331,12.926950295210466 L4.1456908956437015,19.14681943510567 L-5.519512218588767,32.87030092650645 L-8.503919446730384,43.51196275488549 L-17.42169978705228,50.0 L-24.04136053752239,42.03585522076866 L-30.41242715163437,40.33071174641601 L-36.93183637423853,41.58674225594013 L-37.358536277220566,35.80702716523033 L-32.85888934997878,32.05114373649558 L-34.72868444475157,25.48485793415292 Z" stroke-width="4" stroke="#ff0000" fill="#ff0000" fill-opacity="0.5" />
</svg>