<?xml version="1.0" encoding="UTF-8"?>
<svg xmlns="http://www.w3.org/2000/svg" xmlns:xlink="http://www.w3.org/1999/xlink"
     width="101" height="101" viewBox="-50.5 -50.5 101 101">
<defs>
</defs>
<path d="M34.02429361441904,-22.262488739257094 L34.02429361441904,-22.262488739257094 L31.715759122023705,-18.95898130552286 L29.947000532624916,-12.749709028978767 L27.710962209933147,-8.46988696515582 L25.79458103460747,-7.034758707759912 L23.055425869789655,-9.686869151811273 L19.345545348737836,-13.355158899767881 L13.480670975887193,-25.137265990254946 L12.63595086699499,-24.39216646830225 L16.041791329392346,-15.718928569080152 L21.088083668141792,-7.455515955732964 L27.300314972020786,5.3473733700690955 L30.33594823674848,9.816408792914109 L32.97605818105305,14.45887609566204 L40.35176259394914,23.558213931100678 L38.71862609073038,24.991205113199225 L38.98378781801322,30.333317990228604 L48.557145393451975,37.71107728321835 L50.000000000000014,39.394846031944326 L17.399491704860033,39.394846031944326 L-14.492247348382723,39.394846031944326 L-47.534719254062075,39.394846031944326 L-47.534719254062075,9.126462252674608 L-47.534719254062075,-20.10342622487295 L-49.999999999999986,-26.724537569783745 L-47.883062527535394,-31.799351644232868 L-49.15503330549656,-35.3147583132229 L-46.179977905929235,-39.2589773601531 L-35.24382385239056,-39.394846031944354 L-27.334261591167635,-37.2214404545066 L-19.173428592094794,-34.792654379031696 L-15.367379682660737,-33.51271066630721 L-9.039253141500666,-36.116736916167476 L-5.656016360133335,-38.47195828429022 L1.59277865817974,-39.149739934375354 L7.437104230093975,-38.11194329188505 L9.676512556139327,-34.035061186109665 L11.583934454256733,-36.72070727328919 L18.17146905843753,-34.77868119439494 L24.5784207999895,-34.31337414599184 L28.622753605081627,-36.38387132834028 L34.02429361441904,-22.262488739257094 Z" stroke-width="4" stroke="#ff0000" fill="#ff0000" fill-opacity="0.5" />
</svg>