<?xml version="1.0" encoding="UTF-8"?>
<svg xmlns="http://www.w3.org/2000/svg" xmlns:xlink="http://www.w3.org/1999/xlink"
     width="101" height="101" viewBox="-50.5 -50.5 101 101">
<defs>
</defs>
<path d="M39.20298897446105,39.72501926225026 L39.20298897446105,39.72501926225026 L34.14515931179418,34.9367945159223 L28.06070017077442,26.26164224907321 L21.500126442042284,21.508338885981235 L17.67366026554751,16.39857106434902 L4.794461764562659,10.46579798246147 L-5.350629184184726,10.288660745716554 L-8.919860900435987,7.194714974185538 L-17.597676662616724,10.674571624866793 L-26.577799144929216,3.9572363986761343 L-31.198963545183318,15.000827903132214 L-48.426747293629774,11.908065907304145 L-50.0,5.98369763290731 L-43.62727667812408,-15.759199010008375 L-42.167237320541425,-25.594540248891796 L-37.50700832209113,-30.13121265835034 L-26.608429341242083,-32.56387172784049 L-19.11971627263957,-41.00962306066096 L-10.529455520885733,-23.879190066582943 L-6.4530203075242465,-10.296799203674075 L1.658565941559607,-3.089440025261764 L21.856457725815893,10.887503279428623 L30.078919366674068,19.322541442137705 L38.09720929317198,27.861189573244413 L42.72495844577353,32.94507709857167 L50.0,37.395807391998595 L45.537402355151386,41.00962306066096 L39.20298897446105,39.72501926225026 Z" stroke-width="4" stroke="#ff0000" fill="#ff0000" fill-opacity="0.5" />
</svg>