<?xml version="1.0" encoding="UTF-8"?>
<svg xmlns="http://www.w3.org/2000/svg" xmlns:xlink="http://www.w3.org/1999/xlink"
     width="101" height="101" viewBox="-50.5 -50.5 101 101">
<defs>
</defs>
<path d="M-16.620762454803568,-38.88501298260089 L-16.620762454803568,-38.88501298260089 L-12.52996244078292,-35.82500181999079 L-8.57687506235152,-37.410213788250154 L-6.950949226301714,-36.00079944780132 L-2.3292511614237648,-35.92018059701091 L3.537522817291794,-33.21749429062152 L5.280669540903959,-30.889860898778856 L8.269229213683088,-28.724476314505196 L11.040940355531806,-24.772602263259643 L13.344981274317092,-22.59137701850459 L10.975218466300511,-19.610434344169693 L8.69524187003379,-16.450391095796228 L9.219871063764385,-14.589349413962971 L9.327587555037859,-12.538826469945889 L13.09274403380061,-12.426189262863295 L14.71583877308354,-12.90417276700613 L16.21174986046736,-11.70276989115107 L14.741655679314924,-9.314544287790428 L17.23140306459484,-5.602841612269172 L19.717847503646727,-2.357461018493808 L22.291179650615703,0.04829716270178664 L44.33052650311018,8.047493670476513 L50.0,8.00624054615901 L30.95197650998568,28.2376624847323 L22.170655816825363,28.53472542405785 L16.16333810575358,33.28665394021263 L11.842140740561,33.41108738382392 L9.998375489712336,35.535879433025684 L5.392565270261871,35.53467958725305 L2.673903489259334,33.256792610028555 L-3.484001606984459,36.075958326255595 L-5.4762578832563475,38.88501298260089 L-9.971459848307132,38.35465418827063 L-11.463650065654477,37.5772484974965 L-13.042121327326004,37.763022371057026 L-15.17255534794182,37.69497493805291 L-23.705090042358627,31.970369201981228 L-28.39671619737869,31.970369201981228 L-30.699550529684736,29.75198918251407 L-30.699550529684736,25.968659758790558 L-34.20094990037237,24.837784895963935 L-38.18461986459269,17.50241317295844 L-41.26310056325344,15.93958035057067 L-42.444207171572565,13.24410660023026 L-45.86046467734936,9.958753616389085 L-50.0,9.475916803503006 L-47.70398052205424,5.636342924010663 L-44.126687535894284,5.470656356081864 L-43.11908671514582,3.412044564159396 L-43.20914255515918,-2.647985472429161 L-41.21503932528225,-9.702202323656373 L-38.02196661462842,-11.59013942477507 L-37.344660416683546,-14.345672870813017 L-34.4538409894279,-19.494898633254337 L-30.38825121804568,-22.834379490995765 L-27.647547326500945,-29.474312515335114 L-26.573820174125935,-35.26309651882949 L-18.725885122182056,-33.8542214349077 L-16.620762454803568,-38.88501298260089 Z" stroke-width="4" stroke="#ff0000" fill="#ff0000" fill-opacity="0.5" />
</svg>