<?xml version="1.0" encoding="UTF-8"?>
<svg xmlns="http://www.w3.org/2000/svg" xmlns:xlink="http://www.w3.org/1999/xlink"
     width="101" height="101" viewBox="-50.5 -50.5 101 101">
<defs>
</defs>
<path d="M23.100020523436864,-37.344136639909685 L23.100020523436864,-37.344136639909685 L21.757064694086246,-30.903181169512226 L35.84548878574939,-24.773600549524044 L27.356117690641412,-17.8372952336412 L38.05535974015542,-7.365779620604481 L31.862267776299838,0.5207764611356805 L40.14390231763968,7.367003115496269 L36.38314579671089,13.361566934507733 L49.999999999999986,19.664193888431388 L46.54016802724508,24.355735647461945 L37.9951693109948,29.66979712706832 L18.29865859883705,41.41268951866874 L1.603702829097325,42.14454184669898 L-14.57355821476091,45.517386092395505 L-29.540019276024065,47.457894987157374 L-34.86572695512878,42.43928452594484 L-43.77534554761472,39.41965313643826 L-41.72739908259965,30.356968893516232 L-46.19504127639405,22.05869298180323 L-41.80869249884485,16.701606798363102 L-33.467631062750684,10.923813157059213 L-12.421973453104611,0.9469574487794179 L-6.280985813070811,-0.9764409159139308 L-7.237933603600023,-4.8669614890724695 L-20.030943381715982,-9.214333215062283 L-23.135667461079784,-12.793966495926348 L-23.37859099200508,-26.96036308912781 L-37.7379870050124,-33.22352543337711 L-50.00000000000002,-37.72562786676127 L-44.48651805220721,-40.156022276438314 L-34.263417898295216,-35.29238170207282 L-22.25097946285633,-35.74779777818862 L-12.374441136510862,-33.524440782341365 L-3.602681900803304,-37.59561543586918 L0.9086933359728527,-44.34033801024231 L15.19203028306243,-47.45789498715751 L26.997201324428598,-43.79935088536425 L23.100020523436864,-37.344136639909685 Z" stroke-width="4" stroke="#ff0000" fill="#ff0000" fill-opacity="0.5" />
</svg>