<?xml version="1.0" encoding="UTF-8"?>
<svg xmlns="http://www.w3.org/2000/svg" xmlns:xlink="http://www.w3.org/1999/xlink"
     width="101" height="101" viewBox="-50.5 -50.5 101 101">
<defs>
</defs>
<path d="M-8.214194242088567,50.0 L-8.214194242088567,50.0 L-24.511460871592433,33.9928571258654 L-34.992486819224546,20.90652175809223 L-44.62282246611538,4.524029094842113 L-44.11389268402535,-0.7447445399594163 L-40.651359072948836,-5.815217779159269 L-36.79872684294955,-17.360807918694302 L-33.602544411026116,-29.11949486050858 L-28.251811687575383,-30.035730229629763 L-5.18028065595819,-29.873461383836712 L-5.317143452986541,-48.957955526727496 L2.219286553111222,-50.0 L11.85701247386244,-47.87575617488306 L21.244785376773105,-49.918453244227145 L23.21903518864625,-49.05383877943125 L22.06596215894321,-42.13614597218181 L26.498810181767425,-33.94163269545966 L38.29847666790629,-35.23402666049225 L42.25682470381414,-32.08210657694726 L35.39076865984676,-13.714706882866537 L42.89359353652357,-4.335957726364803 L44.62282246611535,8.046398549856992 L42.62069260821953,18.590527286524566 L37.75511709064265,26.084344275749196 L23.755020351006284,25.417237258715883 L15.28102467891558,17.80130630227013 L14.018953039250121,24.829631192030554 L3.3182963991445544,26.771925205988026 L-2.120136355310413,30.75978676046711 L3.860006644902873,41.24655365045432 L-8.214194242088567,50.0 Z" stroke-width="4" stroke="#ff0000" fill="#ff0000" fill-opacity="0.5" />
</svg>