<?xml version="1.0" encoding="UTF-8"?>
<svg xmlns="http://www.w3.org/2000/svg" xmlns:xlink="http://www.w3.org/1999/xlink"
     width="101" height="101" viewBox="-50.5 -50.5 101 101">
<defs>
</defs>
<path d="M-6.4344179404891575,-42.5361567101276 L-6.4344179404891575,-42.5361567101276 L-6.238656550075999,-38.25561249479146 L4.9542341015589,-35.6744618998536 L4.836327572140083,-31.74335076954367 L16.098477925837503,-33.82339030727475 L22.325404742268177,-36.857005132063094 L34.83077394754162,-32.483442689008776 L40.06118291096323,-28.95586097906398 L42.64891278992878,-23.31962981447972 L39.560924723908215,-20.363293886427392 L43.58247331900954,-16.41557947874797 L46.32302202243647,-10.490867754397378 L45.459873123934884,-6.672235797995176 L50.0,0.40009578728663986 L45.05691966782811,1.5557348428913254 L42.13606092284094,0.28275414589035347 L39.35830714357394,2.391115618400601 L31.40450656588178,4.536405260857468 L27.291955617966448,7.296138004580635 L19.242567125865254,9.707855421451871 L21.181794478673705,12.999900978452464 L22.354025735412215,17.670816046098363 L28.006284213107655,20.33295607674409 L34.26011520614314,25.094585515074815 L30.354756323921407,30.201361535201706 L26.37557433051354,31.607700110474312 L27.945608593741166,38.82455441965066 L26.913037593408664,40.70682776830015 L23.45872518286312,38.43905711106517 L18.148744541907927,38.099072055122406 L10.22986733549408,40.085229418747886 L0.4616242768048777,39.61301626057863 L-1.1158532168379116,42.5361567101276 L-6.7206057194580024,39.460186359881504 L-10.063878866741575,40.07091892217588 L-21.933328149655,36.68413832091798 L-24.2074011850243,39.090428382278084 L-33.62820488111987,39.01287257964863 L-32.22244227010552,31.121752419991328 L-26.62226425284477,23.53713385564428 L-42.58366268520297,21.497179215044888 L-47.81064909178189,18.596922268528253 L-47.185606032915466,13.740845768069361 L-49.39728663237907,11.239543756558518 L-48.139192396208465,3.7556746324738173 L-49.99999999999999,-7.851057414997121 L-43.346073219677855,-7.855631900356462 L-40.53854651875018,-12.02484887030151 L-37.7785368691336,-22.166283539672598 L-39.848829319416254,-25.911369290782037 L-37.68580662354466,-28.256983732775616 L-28.428133727381496,-28.85913221237404 L-26.373857513974333,-26.41677792745465 L-18.8527833140496,-31.877295688309452 L-21.3849880232663,-36.02933341662665 L-21.893265404994796,-42.31064455052528 L-13.521624910365553,-40.84992165778469 L-6.4344179404891575,-42.5361567101276 Z" stroke-width="4" stroke="#ff0000" fill="#ff0000" fill-opacity="0.5" />
</svg>