<?xml version="1.0" encoding="UTF-8"?>
<svg xmlns="http://www.w3.org/2000/svg" xmlns:xlink="http://www.w3.org/1999/xlink"
     width="101" height="101" viewBox="-50.5 -50.5 101 101">
<defs>
</defs>
<path d="M-6.565913851145349,-17.65802700837883 L-6.565913851145349,-17.65802700837883 L-1.0700304230996265,-18.635625883452597 L4.673952277394494,-18.56199494339763 L6.76172828087797,-19.16582430885051 L12.547224557178973,-19.323104449368074 L25.622380335398915,-19.117713741304613 L35.86174636940371,-17.81964512113174 L32.83919464317723,-17.189345940189998 L26.57661963922804,-17.1173192313768 L17.76567419864148,-16.957469046931127 L18.589954402182407,-16.665335263867387 L24.384503126204706,-16.84579490885757 L29.315353393317395,-16.281351057360258 L32.493040828503595,-16.782591471873975 L33.85423103712731,-16.19544283739396 L32.05706643399858,-15.243086049817919 L36.224760981822264,-15.85189180606153 L44.172990147892115,-16.486758135130295 L49.080628171119095,-16.16984061635219 L50.0,-15.470346685830126 L43.32643077373874,-14.305642064907511 L42.40208255406709,-13.929073335466835 L37.16993146822354,-13.646008369830957 L40.96097543807381,-13.56749925722456 L39.04629271163371,-12.373951213363576 L37.72854770418959,-11.312015610152148 L37.78004680099102,-9.490574732212044 L39.74552472685099,-8.42173111283721 L37.188281909264354,-8.354107855085523 L34.49643099472978,-7.83618670959894 L37.517247532062115,-6.9688050687159215 L37.90211570272285,-5.5778711032936545 L36.151833939148894,-5.426402208600801 L38.272316616316175,-4.018214572476452 L34.635933633935714,-3.900696449165102 L36.53429576294701,-3.2349568535459667 L35.997696782288635,-2.657482715636089 L33.68978096514153,-2.404063288559452 L31.40830222407018,-2.399283334247298 L33.45913179987379,-1.290481261187654 L33.48134549166004,-0.5617182953569664 L30.24210795985166,-1.2390803826255186 L29.399690121455038,-0.8008960777364625 L31.60960050549654,-0.3915879351988822 L33.754277608942445,0.6088957896296321 L34.375098729792626,1.9271318882702089 L31.457247646650064,2.2425597637523973 L30.19515964147069,1.6115239460160002 L28.17122549352619,0.6711661533399492 L28.73116767572266,1.782145397370531 L26.829973587478484,2.642864567688331 L31.143947833019176,2.7123539719865284 L33.40034818365829,2.8016507212083632 L29.012857586008487,4.226895591556197 L24.56340764907278,5.517385037597127 L19.773074942972038,6.08284381090044 L17.967594528916678,6.089800936183532 L16.274312083544434,6.720542099202056 L13.997433230013204,8.448741128642174 L10.476505787918992,9.595995642384132 L9.345457283660007,9.663471572776858 L7.166207359983758,10.065429717074176 L4.813602243959368,10.44790791057886 L3.411094896007345,11.460390630307385 L3.3884719615573755,12.607825210821364 L2.560344876977567,13.68259466396676 L-0.10903043046599266,14.992383994028339 L0.5502103916534132,16.271512863724652 L-0.18565702681931426,17.625107528509904 L-1.02412976593775,19.22331471824871 L-3.330785115680627,19.323104449368095 L-5.747182978124347,17.986485170273607 L-9.019978408357064,17.97805477140115 L-10.608069119448933,17.080372803696942 L-11.700436007133922,15.481789110707512 L-14.537076976089585,13.446134252874321 L-15.366841031324258,12.379631501535902 L-15.590205677177927,10.909173501701236 L-17.85752462208486,9.398462393463912 L-17.268133337807715,8.192129608788575 L-18.36081124991713,7.61511382266206 L-16.742321993764786,5.702149915409547 L-14.278615679396028,5.093213201513554 L-13.632094119264773,4.408582964537484 L-13.289656227977632,3.1296341616132013 L-15.159674210100272,3.709408243293146 L-16.050734631505634,3.952932182761241 L-17.521339958699237,4.186257795049644 L-19.53001754014057,3.65194238845479 L-19.63912163428603,2.539964592324738 L-18.99878782323009,1.6691043888001849 L-17.48045661659446,1.6454665325442026 L-14.139113040190091,2.0808598024667684 L-16.95344209912021,1.041268848694003 L-18.41828528960875,0.4808683147141636 L-20.048347928290866,0.7111131482301561 L-21.414694594477353,0.30530321198198845 L-19.58703322804884,-1.2200424139096702 L-20.582556931793167,-1.829584806947939 L-21.881804170837533,-2.960993444751011 L-23.852062051009646,-4.696984454508177 L-25.936187609932812,-5.33270200831743 L-25.917149641216962,-6.018036142675075 L-30.30987854496227,-6.975844042531758 L-33.785232724025576,-7.095048245617623 L-38.16023323557889,-7.029012849401153 L-42.15462170017409,-6.908777354802734 L-44.05427703600272,-7.429890593066278 L-46.898873682340934,-8.459250480246268 L-42.60041791860817,-8.974159599727933 L-39.305621602774345,-9.060640759423423 L-46.310153556032276,-9.486253129683254 L-50.0,-10.154530029817414 L-49.77472009848016,-10.790525868638008 L-43.57726378718073,-11.578187038630055 L-37.58144952114517,-12.364718698870247 L-36.94826927185089,-12.96021588368995 L-41.36658402693145,-13.548002936725348 L-39.93965307680913,-14.200515809453343 L-34.272395190907616,-15.343350502427212 L-31.890913912531747,-15.518735538387366 L-32.573072323818984,-16.254259193022573 L-28.695629042805972,-16.68512623908447 L-23.661862430623138,-16.942310698667264 L-18.63141886886965,-16.956846998082277 L-16.845254708541475,-16.447274402935403 L-12.502911761552312,-17.34842674842788 L-8.595872051099683,-16.736166984102542 L-6.2975325122834205,-16.60706729340816 L-2.89780637747398,-16.074650772772923 L-6.790031503500254,-16.957125283093596 L-6.565913851145349,-17.65802700837883 Z" stroke-width="4" stroke="#ff0000" fill="#ff0000" fill-opacity="0.5" />
</svg>