<?xml version="1.0" encoding="UTF-8"?>
<svg xmlns="http://www.w3.org/2000/svg" xmlns:xlink="http://www.w3.org/1999/xlink"
     width="101" height="101" viewBox="-50.5 -50.5 101 101">
<defs>
</defs>
<path d="M3.221875284648169,50.00000000000002 L3.221875284648169,50.00000000000002 L-9.341065644659203,45.72885620623768 L-24.61500866310087,45.286616904848906 L-35.81330307532724,40.42896306257515 L-48.98677469179632,30.325823680187145 L-48.38638115489084,23.193726328285045 L-45.545677411392894,17.452230515858567 L-49.02347901120166,12.876751841582312 L-37.238699036334204,-7.0821216908570594 L-5.811402971801009,-7.155505843797778 L-5.184417779875953,-15.494119963134033 L-9.15063903224006,-16.979628735441878 L-11.867958475881819,-22.285839233611828 L-20.924008591602156,-27.94192833083736 L-30.038898253373723,-36.11286321115533 L-18.979806013141978,-36.17361265508121 L-18.96146609637437,-49.957614958711915 L3.8981995049938347,-49.99999999999997 L26.544054487917297,-49.73048402688744 L26.354876654877504,-30.319506325679683 L24.437241245566778,-2.6837982873602817 L31.746493868248574,-2.6920010538718326 L39.72954866664652,1.7373214612776018 L41.840769365629775,-1.911293568933096 L49.02347901120201,1.214744019815956 L37.86632086088417,10.555491348162661 L26.256810744791768,17.407323429941552 L24.53278511102404,22.111867125956334 L26.483941676616244,26.917635409310712 L21.395998225264275,33.13425504678275 L15.665888342473028,34.641286898982095 L16.966675710114927,37.52498783052255 L12.370310588571686,40.232831242403286 L3.977925498311966,46.40958788321612 L3.221875284648169,50.00000000000002 Z" stroke-width="4" stroke="#ff0000" fill="#ff0000" fill-opacity="0.5" />
</svg>