<?xml version="1.0" encoding="UTF-8"?>
<svg xmlns="http://www.w3.org/2000/svg" xmlns:xlink="http://www.w3.org/1999/xlink"
     width="101" height="101" viewBox="-50.5 -50.5 101 101">
<defs>
</defs>
<path d="M41.68018025239334,30.987964036665986 L41.68018025239334,30.987964036665986 L37.804901776613455,30.636768380634656 L35.01050462914816,36.1536957481772 L31.136664862114834,36.08677523847969 L28.470778660688218,33.16847101296469 L29.376041608005025,27.66535524938921 L23.647761074597582,19.272599819325595 L20.06845924295693,20.814772277754102 L17.142714837923982,21.120299207572945 L13.369420259293666,21.905560143437903 L13.5223618500479,16.881794730242806 L11.32380935547082,13.296847679520372 L11.767411218996005,9.31324128611793 L8.79740939252098,3.553802431856265 L4.983748757058407,-1.3463984529907302 L-5.975046487420007,-1.361621361728226 L-9.168445527266885,1.2199976131136847 L-12.944590119414197,1.5315534176800418 L-15.284752660617793,4.486332335417547 L-16.863756062958434,8.288305175062769 L-24.18872926529528,14.312562352609447 L-30.198476037483715,6.2051645259365635 L-35.52705587711838,0.8418912525275108 L-39.03518958276213,-0.9332424069405365 L-42.45552094890103,-3.6564714284089606 L-44.011148759606975,-9.710475622039402 L-46.01605105689599,-12.72862623456623 L-50.00000000000001,-14.973559958735077 L-43.907767259675005,-21.65207336428064 L-39.74928239263019,-21.397874081744117 L-36.175995733749,-23.697684268103508 L-33.15325495522122,-23.719634852979695 L-30.993287259028282,-25.535833370671227 L-32.159477165020306,-30.07632966490006 L-30.658725816504884,-31.508762900935558 L-30.40841789857816,-36.15369574817718 L-23.795043744281983,-36.01244195324031 L-13.946506890524265,-32.67211649539866 L-10.925876218158121,-32.978355928596734 L-9.897761245872442,-34.50212661705723 L-2.4265604269320256,-33.4187789308914 L-0.4485688341978553,-34.191639567559754 L0.34304982412814,-29.174601830503374 L2.5161166209088854,-29.190180990930497 L6.0925821410205945,-31.016299747979314 L8.363357814675403,-30.559228830188644 L12.167111912768764,-27.080129637249446 L18.031699823422464,-25.98546410894395 L21.789072691924083,-28.950505815740318 L26.21592469716208,-30.783338546939778 L29.508457620641533,-32.70220606118403 L32.250800915457226,-32.34285772225547 L35.29550598084927,-29.33250354093624 L36.92831709031157,-25.553536339248062 L42.543309586417806,-19.813568010023268 L39.73440203359424,-16.28667628272187 L39.19980526734564,-11.828665956629628 L42.118465744550264,-13.176475714390817 L43.830583960918645,-11.578001787013278 L43.10410455384203,-7.497755271805633 L47.28914387375206,-3.5477872590967787 L44.557063367995255,-2.4856776544279087 L43.45708146832147,2.165982868952425 L46.61541712071628,7.829124151110461 L49.99999999999999,18.797839634946165 L44.9110953355555,20.445517401456335 L43.60187037617848,22.350217060043896 L44.660444867927204,24.996276484744012 L43.85324704917409,30.972384876238863 L41.68018025239334,30.987964036665986 Z" stroke-width="4" stroke="#ff0000" fill="#ff0000" fill-opacity="0.5" />
</svg>