<?xml version="1.0" encoding="UTF-8"?>
<svg xmlns="http://www.w3.org/2000/svg" xmlns:xlink="http://www.w3.org/1999/xlink"
     width="101" height="101" viewBox="-50.5 -50.5 101 101">
<defs>
</defs>
<path d="M-11.036009988523617,-50.0 L-11.036009988523617,-50.0 L-1.7867368216722221,-44.81848505137453 L6.928950166834641,-35.64091265930004 L7.324586308363825,-28.387667917509454 L12.632035427226104,-28.0539141931895 L20.180816957782618,-21.182106303934937 L25.74196567462758,-16.278308599852913 L23.490786732173152,-3.6062461094582012 L14.939617100958872,0.06952439566037334 L15.701406138121628,3.3914959500331583 L13.102654520452168,10.659292145722464 L19.344777471926548,20.889105102489143 L23.854404040486617,20.905487813896908 L25.704467155480998,28.858287010735538 L34.3073205082388,41.105230113705595 L30.879798088364385,41.609699297656405 L23.08823407189835,40.41477559981784 L18.50800548306671,44.16114812520787 L12.134116510519139,46.63179623682217 L7.6823717658408315,47.24108378327096 L6.125295765695975,50.0 L-0.7890959039417513,49.30116396135934 L-9.454916341818022,42.69178935974589 L-10.476222741203735,36.173414169735324 L-14.08209555586197,29.05118885941817 L-11.840749057571445,17.059748438747327 L-7.933507603310733,12.096984242874331 L-11.164493832676847,5.550942977881085 L-16.004591948636833,3.4173307675067877 L-14.172728715963022,-2.768009114591218 L-17.451017735447245,-6.013913049357886 L-24.774512332603614,-5.391158716919563 L-34.3073205082387,-16.079941151835623 L-30.491430630486416,-19.956980943793493 L-30.77204971385193,-26.46188934781454 L-22.104045853561047,-28.722886647836642 L-18.60590732681898,-31.36168645856913 L-23.427819647054687,-36.589067364497865 L-22.19686243607671,-41.7250826073219 L-11.036009988523617,-50.0 Z" stroke-width="4" stroke="#ff0000" fill="#ff0000" fill-opacity="0.5" />
</svg>