<?xml version="1.0" encoding="UTF-8"?>
<svg xmlns="http://www.w3.org/2000/svg" xmlns:xlink="http://www.w3.org/1999/xlink"
     width="101" height="101" viewBox="-50.5 -50.5 101 101">
<defs>
</defs>
<path d="M-17.182776577974042,24.33667353785558 L-17.182776577974042,24.33667353785558 L-19.966405671059213,19.29568729640018 L-24.860004830725682,17.894728531106576 L-23.738399934129433,11.440279711580892 L-25.929983160135823,9.695836697627055 L-29.246522820183532,8.546742748715102 L-36.31464136857462,10.466464725793514 L-36.91458268444302,8.296521474734504 L-41.77821136503148,5.712743914985698 L-45.24961461347676,2.4978138469091995 L-50.00000000000011,1.1426325714332837 L-46.651830205312386,-2.948273370085318 L-47.93580742323657,-6.110755099775108 L-46.801295884843846,-9.206625022739706 L-39.161546844100585,-13.715538581593922 L-31.81947233587823,-19.862306595745157 L-30.145798324134855,-19.232813742979335 L-26.61153763542931,-22.065555750166777 L-22.001030597764522,-22.296634589123308 L-20.50638991561062,-20.983089721140832 L-18.006287999868626,-21.78328539936553 L-10.52058077632264,-20.329443240343767 L-3.0723527647847986,-20.75035122662246 L2.11144442079372,-22.53269239476539 L4.001195918794129,-24.33667353785558 L9.135445134929075,-23.50275301408761 L12.991533984186686,-22.408621056646343 L17.2060923216437,-22.785814037689036 L20.40813186108451,-24.183872434039596 L27.767689148769147,-21.948993144978044 L30.325234482744094,-21.593440138882585 L35.242987270441716,-18.581664802105436 L39.90094756664679,-14.969545320440043 L45.75962837894993,-12.501508594679427 L49.99999999999988,-8.069197002243131 L44.47689187440701,-8.398517782564815 L42.24367224090718,-6.20401807445474 L36.65021405528466,-4.099026974559083 L32.57969126217127,-4.08819893050506 L29.018779405511296,-2.039410535461266 L25.79218340901956,-2.7675803849337446 L23.045614585762014,-5.22938131746682 L21.36236935650626,-4.760585017306338 L19.295276410799897,-0.9103130190955466 L17.748993048298907,-1.0497885389343158 L17.481288994856225,2.266735007952669 L11.85702244579397,6.703622738054637 L8.88814034305225,8.62002540400934 L7.234446650694208,10.618427945248147 L2.481563724247574,7.361442527497519 L-0.9969132017865685,11.660933335503252 L-4.357570696090245,11.546030385876385 L-8.134157209987032,11.926977733384263 L-7.79151084568813,19.850656780490617 L-10.155875494895641,19.99388666679454 L-12.173436584319413,23.674293723907812 L-17.182776577974042,24.33667353785558 Z" stroke-width="4" stroke="#ff0000" fill="#ff0000" fill-opacity="0.5" />
</svg>