<?xml version="1.0" encoding="UTF-8"?>
<svg xmlns="http://www.w3.org/2000/svg" xmlns:xlink="http://www.w3.org/1999/xlink"
     width="101" height="101" viewBox="-50.5 -50.5 101 101">
<defs>
</defs>
<path d="M-50.00000000000003,5.213112376277838 L-50.00000000000003,5.213112376277838 L-44.89922994459479,-4.678743062825125 L-47.8752143630998,-8.008848177377768 L-39.222020785057964,-8.03902533913582 L-38.055605876433766,-14.317703438091401 L-30.237723511128163,-10.383747785305152 L-24.57320596850174,-8.708377527356477 L-11.676003302278843,-10.590992977663852 L-10.438924052043046,-13.676530941654908 L-4.333733902888839,-14.131508506225854 L3.14908055688845,-16.51673349740245 L4.81016122194762,-15.534531415823622 L12.025376165850213,-17.453270342349462 L15.628627616743286,-21.06842978731702 L20.664280151002544,-22.00576562025361 L37.11946852548149,-17.33655663526492 L40.397962088941796,-18.90830429703419 L48.92887977427975,-14.728613742009472 L49.99999999999997,-10.610045768183117 L40.615532664549654,-7.387127965455384 L33.3439276067713,3.033534601480899 L24.054724223917578,13.453413545581428 L11.735558637805372,16.351573460876452 L2.145444085975396,15.67149639541185 L-9.62744419260961,19.71025776120799 L-15.370569861281883,22.00576562025361 L-28.06212531112518,19.051230956236545 L-39.54836128331606,12.46168506874297 L-44.42997815228806,10.569942717170697 L-47.415473600899034,5.383035610433761 L-50.00000000000003,5.213112376277838 Z" stroke-width="4" stroke="#ff0000" fill="#ff0000" fill-opacity="0.5" />
</svg>