<?xml version="1.0" encoding="UTF-8"?>
<svg xmlns="http://www.w3.org/2000/svg" xmlns:xlink="http://www.w3.org/1999/xlink"
     width="101" height="101" viewBox="-50.5 -50.5 101 101">
<defs>
</defs>
<path d="M-16.944385934729972,-47.09600034435189 L-16.944385934729972,-47.09600034435189 L-13.266766386381194,-43.085607650415454 L-13.612976236570294,-40.294461600450745 L-12.251834980980552,-38.5432658466547 L-12.363937540914014,-36.79613497828433 L-14.819576570328893,-37.25594605828606 L-13.85998988021452,-33.48443723714252 L-10.498339898054855,-31.317897786334548 L-5.74266688510294,-28.92538423774295 L-7.913804994170246,-27.373282329286084 L-9.242406636630303,-24.172715407790793 L-5.927615750349784,-22.878059664579865 L-2.7017664732903324,-21.199357789162175 L1.7609234215276568,-19.279920944137366 L6.4511750461473785,-18.83646178959796 L8.42463243923646,-17.09587306006079 L11.068224516897956,-16.770090285621823 L15.184704561526848,-15.972554974838076 L18.034113969259327,-16.029754208559268 L18.426115369660245,-17.38399747675999 L17.975587146695407,-19.558143190447804 L18.240105801987518,-21.031913935563203 L20.326900960093102,-21.75155947207949 L20.614050214884642,-19.056865488835307 L20.687255790374554,-18.371343775846054 L23.797115546352767,-17.072623147209466 L25.94844931464254,-17.607494321136066 L28.837111555374328,-17.377985689139724 L31.629054842968817,-17.47947780319356 L31.869348423501933,-19.581393103299124 L30.476560597792723,-20.67332808319847 L33.23596769387825,-21.101489171459995 L36.35042610811581,-23.646329853271308 L40.294329868052706,-25.82524872787561 L43.16442639471077,-24.984484660805823 L45.6036211149036,-26.42527782533828 L47.20806013402623,-24.297638780594575 L46.05238035995176,-22.860732577209884 L49.741848980883915,-22.34937820255145 L50.0,-21.05242313021086 L48.80047557790832,-20.424634423776464 L49.08108269386663,-18.319362513736074 L46.635879607674205,-18.938042865790745 L42.2062562555781,-16.57364477472663 L42.310222201418746,-14.615570988433678 L40.42181603478228,-11.745474461775624 L40.24871282049805,-10.078265810385536 L38.72295739165196,-7.257149784458409 L36.04877602467616,-8.036646310760611 L35.91580842153928,-4.495617861900367 L35.142409223375566,-3.330395187613612 L35.50453303157375,-1.8774005235627038 L33.81628141270232,-1.0657202326866264 L32.014161677601464,-6.493300329748422 L31.06942824307029,-6.482511959590918 L30.5101540701068,-4.295815741070348 L28.636775661710644,-6.069115164773603 L29.69325922924024,-8.016400580909064 L31.22396574328071,-8.214084718508035 L32.801705855857534,-11.109730487147083 L30.82877881398137,-11.693934588739646 L27.65561907452273,-11.643188531712735 L24.3998853620191,-12.112460393029236 L24.09805735430157,-14.491622777537561 L22.464620099503442,-14.660394219979262 L19.754542509463192,-16.138941547631884 L18.545820770852824,-13.817508748057707 L21.01542685608213,-12.006191696438176 L18.87629458731077,-10.731251331865852 L18.116862444961527,-9.484337462682086 L20.222931592631678,-8.567541561400493 L19.640674393233724,-6.5057652940629715 L20.826409683788857,-3.9327201925852227 L21.358981528585772,-1.1152276630097626 L20.869022548343743,0.13407449744261585 L18.54140003687136,0.09101682219302976 L14.323249953910741,0.8013795016724304 L14.519873389083852,3.375307381298172 L12.693350654946121,5.399777717830996 L7.769347588626472,7.702730343849623 L3.939664371854082,11.728503222961438 L1.3673275458671665,13.886823940779143 L-2.042060888698928,16.12656554545631 L-2.04736440082835,17.700415275264596 L-3.753121031347666,18.543656595741947 L-6.835043254076262,19.76944195692618 L-8.433292561300743,19.95005905033054 L-9.459186839515985,22.559968693538984 L-8.746788295703048,27.01027916456066 L-8.565373964668893,29.84854777520061 L-10.015275483581052,33.099244861991664 L-10.030837014655047,38.91237318276012 L-11.80148126067287,39.0780514800631 L-13.358890102879915,41.68778319899365 L-12.317434293590676,42.81552201819781 L-15.437196219957656,43.78554122991388 L-16.58951596247659,46.11254442803434 L-17.962499447408266,47.09600034435191 L-21.20249712618074,43.901092783541834 L-22.78642695065571,39.10961250966436 L-24.098940132449574,35.658493988691404 L-25.29775970067113,34.04008791375435 L-27.115615469503137,30.752967674306593 L-27.96451615066574,26.47372797485629 L-28.555970666582336,24.33645022451991 L-31.668482178625283,19.637093667141176 L-33.08602543030641,13.006273267876363 L-34.10909002817908,8.627748399742204 L-34.09688852866062,4.483245281345514 L-34.760484496020574,1.2788769392206645 L-39.73983227762644,3.32694961553986 L-42.15143846988402,2.916731506379478 L-46.62120085474821,-1.230159903285825 L-44.97609245164464,-2.466997099423666 L-45.986603123063766,-3.809658181457844 L-50.0,-6.71387853164293 L-47.721357989258536,-8.996677811569695 L-40.1915991272951,-8.98774738146786 L-40.870931128386154,-11.925475663448829 L-42.793286615892555,-13.660671918717602 L-43.183166611441706,-16.29409836119421 L-45.422733713461696,-17.830727700716018 L-41.651755243531106,-21.41737319713091 L-37.678671902020106,-21.157275275820254 L-34.09936236044748,-24.744543507207762 L-31.954396228333778,-28.216876076698487 L-28.632885278942148,-31.650137159088505 L-28.68575274082084,-34.08915053338275 L-25.76809226441355,-36.068441789814194 L-28.529624186971567,-37.75802099752833 L-29.71783330931356,-40.072997198787526 L-30.930270928035217,-43.07111024338806 L-29.252804257700607,-44.54647204214231 L-24.06269148245004,-43.71171976269278 L-20.24874429940876,-44.2202444570086 L-16.944385934729972,-47.09600034435189 Z" stroke-width="4" stroke="#ff0000" fill="#ff0000" fill-opacity="0.5" />
</svg>