<?xml version="1.0" encoding="UTF-8"?>
<svg xmlns="http://www.w3.org/2000/svg" xmlns:xlink="http://www.w3.org/1999/xlink"
     width="101" height="101" viewBox="-50.5 -50.5 101 101">
<defs>
</defs>
<path d="M1.0864011992873335,-25.00752964728659 L1.0864011992873335,-25.00752964728659 L5.661230066088533,-26.014969121027107 L9.364353553813883,-28.991404201514563 L12.846327981699948,-28.840472844668735 L15.13185772551181,-29.810239351933358 L18.83390871032198,-29.3303984238997 L24.590646202269777,-26.691208240654245 L28.748458862771017,-26.122047603822832 L34.69864256013316,-21.511300302013698 L38.579608897754916,-21.32498676161753 L39.036443076361095,-16.943734258351487 L36.914220123517964,-10.456809708879502 L35.483714694024016,-6.668396207775458 L37.74987170314036,-5.899869774197009 L35.52353266633024,-3.049078930852023 L37.22900493543975,1.107385291517997 L37.63660810644558,4.41259457874767 L41.57971713724814,5.290219549156229 L42.00615679149194,8.641301764470354 L37.28415553437275,13.361413125675945 L39.861603911449365,16.099747352674942 L41.95745682902432,19.244065583657395 L46.93450552695632,21.533229342201178 L47.07817926698798,26.118554159861358 L49.56925992144594,26.961333198177147 L49.999999999999986,29.35892387764784 L42.490162779390246,32.048287413288016 L40.52829463133674,38.096672809609345 L30.734005376155146,36.52477921668449 L25.05716935138616,35.32833973893511 L19.181779716543698,34.651829890416764 L16.961360271066233,28.267813557551012 L14.469472636259535,27.345258003852372 L10.468781652827962,28.275482474026834 L5.217578301953996,30.795213534028846 L-1.144514197049113,29.06821831806866 L-6.4002939074493685,25.067261812070736 L-11.413125675943672,23.584287040931663 L-14.889987492845894,18.644364645368334 L-18.731937632185357,11.703021652011646 L-21.53376819682118,12.54674824144666 L-24.842476134337158,10.821502350629636 L-26.786319985826328,12.853593408001418 L-29.66751576618337,10.11673777725438 L-29.71890219226368,7.3434326663666765 L-31.38186481912945,7.344911262618636 L-30.528454465509085,3.57385044217578 L-33.207332462939995,-0.38284709643524345 L-39.58663707183384,-3.2366003386089663 L-43.19290729873119,-8.185269359888096 L-41.98624259901405,-12.247972878379663 L-39.36575353456092,-14.044784910321331 L-39.75856033039756,-17.08592419580633 L-43.17246206112053,-18.6486702760034 L-46.54588982260858,-24.859315992002475 L-49.39330176113834,-29.030279829026377 L-48.37469992696051,-30.642663010160614 L-50.00000000000002,-36.61356267402468 L-46.434890977215225,-38.096672809609345 L-45.60865763921181,-36.132649243075875 L-42.97928658459733,-33.72927433671812 L-39.408263176804695,-33.03715592635694 L-37.52306857453486,-33.19024270168276 L-31.382942528369412,-37.03125570255267 L-29.430487415610074,-37.41585212413106 L-27.892362045537997,-35.88795197602674 L-29.687424752336444,-33.31212276597253 L-26.440599191759755,-30.585898450530056 L-25.14488030581122,-30.84552225086916 L-23.49779176335464,-27.00652930403358 L-18.56136801807764,-25.92201539749743 L-14.945143298103718,-23.309726294652883 L-7.543462269529706,-22.412197544416085 L0.5875936298949357,-23.78983795157776 L1.0864011992873335,-25.00752964728659 Z" stroke-width="4" stroke="#ff0000" fill="#ff0000" fill-opacity="0.5" />
</svg>