<?xml version="1.0" encoding="UTF-8"?>
<svg xmlns="http://www.w3.org/2000/svg" xmlns:xlink="http://www.w3.org/1999/xlink"
     width="101" height="101" viewBox="-50.5 -50.5 101 101">
<defs>
</defs>
<path d="M17.80409037576096,-27.98184362542358 L17.80409037576096,-27.98184362542358 L24.51181151496124,-24.911320293423515 L25.28360831987306,-18.93601230815816 L20.134804611058353,-15.405590227944343 L17.763919051764475,-7.423086798497898 L24.849610715626522,2.3001842336504024 L37.38383101651761,7.9073113446396945 L42.64735878915225,15.681531522776565 L40.97055637334884,23.09100794526799 L44.237987730714046,23.088102761663446 L44.338953090491366,28.537163333718677 L50.00000000000004,33.914607038114205 L43.9292710546533,33.41294116082545 L37.0560874337511,32.561323413427104 L29.548550835086907,42.38212268672199 L10.52968453184096,41.56513186362416 L-18.31263049031109,20.992360594662465 L-33.55448191062875,13.831870682503354 L-45.8762043980797,11.05949693267853 L-49.999999999999964,-1.3967539687979178 L-27.35370508090016,-12.042471942984758 L-23.488931148171456,-24.409398678141468 L-24.45314521928507,-31.882042384992047 L-18.853945986089887,-34.40913271062836 L-13.611040925239603,-40.79254738569275 L-9.21710416617649,-42.38212268672196 L2.6811878109134994,-41.06214637828967 L6.273723534953813,-38.456544488692785 L11.17619017904735,-40.18462748692411 L17.80409037576096,-27.98184362542358 Z" stroke-width="4" stroke="#ff0000" fill="#ff0000" fill-opacity="0.5" />
</svg>