<?xml version="1.0" encoding="UTF-8"?>
<svg xmlns="http://www.w3.org/2000/svg" xmlns:xlink="http://www.w3.org/1999/xlink"
     width="101" height="101" viewBox="-50.5 -50.5 101 101">
<defs>
</defs>
<path d="M44.07549387926134,39.39198059805946 L44.07549387926134,39.39198059805946 L36.72056831054098,39.556551784231345 L25.440878609674172,36.39579887590444 L15.07682225002437,36.5825014917295 L-4.073233854523917,39.40450934749789 L-15.296940253061335,44.07026413675381 L-31.304187851704228,50.00000000000001 L-34.427774831051835,49.575186480331574 L-33.186361672179046,36.260876369048795 L-31.640023001167364,34.23710343072726 L-32.13208761459563,27.867535714614814 L-38.979089598017914,21.096546866495103 L-44.114341085584634,20.015954352026828 L-48.827284803370596,15.577850981599227 L-45.31231585769477,8.396258640593512 L-46.92883169168995,0.5814390537771075 L-46.182797202548514,-4.1202368725784115 L-43.61893008359669,-4.138617760464209 L-42.666567298864685,-11.189458455717663 L-43.91551387352883,-14.311380323849594 L-42.37084031373284,-16.558617653767776 L-36.36675642639974,-18.502610748891048 L-40.36001644418573,-31.443919781731417 L-44.08634135135578,-38.125509940309804 L-42.78854073694589,-43.61371650721747 L-39.565127915298554,-44.866833942985 L-37.45780842588307,-46.33547820135012 L-32.98252296034789,-43.90819870046961 L-20.498198042508196,-43.774957470957965 L-17.522886791998353,-48.49250853531161 L-14.734294323441878,-48.17713970428596 L-10.066454103634262,-50.00000000000001 L-7.564406259330887,-43.0857469228179 L-3.7891949801584963,-45.12581531847354 L2.880690901525166,-47.52134454335781 L10.150420974064192,-43.99675675133892 L12.975759052263964,-38.65014930227799 L20.244648486131002,-35.23667131011759 L25.899527835890524,-39.30259807464646 L33.474167254440154,-39.91661996002763 L44.538313966581065,-35.747941283975365 L48.82728480337058,-12.746240445616099 L42.01495916516821,0.83206254093061 L37.79907539445758,19.087388108163683 L44.809824091508055,33.013230521068266 L44.07549387926134,39.39198059805946 Z" stroke-width="4" stroke="#ff0000" fill="#ff0000" fill-opacity="0.5" />
</svg>