<?xml version="1.0" encoding="UTF-8"?>
<svg xmlns="http://www.w3.org/2000/svg" xmlns:xlink="http://www.w3.org/1999/xlink"
     width="101" height="101" viewBox="-50.5 -50.5 101 101">
<defs>
</defs>
<path d="M9.90158490620668,14.079572843856637 L9.90158490620668,14.079572843856637 L8.499529167503395,14.531590625449635 L5.274231196117992,16.236173483116776 L4.204272050508525,17.985993332342787 L3.293157126786139,18.00153613564826 L2.6230265701728244,16.843245155394285 L-0.4870233242799121,16.763885401512464 L-0.9844077023051291,14.760634226583146 L-2.175933773768179,14.743511711047436 L-1.9934598935518497,12.290766381493542 L-4.921033462413259,10.50461315097225 L-9.1149420138015,10.69536707083497 L-11.982112375543853,11.051408775629108 L-14.31739656381777,8.847294500713604 L-16.318564279273154,7.922404779788602 L-20.10885391046269,6.171572545325262 L-20.565801567993987,5.95933845173137 L-26.860710267963206,7.404423008396143 L-26.764670611415145,16.42104872155307 L-28.019001248217197,16.540341448685123 L-29.730533861547364,14.622893590681981 L-31.383428828486387,13.937851137505286 L-34.15923509062216,14.446672534262387 L-35.23968244947537,15.260292803329929 L-35.376919338132836,14.664024797667214 L-34.77591219577945,13.644929451421206 L-35.242210967193714,12.792953475958674 L-38.076398111348865,11.95987046750971 L-39.17959234816739,9.763779467868797 L-40.52983792739407,9.145143617361017 L-40.61172375361926,8.348391544832369 L-38.232716260892545,8.580658150175557 L-38.13882364356761,6.79273691355139 L-36.05905424047093,6.39562513614624 L-33.92305343995298,6.760827215575734 L-33.48291039921136,4.375121840807848 L-33.918502597134925,2.8629997747320495 L-36.36562356425921,2.9812801166267735 L-38.444383027493544,2.3844423385962017 L-41.27578978030847,3.459710393264221 L-43.55713633288243,3.972407709347813 L-44.79918874196314,3.57698079529658 L-44.551000300194225,2.318605508295141 L-46.10988038105983,0.6847893568673594 L-47.9244024066011,0.7530299907633317 L-49.99999999999999,-0.9056800778529158 L-48.588465987915335,-2.7589979772836513 L-49.30270132747668,-3.257773773666469 L-47.35157576539501,-5.944487689542243 L-44.836847516491844,-4.526321820540593 L-44.532298072428276,-6.312345446188504 L-39.48439366585279,-8.9720184056527 L-35.664532115158366,-9.035329163610358 L-30.274549094864017,-7.34212219030085 L-27.37907107247592,-6.3529117715558066 L-24.784479322447236,-7.384454076396064 L-20.90775302221447,-7.433611004030869 L-17.78014044473153,-6.166390795765128 L-17.06969788174773,-6.892060708683364 L-13.634882628359438,-6.7866063585031275 L-13.022123013903121,-7.9447090448844655 L-16.984777345185503,-9.626542579211323 L-14.6378653989321,-10.817753197303318 L-15.09582544170074,-11.483966263215663 L-12.748282588705228,-12.119788209008355 L-14.513647686611694,-13.794862726919805 L-13.392382128769329,-14.629400733475553 L-4.241928379662261,-15.480300743951538 L-3.0477490763574084,-16.08440373101619 L3.071126861064854,-16.98705276659453 L5.269682798674932,-18.001536135648276 L9.664266156176721,-17.4745187037439 L10.434226700540664,-14.940012262088253 L12.987244630714626,-15.535143168390187 L16.12800109865807,-14.701177379577274 L15.925433572318209,-13.366474603656071 L18.27095410021401,-13.505985691035093 L24.399687344137902,-15.813595570780357 L23.504873289961502,-15.04691916500031 L26.62452861729403,-13.157651808144493 L32.089071120405286,-6.94722103186803 L33.39217965172189,-8.227582685219314 L36.76077904168886,-6.818704350351421 L40.27482688946054,-7.44713392761163 L41.6249453091888,-7.007120491743392 L42.80181135771033,-5.594070347177713 L44.511575964937634,-5.119430401742833 L45.55259654315925,-4.081505668232459 L48.702452251363816,-4.408735965137179 L50.00000000000001,-2.9129147686073815 L48.13859524554548,-1.284786559358407 L46.107606182338294,-1.0563127305927509 L45.99084197292461,1.395865271968232 L44.63073908719629,2.501206548009888 L39.77958955065846,1.6964947799558656 L38.015109678490916,6.074647663038273 L36.76343227353063,6.619044374850145 L31.91923004728083,7.59599612887361 L34.12031205723431,11.843991483834934 L32.44264788723026,12.480507916118935 L32.63788662478686,13.874540379547627 L31.130691989274407,13.515842997536723 L29.90441469412126,12.636953225161031 L26.27600399515583,12.381181675611996 L22.221479371648194,12.31433490544859 L21.332857006894308,12.58362448782844 L17.85040095835225,11.555493481070496 L16.462499049971818,12.06184993985845 L16.082130754982124,13.505545523540585 L12.059195485329182,12.663111401208644 L10.44926575660243,13.008158700140386 L9.90158490620668,14.079572843856637 Z" stroke-width="4" stroke="#ff0000" fill="#ff0000" fill-opacity="0.5" />
</svg>