<?xml version="1.0" encoding="UTF-8"?>
<svg xmlns="http://www.w3.org/2000/svg" xmlns:xlink="http://www.w3.org/1999/xlink"
     width="101" height="101" viewBox="-50.5 -50.5 101 101">
<defs>
</defs>
<path d="M30.62697085370685,12.50057695499358 L30.62697085370685,12.50057695499358 L36.44198975327934,20.602105321047212 L29.56409699914666,24.523435175301017 L27.139216539311047,28.620944988446166 L23.458390987913898,29.340788410226292 L22.065351569366705,36.26022192389693 L18.91169102316958,40.2226015121622 L16.995021983212826,46.75687460288309 L13.040597008476086,50.0 L-1.054978164094806,40.182926649624804 L-1.7248351872820187,34.48575387640101 L-37.334693801391914,14.479704441915114 L-38.993466414344965,13.401215975613706 L-39.093066032130714,2.9933014297681275 L-36.28016738078142,-0.9858319494597251 L-31.44749414943081,-7.486420689065942 L-27.873908573011054,-14.64459081369804 L-32.194147564955294,-25.91755485000643 L-33.34255806622361,-30.846076264120665 L-37.99875672336695,-37.66430941678934 L-31.95721792793116,-43.529491484144295 L-25.300767865718242,-50.0 L-20.199592055992596,-48.35243258956059 L-20.199592055992596,-42.840513926957 L-16.84460122343918,-39.60856427082217 L-10.009388408065778,-39.60856427082217 L2.4216298708504675,-31.268407319422902 L5.525451326112696,-31.16926926563204 L7.825120276702751,-31.439922535812943 L9.999086692520846,-30.30732305649641 L16.548129831077446,-29.534645288069942 L19.450640641004387,-33.62714664084527 L28.422069829722165,-37.73437875941418 L32.3828781363028,-34.41573363632882 L39.09306603213078,-34.41398558545464 L30.509615752884592,-23.2736770053728 L30.62697085370685,12.50057695499358 Z" stroke-width="4" stroke="#ff0000" fill="#ff0000" fill-opacity="0.5" />
</svg>