<?xml version="1.0" encoding="UTF-8"?>
<svg xmlns="http://www.w3.org/2000/svg" xmlns:xlink="http://www.w3.org/1999/xlink"
     width="101" height="101" viewBox="-50.5 -50.5 101 101">
<defs>
</defs>
<path d="M-36.1286362899918,-9.052743637554963 L-36.1286362899918,-9.052743637554963 L-34.053936307972265,-13.111426542201633 L-27.955272867706714,-14.418519211905698 L-12.715770289547045,-11.227248132787683 L-11.274876210074147,-16.696190856168776 L-6.017288579830975,-18.614347635219445 L7.174794904689725,-14.719627964642873 L10.541034207825582,-15.73973865742648 L25.900202156477906,-15.486512727113466 L39.64518448781831,-14.517610438733207 L44.2905130224326,-11.188239704614231 L50.00000000000007,-9.829438403691022 L48.69792812537314,-7.735359264288694 L34.10085573060308,-2.717361751898085 L30.79876588486467,0.9595554576922092 L18.91640589256074,2.0603323562544804 L15.413743620602874,7.975421818578269 L5.608001146445766,6.732951042708859 L-0.792734446350368,8.545319113675863 L-9.6357996769461,12.92185910592973 L-8.359582117928776,15.089184420009689 L-10.996277664048133,17.208395325176546 L-28.510561687090853,18.61434763521938 L-39.95586239427268,15.60617809760592 L-49.999999999999936,16.324235164777935 L-49.12253732085735,10.98359135619173 L-39.04010457334212,12.534822502388288 L-35.64802021805632,9.676007723131466 L-28.60151959643185,10.588662285112047 L-16.739270574815183,3.9172206138282717 L-27.71926770870087,-0.9633905299467894 L-34.31722235535868,1.3461103613369794 L-41.15214556081581,-2.140757712084873 L-33.378009454842605,-8.140820888878983 L-36.1286362899918,-9.052743637554963 Z" stroke-width="4" stroke="#ff0000" fill="#ff0000" fill-opacity="0.5" />
</svg>