<?xml version="1.0" encoding="UTF-8"?>
<svg xmlns="http://www.w3.org/2000/svg" xmlns:xlink="http://www.w3.org/1999/xlink"
     width="101" height="101" viewBox="-50.5 -50.5 101 101">
<defs>
</defs>
<path d="M16.059818059005504,45.431774923103916 L16.059818059005504,45.431774923103916 L19.85261651728582,40.18084589071656 L20.373384925920774,30.32046229220115 L10.940138369847114,20.166882153561026 L10.213478815917902,8.66836322306261 L1.3539733973681296,-0.7925754765273696 L-7.456776606534695,-1.5926768784698273 L-9.80409643343378,2.460802860131269 L-16.627536126189625,2.7976404476317938 L-20.115709355750635,0.7435055108181071 L-32.39536342414231,7.693977232561113 L-32.67050240328666,-2.7494791849912037 L-29.80361412180498,-15.024624688157578 L-37.67579035614407,-15.557718838416529 L-38.34465406489694,-22.558157578898157 L-43.387874545852426,-26.15349952036789 L-40.90509971152189,-30.443882808992228 L-30.992034635101135,-38.021662549154414 L-29.943286443478407,-35.284823656849476 L-23.732720370396716,-34.96695233339803 L-25.49306461507933,-48.29264013424572 L-19.453474519383615,-50.000000000000014 L-12.64449252545134,-40.800942534782926 L-7.414032612188201,-30.21600803945915 L6.928785173507445,-30.12479988144919 L11.444037521514632,-19.964905421485586 L3.997495474542032,-16.91289801485659 L0.6556117890008242,-12.724860321853287 L14.613127823532603,-5.7557368871234775 L24.296221123338686,8.010648601960325 L31.638611818592057,18.27469441364303 L40.45417328874314,26.38016268580938 L43.387874545852256,34.60934272575037 L41.269920693522096,46.25625985738952 L30.943861722420984,41.9673794238403 L25.67306937295522,49.99999999999999 L16.059818059005504,45.431774923103916 Z" stroke-width="4" stroke="#ff0000" fill="#ff0000" fill-opacity="0.5" />
</svg>