<?xml version="1.0" encoding="UTF-8"?>
<svg xmlns="http://www.w3.org/2000/svg" xmlns:xlink="http://www.w3.org/1999/xlink"
     width="101" height="101" viewBox="-50.5 -50.5 101 101">
<defs>
</defs>
<path d="M-15.088379858165862,22.061803516715788 L-15.088379858165862,22.061803516715788 L-19.552947481507104,24.407347263803686 L-23.10253083401004,20.941251816220085 L-33.08598408535874,18.220198670794804 L-35.85547397356547,14.268006587901896 L-40.83675908902068,11.33578186590198 L-43.78724777631175,12.492072624947713 L-46.03134258004953,8.972813513365297 L-46.26843333611648,6.268553875763007 L-50.00000000000001,1.6686726104703233 L-47.49533129753862,-0.9685644592701786 L-48.04583775653883,-4.936571848666064 L-47.24388938146059,-8.390607020620282 L-47.6998132392796,-11.267875761364058 L-46.58836827752444,-16.416471168399635 L-46.93145819082361,-19.348853664806008 L-48.9730211444842,-24.920928200717327 L-45.89404098057678,-26.383616857097227 L-45.34777549762206,-29.050042192031775 L-46.01894782267849,-31.664294686240023 L-41.68535188962306,-34.09623569830226 L-39.74227172047122,-36.118234625562515 L-36.665904300734695,-37.93004017756817 L-36.30911956895528,-42.77745686463507 L-28.896732801280184,-40.60511786095266 L-26.24643832166151,-41.148114258205624 L-20.974122536060765,-40.09506475976731 L-12.599772590281518,-37.27481568951611 L-9.64427929881773,-31.665493771729075 L-3.9790421313833058,-30.44065949954336 L4.916089575220182,-27.798821728110653 L11.6392988025743,-24.66113055207348 L14.716720155345941,-26.298387122730624 L17.7416341856496,-29.201057542913528 L16.271050497970727,-34.03545468595982 L18.250425091583317,-37.105176647696496 L22.797799034408015,-40.062500122275175 L27.14265374910802,-40.92331728388963 L35.68001621163581,-39.631965321942765 L37.832311554722246,-36.81039094667737 L40.18207734492685,-36.783695517105315 L42.19130285624056,-35.70710607722399 L48.46214130540904,-34.96676545237804 L49.99999999999999,-32.88281798216758 L47.71574214335521,-29.854432914921908 L48.692365719307084,-27.155291479065006 L47.066973784015296,-23.258831627508005 L48.959824893128356,-18.175119367382695 L48.959824893128356,4.267690407991362 L48.959824893128356,27.507860478703968 L48.959824893128356,40.11062762721999 L41.70220219623237,40.12981299504482 L41.62432474920654,42.77745686463507 L16.453627041119613,30.69433550121679 L-8.717133776729913,18.611151028035952 L-15.088379858165862,22.061803516715788 Z" stroke-width="4" stroke="#ff0000" fill="#ff0000" fill-opacity="0.5" />
</svg>