<?xml version="1.0" encoding="UTF-8"?>
<svg xmlns="http://www.w3.org/2000/svg" xmlns:xlink="http://www.w3.org/1999/xlink"
     width="101" height="101" viewBox="-50.5 -50.5 101 101">
<defs>
</defs>
<path d="M19.749143067959384,-46.83445252102797 L19.749143067959384,-46.83445252102797 L21.70670082768244,-43.697103808256664 L23.532025251759126,-38.82665184559967 L24.718674168344663,-29.95533769681711 L26.629361803075092,-26.506276105889036 L25.896179133547147,-22.969948772487225 L24.59216317646707,-20.80051681023286 L22.087391545546737,-25.121844995718206 L20.7010579035559,-22.939456644286373 L22.10758198013294,-17.47643976123375 L21.4529045577214,-14.34976144979415 L19.417991918959196,-12.646376041903501 L18.95347181454413,-6.400260838587363 L16.049330732813196,2.1959162375707426 L12.412021729863012,12.358289954255879 L7.856328171105703,26.329458633095772 L5.031835330414051,36.582910530049034 L1.6989977860576306,45.13450346906028 L-4.298276579014816,46.88094656414919 L-10.735692094250261,49.999999999999986 L-14.982718300593728,48.117135049598915 L-20.83672022097097,45.478987089109324 L-22.871632859733225,41.58788181619815 L-23.358253304708867,35.05024416931145 L-25.95487002794879,29.17147983865642 L-26.629361803075142,23.865842157553658 L-25.308569644868864,18.549534075119166 L-21.913619598496478,17.272566516162613 L-21.89380524578172,14.818093992003604 L-18.369291307634494,9.22779920502189 L-17.705086477814127,4.531111815260899 L-19.415705931113486,1.0397520750317215 L-20.81270997443603,-3.610448645762385 L-21.401845913063013,-10.405304170224401 L-18.825426998563618,-14.530767442253198 L-17.83693635743473,-19.208023935325148 L-14.16151035069488,-19.47972465202658 L-10.04824392994644,-20.991433666126476 L-7.317874795265866,-22.325558295381644 L-4.078784875049028,-22.42463743310998 L0.12404065017323798,-26.6266960462808 L6.192578842798974,-31.16828284778338 L8.40545194827735,-34.87799867220978 L7.401328099945137,-38.029446768081456 L10.533728755153467,-37.14308079042382 L14.598598600960628,-42.26732902304182 L14.734644374401416,-46.701459647484455 L17.17653659125435,-50.00000000000001 L19.749143067959384,-46.83445252102797 Z" stroke-width="4" stroke="#ff0000" fill="#ff0000" fill-opacity="0.5" />
</svg>