<?xml version="1.0" encoding="UTF-8"?>
<svg xmlns="http://www.w3.org/2000/svg" xmlns:xlink="http://www.w3.org/1999/xlink"
     width="101" height="101" viewBox="-50.5 -50.5 101 101">
<defs>
</defs>
<path d="M4.358301827003876,-19.75945820604988 L4.358301827003876,-19.75945820604988 L0.6600577674379071,-9.720691650614667 L4.358301827003876,7.450413112339245 L8.943900967691075,7.257921030034047 L13.709707991373547,11.516562336829816 L19.242735910452637,21.069336908167397 L20.36627783873641,38.05340483001505 L14.648947303558836,40.83493060946402 L10.616916451990397,49.999999999999986 L1.9979259516391026,41.84038571857478 L1.0204603246119273,32.52924002678217 L3.799265087869637,26.388038571329112 L3.0327178421125827,21.09527902369936 L-2.182228567737675,17.75265592974809 L-5.816304196929682,18.96629519512128 L-13.420289613868006,12.626446348891575 L-20.3662778387365,9.205336467521292 L-16.35609436959665,-3.0654823113474143 L-12.199834599200297,-7.663378860161039 L-14.737684132552603,-18.607940004498932 L-12.082434638483333,-29.315640652034748 L-9.831942907268395,-32.895111033971645 L-13.190944933632936,-44.107243173386465 L-19.42567801845565,-50.000000000000014 L-6.476361964367683,-47.53586887132381 L-3.819950094449661,-43.88332731671745 L0.6600577674379071,-37.72371277111592 L4.358301827003876,-19.75945820604988 Z" stroke-width="4" stroke="#ff0000" fill="#ff0000" fill-opacity="0.5" />
</svg>