<?xml version="1.0" encoding="UTF-8"?>
<svg xmlns="http://www.w3.org/2000/svg" xmlns:xlink="http://www.w3.org/1999/xlink"
     width="101" height="101" viewBox="-50.5 -50.5 101 101">
<defs>
</defs>
<path d="M-50.0,17.752208508505575 L-50.0,17.752208508505575 L-47.95302707384484,16.64361752598388 L-46.93039822492118,13.060426520105873 L-45.00239037136517,12.920240058974654 L-40.755047150531354,14.614240895908754 L-37.324925065203004,13.411513074662299 L-34.973535608626264,13.815254705321344 L-34.06107672544669,12.462596466386387 L-9.655604052318111,12.370187020709247 L-8.302477470901941,8.111530591887568 L-9.35622372416209,7.361890668184815 L-12.291611925337694,-18.887981602047574 L-15.227316409747361,-45.13801809626688 L-5.918553417805286,-45.247397353925805 L14.598995435789638,-31.976225840826817 L35.11655037175444,-18.705364528592007 L36.56271288294601,-15.855311976916198 L40.34957812682471,-14.115735942426722 L43.16615939701818,-13.126432398108141 L43.23593634434972,-9.256737441122661 L49.983024105648326,-9.852207535326407 L50.0,4.155721442056912 L46.67423313480478,8.218397830783589 L46.15624026820818,11.966135189186025 L40.75347789910078,12.93076864124722 L32.45429707267702,13.453633486122461 L30.20537121919888,15.615180013819137 L26.30723510062673,15.85405900871968 L22.407529730624002,15.88203182782514 L20.889388454202187,14.715135247576775 L17.540989090661373,15.58091802425162 L11.855968264626885,18.10392762953014 L10.695512914087741,20.00521563217719 L5.976390673050724,22.73174741620927 L5.1491092977539035,24.29420483962007 L2.6000124080345675,25.53260576024757 L-0.3413486803690273,24.71256240511502 L-2.0080031822959232,26.19691003445054 L-2.9006578691268605,30.36818713749075 L-7.72869710771147,35.40917622815213 L-7.588200445716062,37.46935397932966 L-9.246996525750317,40.047524597103816 L-8.844203744793488,43.57854103410019 L-11.353692241815558,44.479838768539054 L-12.77408375180038,45.2473973539258 L-13.715458221417727,42.64596775370781 L-15.471693867024795,43.33180361730701 L-16.520878342870486,43.21314874557203 L-17.640314190898827,44.988087678578374 L-22.33743650005839,44.93795678597843 L-24.021225037953986,44.02471327708356 L-24.814086282066256,44.57727833411187 L-26.6718427634396,42.82387099050177 L-26.34935551208688,41.01263247401611 L-27.109371958815057,40.30306320312195 L-28.404977568219863,40.90136159932266 L-28.167667824749895,38.922432145081544 L-26.9207819981315,37.35683013643971 L-29.413300683171787,34.80883415566973 L-30.138112373000116,33.13133478823621 L-31.489669702985708,31.79502595955467 L-32.7070073766982,31.63550972692591 L-34.16857653081085,32.48730305286308 L-36.13367467593133,33.30090517828641 L-37.80158822842462,34.61709960975514 L-40.40490336330725,34.13117299719723 L-42.09340573786445,32.58678629471758 L-43.10141256958231,32.38389060006228 L-44.68902059247148,33.1945123642415 L-45.65365404453267,33.20142801880181 L-46.00505688232317,30.974343955584096 L-45.72500024329479,29.07949718264626 L-46.24503678617307,26.727475159601383 L-48.52177731713963,25.019174671065432 L-49.721044269920974,21.536093391140177 L-50.0,17.752208508505575 Z" stroke-width="4" stroke="#ff0000" fill="#ff0000" fill-opacity="0.5" />
</svg>