<?xml version="1.0" encoding="UTF-8"?>
<svg xmlns="http://www.w3.org/2000/svg" xmlns:xlink="http://www.w3.org/1999/xlink"
     width="101" height="101" viewBox="-50.5 -50.5 101 101">
<defs>
</defs>
<path d="M-9.213383614095411,50.000000000000014 L-9.213383614095411,50.000000000000014 L-14.377423426567677,44.62506583112334 L-19.11241256100873,38.86799421859926 L-24.306775773520584,36.79489878244704 L-28.045960101448408,34.49453044117223 L-32.415573785244604,34.580468913232856 L-36.23381023890144,36.285974312363116 L-40.123218646973804,35.61043938802293 L-42.8026960045888,38.11947184853797 L-43.48045334069963,33.90271157712203 L-41.29594777645354,30.044236949786825 L-40.32399476950694,22.676480231882092 L-41.18898247190096,14.943160253887083 L-42.13403960118664,11.053149290510703 L-41.352963593921544,7.150594221259881 L-43.375718273311264,3.4308325201445493 L-47.50047539265869,0.05115459769261674 L-45.79274758175775,-2.559169757044988 L-15.147786470051047,-2.5102453965165865 L-16.631888009227698,-13.811279678783224 L-14.71832887155477,-17.83049571520575 L-7.385950757928496,-18.532918691813276 L-7.6378893035478,-38.55621488843726 L18.046030529990436,-38.146970281502874 L18.068677218949034,-49.999999999999986 L47.50047539265869,-31.053391877710997 L35.52410182089083,-30.912667825346585 L39.301090625100265,2.8598370283537626 L43.07767250884466,36.632130596428034 L44.43339064129883,37.59659470173905 L42.69249881249653,43.07565355730655 L11.293154110953125,43.19454476164245 L10.119212045471796,44.93483403514074 L7.093985324256925,44.41539223611405 L2.6808937538491175,45.962785558392724 L-2.7836098696993723,43.78333519838549 L-5.264126596086838,43.963694869124225 L-6.579810015095186,48.573720293827904 L-9.213383614095411,50.000000000000014 Z" stroke-width="4" stroke="#ff0000" fill="#ff0000" fill-opacity="0.5" />
</svg>