<?xml version="1.0" encoding="UTF-8"?>
<svg xmlns="http://www.w3.org/2000/svg" xmlns:xlink="http://www.w3.org/1999/xlink"
     width="101" height="101" viewBox="-50.5 -50.5 101 101">
<defs>
</defs>
<path d="M15.931845786705537,-7.3894442029493765 L15.931845786705537,-7.3894442029493765 L14.651773080011353,-4.493747447286362 L14.0749315422484,-2.1194029722740413 L13.833816173215132,2.2999558183860502 L13.516077337682054,3.9108925391919667 L14.087802727675331,5.710361449407628 L15.110649642572264,7.318995738786583 L15.769141732070983,9.877353304276081 L17.958618776005014,12.333176803181505 L18.72867653272829,14.21523307104307 L20.019232229501075,15.839294970427614 L23.521771402337105,16.714439919701224 L24.885196744744594,18.094401205867126 L27.7783403744413,17.172551204194733 L30.29365434725113,16.83938475865604 L32.76354312925766,16.24652515927515 L34.83983818591096,15.680766959040271 L36.937864500788976,14.334811067688907 L37.72385785382119,12.410737075591461 L37.99472010911282,9.639559637888889 L38.56491164435894,8.675266390986238 L40.79905189964118,7.8114554737800255 L44.28718603230307,7.046345635596093 L47.20793904744916,7.161233005466655 L49.20863650604646,6.88185043445034 L50.0,7.58124861581979 L49.888091277090126,9.17002525879428 L48.115473071481134,11.130918362048966 L47.331185101038805,13.139285094382204 L47.939132553352245,13.713738436796842 L47.44496743576891,15.139639497294112 L46.61823292148398,17.713592902019535 L45.78212375087322,16.866403692493066 L45.09150317699251,16.921378366077235 L44.464463356342044,16.964758417217602 L43.28283113829374,18.95590969164638 L42.684090113075754,18.565640967551616 L42.284786489728226,18.717518976422117 L42.3106113258911,19.202906486516692 L39.25987649071717,19.166598660275188 L36.18033817241966,19.17230855826956 L36.177867511762365,21.029219504114334 L34.688042642349494,21.03740336137836 L35.915954391802174,22.13815030575828 L37.13593957575492,22.900109969138846 L37.50200308235533,23.614935760513887 L38.036312312354305,23.81505597514272 L37.95184804427583,24.93839181696079 L33.718121962761415,24.948277758202348 L32.13053611884875,27.637036067489348 L32.599047928111894,28.25342137021851 L32.21636271383171,29.026886593509168 L32.1354807387757,29.987686609923063 L28.402394950906412,26.43639724502535 L26.70128406402765,25.365225659061107 L24.008009954420448,24.504911270956008 L22.16550075013745,24.744578549163414 L19.516203740507667,25.98561547719475 L17.853531583454657,26.310769593312106 L15.524190076863592,25.44142030595422 L13.052084627351467,24.813869200387998 L9.969049779952858,23.300693454081898 L7.496010823142996,22.838488591650197 L3.7616451736782066,21.304940615411553 L1.002059059807069,19.72835234510558 L0.16936065437609027,18.847411733916246 L-1.676556016474341,18.650613221933483 L-5.050568057333064,17.606457271193904 L-6.424562153740569,16.101376319618126 L-9.968865057660722,14.229209291610458 L-11.621562210938482,12.148995483473982 L-12.407812855734749,10.541466229235485 L-11.307319904506505,10.219465586533856 L-11.646707532955272,9.278780508288461 L-10.888326863984835,8.423153448346275 L-10.872048211990474,7.282430620781031 L-11.984815299808579,5.801215129626561 L-12.282524961094541,4.488585118943677 L-13.388556282474447,2.823867822227746 L-16.295504604895864,-0.4550254326311524 L-19.612157075434446,-3.031706789777922 L-21.216786849408923,-5.088058436105452 L-24.047966045931606,-6.434865369445573 L-24.65454787272822,-7.240633903573254 L-24.151690911577493,-9.279341272389585 L-25.833369673046164,-10.04871621635441 L-27.78045478496382,-11.651640607738983 L-28.602755964237513,-13.953283666346946 L-30.37707955243635,-14.221675260981272 L-32.29254416627542,-15.959093974101549 L-33.838366279103916,-17.563723748076 L-33.98214949324408,-18.594325700630215 L-35.75604426183622,-21.082370045063673 L-36.92446883599688,-23.608338535794804 L-36.87452124764867,-24.87528606391036 L-39.26011728941941,-26.18365426742471 L-40.36137881732741,-26.03995681720589 L-42.24394307149234,-26.948681640299654 L-42.77254240349698,-25.609289987543782 L-42.22672761358789,-24.026391471793996 L-41.905663776796395,-21.549344700967268 L-40.77448713339965,-20.189495054357508 L-38.32659019999423,-17.91734159024387 L-37.78290631366942,-17.140726192149856 L-37.281240151580484,-16.905234957189624 L-36.84605422298582,-15.772181403360328 L-36.25975556358807,-15.818035413770355 L-35.597687778291586,-13.690519504398013 L-34.595978371394594,-12.851342624292874 L-33.89350918191841,-11.683346869738925 L-31.82045336260216,-10.004650053843255 L-30.725927601132312,-6.936191774461467 L-29.74671473052747,-5.491452338778845 L-28.83032063369777,-3.9457159898716823 L-28.649035495641936,-2.2059981439367955 L-27.05846770615618,-2.0969889012909366 L-25.735694462467688,-0.5982148965466109 L-24.539145919329542,0.8746518067258603 L-24.61926261631815,1.4653805025224835 L-26.00740775974809,2.6770135999808398 L-26.591832807325613,2.6611604689808748 L-27.461607615677874,0.6559505086757069 L-29.62031850213444,-1.2242288487532802 L-31.99883902039396,-2.8189726814861893 L-33.685973686705324,-3.656787234686842 L-33.57696444405948,-6.070421481513686 L-34.07743650847427,-7.857870248291177 L-35.64950897846003,-8.880294940806078 L-37.91688935048937,-10.352221539556073 L-38.352500800078424,-9.927604364961377 L-39.18443392744204,-10.787235940308053 L-41.2190510169325,-11.58558589523911 L-43.16323664858612,-13.500882279847808 L-42.92280409231129,-13.7498384504597 L-41.5641485433757,-13.562757650488146 L-40.340241309327475,-14.7948487418004 L-40.21716678358051,-16.282882464702052 L-42.75651774465431,-18.636003667793055 L-44.69218306058318,-19.549333353740753 L-45.908417722283126,-21.609092466635694 L-47.13215342848862,-23.77189363241808 L-48.65999150673291,-26.408408519154616 L-50.0,-29.375827003351194 L-46.25142392849031,-29.629985085654077 L-42.06231817636349,-29.987686609923063 L-42.37110127934042,-29.342642963014193 L-37.390130644181404,-27.73905555054535 L-29.86477536548793,-25.41544703223517 L-23.305121841174586,-25.43926301347108 L-20.689124323314424,-25.440186624931755 L-20.682725015336892,-26.801306237299944 L-14.968175977538813,-26.800204500771848 L-13.76520503613663,-25.63061551644824 L-12.078591550578071,-24.587858177349105 L-10.118490114289656,-23.13709547549795 L-9.024604283617586,-21.414263226231572 L-8.203975500810175,-19.600785109324928 L-6.498691869296577,-18.60473612123694 L-3.7608436108748453,-17.615152413373657 L-1.6827178243619754,-20.221056177413633 L1.014227640801409,-20.28471939595283 L3.339089631808224,-18.969925495562087 L4.994201369333167,-16.711728460341682 L6.13499346775794,-14.778345784165595 L8.081174759889066,-12.898136739225365 L8.8068694789888,-10.589108087544384 L9.730480939661197,-9.038760278558584 L12.303398580105725,-8.016190447099856 L14.64541335538213,-7.2904957280001215 L15.931845786705537,-7.3894442029493765 Z" stroke-width="4" stroke="#ff0000" fill="#ff0000" fill-opacity="0.5" />
</svg>