<?xml version="1.0" encoding="UTF-8"?>
<svg xmlns="http://www.w3.org/2000/svg" xmlns:xlink="http://www.w3.org/1999/xlink"
     width="101" height="101" viewBox="-50.5 -50.5 101 101">
<defs>
</defs>
<path d="M-50.0,-7.7285741231845 L-50.0,-7.7285741231845 L-46.70752143243493,-8.26984381772779 L-40.74872367242572,-10.959565992412601 L-35.998658403900386,-12.428448208019843 L-33.28327851609979,-11.470090776339424 L-30.025014396550347,-11.424018692405978 L-27.93772383356714,-9.965301503112267 L-24.82082696783046,-9.852983427415761 L-20.30605629457156,-9.06786864849807 L-17.27049525382274,-11.242466013523382 L-18.53845971276855,-13.080583831643425 L-15.303917110846578,-16.31706262905366 L-11.80552103020593,-15.026182359635186 L-8.970718478425153,-14.660335099226879 L-5.298995426831174,-13.857953828607963 L-4.703502889927914,-11.517780520374398 L-0.2670044807311033,-10.204306098765938 L2.6841540512079716,-10.783175460533455 L6.634739219450873,-11.191306732089249 L9.76454613704014,-10.779949509018289 L12.82302298826167,-9.279113822062385 L14.718592723152767,-7.682823697533772 L17.614397924398446,-7.715342413049193 L21.547878991529473,-7.206831897009377 L24.418507405635456,-7.980810428973478 L28.529828028365884,-8.497952629415925 L33.10398369098818,-10.698776074619715 L34.97664073830256,-10.361328429970305 L36.61174221368355,-9.314939684387635 L40.337688107637504,-9.57524555330845 L38.816840903441296,-7.22079124190075 L36.61045245765665,-4.100346766366142 L37.41476992376385,-2.8235882324283956 L39.182691286745566,-3.2197744269798014 L42.26359677667172,-2.7335364048472335 L44.66396702721542,-3.8859505907894443 L47.169875546350646,-2.8876544428191324 L50.0,-0.7047470516739298 L49.65787425721919,0.4050645877340169 L47.19408423574616,0.05301428162777443 L42.657687508041455,0.46735699322582286 L40.459690283671364,1.355917700449335 L38.171319573437394,3.420048867075819 L33.409640254878255,4.629914969789128 L30.29790865904099,6.28793537853873 L27.08805567249068,5.654758856220638 L25.330627239897115,5.372346006877868 L23.69132859236089,7.385480282659571 L24.688656642587063,8.58550301734209 L25.1941004748051,9.616239808429077 L23.008366862826175,10.666419749693647 L20.76744231074314,12.339042819900103 L17.118316534235042,13.437640139955713 L12.43764825948515,13.556091583295771 L7.392744138636595,14.640323581986662 L3.7566876816744768,16.31706262905368 L2.3741441703652204,15.346038731404734 L-1.4045724193324651,15.348783756943769 L-6.0240787769240685,13.451921143129827 L-9.106920462338508,12.986825126570992 L-13.260525096216442,13.421260550703987 L-19.70636970840897,12.721110401866747 L-23.148928409484128,12.793733347157376 L-24.981884080600704,10.939314012184308 L-26.40461301697981,8.06037244906245 L-28.334394076990638,7.713727875843674 L-32.10746134791687,5.767726494274485 L-36.31351189635983,5.3317577282306114 L-40.02460842007701,4.797751889664346 L-41.148138941388254,3.443529921715262 L-39.94569596234538,-0.20535539180475698 L-42.100441077823824,-2.7205451576999806 L-46.555339589951295,-3.893295642061156 L-49.18002745650122,-5.549620318310528 L-50.0,-7.7285741231845 Z" stroke-width="4" stroke="#ff0000" fill="#ff0000" fill-opacity="0.5" />
</svg>