<?xml version="1.0" encoding="UTF-8"?>
<svg xmlns="http://www.w3.org/2000/svg" xmlns:xlink="http://www.w3.org/1999/xlink"
     width="101" height="101" viewBox="-50.5 -50.5 101 101">
<defs>
</defs>
<path d="M24.400204531023984,-45.0734552110588 L24.400204531023984,-45.0734552110588 L28.192741425968507,-42.40314013501739 L34.17510402225684,-42.838114562663016 L40.69095086732239,-41.449314183797476 L43.42368464476669,-41.38202000430678 L45.79491587661379,-37.352817966570804 L46.16942179409164,-33.52663083641123 L48.34235003202403,-26.885298621774695 L50.0,-25.548518021371194 L48.846568830395455,-23.10365134304952 L40.613578602803734,-22.043357532270793 L37.76771486090387,-19.716666151858117 L34.128293141674405,-19.16807106647843 L33.85814132809407,-14.510624358756662 L26.50274344724736,-12.020896991087675 L24.096566046654736,-8.870740507113885 L18.947413219163685,-7.180094561627513 L12.665306230036881,-6.220902439041263 L2.506143574211099,-1.5785728588614412 L2.5597801241164597,5.875328552177409 L1.6021796092156426,5.875328552177409 L1.602060081365748,5.875328552177409 L1.7463993965227584,9.245573553444096 L-2.1423637085264287,9.448267623107562 L-4.169971244744789,10.879651371232935 L-7.026567329377304,10.879651371232935 L-9.30287457558964,10.062691099081858 L-14.59539162262013,10.73823734292861 L-16.644130424511975,15.640967780513149 L-18.610294354944998,16.101628114007188 L-21.56831925662234,24.03293004846477 L-30.31364988543885,30.821526865111004 L-32.39002478441423,39.50834546593436 L-34.967202501629835,42.334380166630645 L-35.722882732421745,44.60125729458024 L-49.890122451249475,45.10368946614271 L-50.0,45.09377494554093 L-49.703193475893165,42.178333413123426 L-47.28677442584641,40.464121608389405 L-45.228284667778944,37.18587530590481 L-45.633999935958244,35.0568452435811 L-43.471156073993285,30.61802126425614 L-39.96957512945024,26.618392932959917 L-37.85159195683259,25.60475272927691 L-36.186462061829,21.93542388381593 L-36.03724726858418,18.584039119074713 L-33.76630619373817,14.695276014025527 L-29.575691231128676,12.402392142314657 L-25.588097467035006,5.977732464839792 L-25.47279083752347,5.889659312285835 L-22.309857455489873,3.4736995008202562 L-16.459799607156,2.778814909048432 L-11.50277836196141,-1.5210296355463722 L-8.348721495517363,-3.197212711195485 L-3.0971647553639285,-8.450071675818823 L-4.669314565028401,-16.277019506378906 L-2.2792293875952945,-21.689492187187923 L-1.43561440491771,-25.002193965139494 L2.6108248069609425,-29.252138777873032 L8.922511793466947,-32.12596574570878 L13.588086394981543,-34.72670932217201 L17.791704729471675,-41.24027884715011 L19.769248969402568,-45.10368946614269 L24.400204531023984,-45.0734552110588 Z" stroke-width="4" stroke="#ff0000" fill="#ff0000" fill-opacity="0.5" />
</svg>