<?xml version="1.0" encoding="UTF-8"?>
<svg xmlns="http://www.w3.org/2000/svg" xmlns:xlink="http://www.w3.org/1999/xlink"
     width="101" height="101" viewBox="-50.5 -50.5 101 101">
<defs>
</defs>
<path d="M-5.585897336612195,-42.67630460120292 L-5.585897336612195,-42.67630460120292 L-1.0050473982008756,-43.168685285005324 L6.311098577445173,-41.45306669744881 L7.900550474712618,-42.22262688753841 L12.138778366957485,-42.379618359612614 L14.308391256891277,-44.20598211419888 L17.960802177351063,-44.10593399271455 L24.618133129937295,-46.47029155872208 L29.46169081751487,-49.999999999999986 L30.44675659734348,-47.27036603012852 L30.19632274904208,-41.204830705403474 L30.94857406008466,-35.86260317747913 L31.18485273997792,-26.347906885901903 L32.25550097241442,-23.36595171194128 L30.439840351618063,-19.015718386059945 L28.07768064186658,-14.787554361934909 L24.201264942378437,-11.012130461824977 L18.635343135894004,-8.697793912437383 L11.772564373444158,-5.742894896930875 L4.89373699855392,0.7917396647179511 L2.5510901123500203,1.9032826353039396 L-1.6990950920469408,6.229290836412772 L-4.207555316571648,7.636899047652464 L-4.721951092401527,11.978006095063334 L-1.8346985612747517,16.588743225610383 L-0.6334818377926124,20.15935249328225 L-0.5578658413929208,21.98072997564217 L0.5179147811373505,21.676317751811023 L0.3437240184167067,27.647594875548993 L-0.6435517941569157,30.47601670029814 L0.7914230760051657,31.518348507673874 L-0.11404499553609897,34.0513443574394 L-2.658998157453691,36.217182535797676 L-7.68125799690912,38.27478390385055 L-15.003066039918409,41.57010102102296 L-17.6732361259867,43.82119897503188 L-17.151284838761374,46.38596937272088 L-15.595178256492389,46.79560472584149 L-16.117762721143286,50.00000000000001 L-20.73542218566025,49.94902921724174 L-21.258317150779494,47.25778162879536 L-22.159383421564158,44.527520569742805 L-22.679136852533457,42.341548566900315 L-21.594327363444307,35.55396571198123 L-23.178433782061298,31.228584600053487 L-26.094635915674388,22.65963011723038 L-19.680189388238574,15.749344783129448 L-18.074688878530736,11.358521131322481 L-17.15505955033687,10.804478707460852 L-16.46730101303515,7.220341360561931 L-17.445767135851106,5.416948552385948 L-17.184630153759834,0.8672460727170372 L-15.997574686930296,-3.352108261650322 L-16.01110276615733,-11.057749677688312 L-19.17333694731522,-13.014048745894677 L-22.07254679059409,-13.45640232483266 L-23.38482526981881,-14.96279839095003 L-26.206324760598037,-16.247698034763374 L-31.28458427274945,-16.126572410900962 L-31.678487602142457,-18.397804189394066 L-32.255500972414396,-22.73073472447283 L-13.7804552253454,-27.748903263639967 L-10.27560508626552,-24.82672247395082 L-8.600576824634686,-25.386116464707406 L-6.196889199308187,-23.845425317453234 L-5.843570107596324,-21.405871843914927 L-7.124384539365849,-18.57525216290972 L-6.673848359851266,-14.283532954693218 L-2.701159250454276,-10.522580811704213 L-0.8427043592317198,-14.746970124253746 L1.7925435565186278,-16.02903873438547 L1.2746774813370971,-23.857382629605315 L-1.2756211592309705,-28.260474094032677 L-3.472290207618871,-30.223378907496176 L-5.585897336612195,-30.13465492073835 L-7.290502289910498,-38.049208357747176 L-5.585897336612195,-42.67630460120292 Z" stroke-width="4" stroke="#ff0000" fill="#ff0000" fill-opacity="0.5" />
</svg>