<?xml version="1.0" encoding="UTF-8"?>
<svg xmlns="http://www.w3.org/2000/svg" xmlns:xlink="http://www.w3.org/1999/xlink"
     width="101" height="101" viewBox="-50.5 -50.5 101 101">
<defs>
</defs>
<path d="M15.22410358971653,-5.71725456495238 L15.22410358971653,-5.71725456495238 L12.052699602809016,-3.3610226819181777 L8.21662627014045,-3.117703459520304 L5.739087979477224,2.7570119738727104 L3.446595756068912,3.7440366331874904 L6.07240347150203,8.512241356497324 L9.520963582810111,12.479586871368959 L11.746618822978963,16.0660267885889 L9.757963178256114,20.789863709610145 L7.881626268781973,21.79401602511765 L9.178942981260924,24.520068347607726 L12.803007229533728,28.837438600314012 L13.423868464816998,31.870691086255828 L13.338784441763119,34.39498809568121 L15.463070257352308,39.350624368818416 L12.478961972745209,44.41619932853283 L9.84585652816649,49.999999999999986 L9.322153444128743,45.966382627600886 L10.992382485776067,41.803873121670186 L9.165466906591485,38.5886610242849 L9.606889860530787,32.66901809679244 L7.400889040555135,29.853811759342296 L5.630132828994869,23.350377669709545 L4.648444260537072,16.485828250145282 L2.298108160170774,11.985656131328692 L-1.2815882858134044,14.710719483822865 L-7.45676584532342,18.584281300017352 L-10.504896352412421,18.10031633455115 L-13.871746893234949,16.826164342360762 L-11.99877900242815,10.09190900280579 L-13.1326657061341,5.004288706424519 L-17.391914952927472,-1.2608851227124298 L-16.727528170022374,-3.2196380098120057 L-19.906235319976627,-3.9161717514848915 L-23.762805327505266,-8.348811347724304 L-24.117747745814036,-12.720939021577209 L-22.221191290434636,-11.898045344274326 L-22.109991938807767,-15.795190291140282 L-19.42886711041713,-17.08422573837886 L-20.003958596934137,-19.39173726436228 L-18.77571763493802,-21.242235974218325 L-18.564550805209052,-26.865769330355917 L-14.317663683364419,-25.627845156641712 L-11.894600250991916,-30.108080292409092 L-11.619693761637002,-32.75578662918 L-8.62070202198176,-37.31380805885568 L-8.785811106187369,-40.423439458327 L-1.7510936405153954,-44.17835747841995 L2.1321513873972298,-43.19582665529532 L1.6865171601237912,-46.539224479072274 L3.5914907282704784,-47.53622034686222 L3.1815191937612064,-49.59592424815867 L6.359666651904541,-50.0 L8.175910049375117,-46.80093202271262 L10.547585079268362,-45.5054411009953 L10.70736350651807,-41.347007020871885 L10.48861638478755,-36.864946094342855 L5.341467702114641,-32.32728005809928 L4.6900027359692,-25.88141271646964 L10.42571354592749,-26.782793660919697 L11.721628311928724,-21.780539950448258 L15.16260813123525,-20.728085688272856 L13.580837565210208,-16.214008216601833 L17.615998165515034,-14.174246732255678 L19.96914359273783,-13.17387641189731 L23.95488286275294,-14.755929540778306 L24.117747745814036,-12.509495062893333 L19.494019584322842,-8.975008673864595 L18.33598462423353,-6.973855056666094 L15.22410358971653,-5.71725456495238 Z" stroke-width="4" stroke="#ff0000" fill="#ff0000" fill-opacity="0.5" />
</svg>