<?xml version="1.0" encoding="UTF-8"?>
<svg xmlns="http://www.w3.org/2000/svg" xmlns:xlink="http://www.w3.org/1999/xlink"
     width="101" height="101" viewBox="-50.5 -50.5 101 101">
<defs>
</defs>
<path d="M-15.462968317283178,41.82172625459129 L-15.462968317283178,41.82172625459129 L-21.0296006574861,36.162968257359175 L-23.96097779186657,30.692723668571126 L-25.61458801801674,23.40009291215949 L-27.46097374699667,17.97358535169843 L-29.970815514682716,6.43891976805817 L-30.138804953677244,-2.5224220620986655 L-31.09761139946205,-6.60807772502136 L-34.01195513729935,-9.695444517718188 L-37.87813166560849,-15.884117923237964 L-41.815535356507326,-24.870230836230437 L-43.45056914315573,-29.572893948604985 L-49.545176852198345,-36.88526966248708 L-49.999999999999986,-42.63228072835225 L-46.39510708568322,-44.057131090637746 L-41.91114409594311,-45.33295046892029 L-37.05519539567965,-45.10921673042081 L-32.589816335941116,-41.722244926759416 L-31.457207823317678,-42.2486772526405 L-1.0937028566668814,-42.57189231897185 L4.096299663137254,-38.982864283229596 L22.230717281272163,-37.922651451164505 L35.9972971280525,-40.97517992929568 L42.130623230556694,-42.67756829013762 L46.98811497377876,-42.24635519770276 L49.94387368500532,-40.55790665698696 L50.000000000000014,-39.93624760715984 L45.77732062425227,-38.248570587923346 L43.50515241519183,-38.23192669736974 L38.723524453935084,-35.29629495910338 L35.861044936706776,-38.384051257789764 L24.312057517450626,-35.76156735412479 L18.736136957496804,-35.51383405426898 L18.51511477992463,-8.831864795879412 L11.131908899942225,-8.570970687876567 L11.13423095487994,13.291049212284056 L11.12648577808766,40.95582447781477 L4.44041322390814,44.78600166408941 L0.4163069978346506,45.33295046892026 L-4.293322279353097,43.91661680490632 L-7.653972466720449,43.37082902754435 L-8.91663103685595,40.168108537941315 L-11.874719293520007,38.11735201244261 L-15.462968317283178,41.82172625459129 Z" stroke-width="4" stroke="#ff0000" fill="#ff0000" fill-opacity="0.5" />
</svg>