<?xml version="1.0" encoding="UTF-8"?>
<svg xmlns="http://www.w3.org/2000/svg" xmlns:xlink="http://www.w3.org/1999/xlink"
     width="101" height="101" viewBox="-50.5 -50.5 101 101">
<defs>
</defs>
<path d="M34.13124680771955,-34.22171925296793 L34.13124680771955,-34.22171925296793 L37.06247909229855,-28.886054464618763 L46.25147928650043,-34.12288695738015 L49.987983522696446,-28.664382760722336 L50.0,-23.2265649943478 L45.19250461245401,-17.24189414310437 L36.745993506192235,-7.721045361168148 L30.137008514772397,-2.5235959036992406 L34.90311812080925,3.6921014144168693 L24.93423562864852,3.851675064633726 L13.878314173512518,8.720609537749361 L10.418253520020324,17.17846523226101 L3.073459568365493,30.252198724625337 L-7.073034210910739,36.02587057116899 L-13.521760742116728,39.71428305626307 L-25.421652374165237,39.439196172609826 L-33.78937156795508,35.178540948988974 L-47.832615122697874,34.270457051236576 L-50.0,29.52573160642338 L-43.05783556368184,19.941440992700496 L-26.8118295887792,7.188883388873967 L-18.469474206760538,4.757756216168927 L-9.186990987512837,-0.15857227710825778 L1.8876141516892442,-6.924469204417463 L9.642376714496223,-13.629586014267582 L15.387338224944221,-23.259952711931625 L20.284311145102006,-26.52904182289703 L22.20330380768586,-33.742972460430565 L31.26544618020083,-39.71428305626307 L34.13124680771955,-34.22171925296793 Z" stroke-width="4" stroke="#ff0000" fill="#ff0000" fill-opacity="0.5" />
</svg>