<?xml version="1.0" encoding="UTF-8"?>
<svg xmlns="http://www.w3.org/2000/svg" xmlns:xlink="http://www.w3.org/1999/xlink"
     width="101" height="101" viewBox="-50.5 -50.5 101 101">
<defs>
</defs>
<path d="M-6.738897045390198,39.438176053917594 L-6.738897045390198,39.438176053917594 L-14.39045720299165,32.471245936432986 L-24.727410902325275,23.548141519403618 L-29.596436756542385,16.09261018022796 L-38.919561167936294,9.14111818925371 L-49.999999999999844,-0.8483670752978337 L-47.54436470782344,-4.268686215434024 L-43.893159317484326,-0.9392264215794449 L-42.218144708770005,-2.5022372012844496 L-35.34209605522679,-3.4114499585736464 L-32.57269964173791,-8.463344623661422 L-29.327264837300206,-8.659948501241058 L-29.797596872032003,-19.53635192204681 L-24.613681895854835,-20.059257634020923 L-20.00069007098412,-19.90153660229404 L-15.225973917970837,-25.803213872904056 L-8.701949937119213,-21.33252707090973 L-6.432014516262373,-24.075625586947456 L-2.3567914707225293,-26.706167332482043 L5.363333432125897,-32.796441887839656 L5.7307962313278455,-37.34885344263597 L7.853295332245186,-37.1574029797797 L10.690681431826604,-42.44246201402535 L13.00118064067808,-43.08595320699443 L16.771246334551186,-39.7067729140062 L21.20021923024371,-38.7072537519293 L26.08808933057395,-41.51951419002707 L31.675474656037643,-41.534377257383746 L39.35331059343034,-44.42378409271382 L42.41872976510645,-47.43605452799376 L50.000000000000156,-46.98401379788099 L48.09754949600528,-44.86153681462359 L46.97114131990273,-39.92394621515982 L49.2279388508641,-31.8306300392324 L44.132605102013706,-24.296802184517116 L41.75867244497943,-15.397120369170326 L41.04261321034774,-5.6510841855636516 L42.230154598018515,0.05000802871046883 L42.787342682616,10.007489039593713 L39.40818450728744,12.180261581138407 L37.3399842610737,21.640559718344882 L38.86068395766356,27.481656718880576 L34.33514535947204,33.13760678959077 L35.36436853860239,39.11528033912569 L38.75553660317884,42.74876948399946 L33.45963991565233,47.43605452799372 L26.93216557987884,45.9627750939227 L23.266119239842872,41.41149153977401 L16.25176885983935,39.566193068590906 L11.166166881281963,42.44931848854995 L-3.4060311319330028,36.592208302350215 L-6.738897045390198,39.438176053917594 Z" stroke-width="4" stroke="#ff0000" fill="#ff0000" fill-opacity="0.5" />
</svg>