<?xml version="1.0" encoding="UTF-8"?>
<svg xmlns="http://www.w3.org/2000/svg" xmlns:xlink="http://www.w3.org/1999/xlink"
     width="101" height="101" viewBox="-50.5 -50.5 101 101">
<defs>
</defs>
<path d="M-38.09023885221054,36.04504946019572 L-38.09023885221054,36.04504946019572 L-37.94521976823985,31.657008018080425 L-45.33267796889478,30.203818639392438 L-45.531664347390745,27.10325244731718 L-49.13963715499903,22.919502491125968 L-50.00000000000001,20.001039877941526 L-49.49226021346907,16.895674742069595 L-45.38598532855883,16.6440409387708 L-43.01697935512319,14.367079860639706 L-34.274668477237476,13.816296944033876 L-28.583428676835094,12.800157436110782 L-28.037777875023853,8.852311767836706 L-24.534433575025407,4.5727110784034135 L-24.552315887624246,-10.183163318949521 L-15.517314288083103,-13.04037372559689 L3.03343543956563,-25.626894870005952 L24.988206067031054,-37.83893821990964 L35.12377398679014,-35.07642526228086 L38.72744119996404,-31.557518032399706 L43.26003400522604,-33.93880007568107 L44.833549371232635,-23.979351471119738 L47.231028650719594,-22.31309923927449 L47.33399771047452,-20.275361344770406 L49.99999999999999,-18.07902124099661 L48.60640978712871,-15.321140641665556 L46.13774083537886,-2.319590948025888 L45.800020771930285,6.013810194148354 L37.62753481460731,12.05535367030462 L34.86088284804307,20.495036360809078 L37.52820500729099,22.868514514178067 L37.51396835426533,26.989852572474152 L41.62288938575505,27.137357624659938 L40.982214371061886,30.155316630659645 L39.17376219445896,30.52283627701657 L38.96748449681664,32.56272696873787 L37.77586638715328,32.7042733857689 L33.44047236984082,25.68980011726339 L31.93662177806826,25.434853825389315 L26.926780739717774,29.016172953165587 L21.965941466596945,27.146628748389976 L18.517557566982898,26.77281729588039 L16.668708406884562,27.67241102588412 L12.912730790593635,27.478057005685887 L9.133251804681567,30.208457404824753 L5.865645207101324,30.365066995241623 L-1.8886662979147208,27.05342416172736 L-4.92516114423992,28.62630522141103 L-8.194753953538413,28.517044355503458 L-10.597531933318903,26.097216990618875 L-17.019838602998636,23.706356281147894 L-23.90567583064176,24.465230114480768 L-25.574080859704196,25.850875480479033 L-26.475327630428282,29.53566342450708 L-28.311926349219213,32.11905852795699 L-28.756927473991684,37.83893821990966 L-33.64260465141312,34.15183089316546 L-35.93942784672674,34.16838692890727 L-38.09023885221054,36.04504946019572 Z" stroke-width="4" stroke="#ff0000" fill="#ff0000" fill-opacity="0.5" />
</svg>