<?xml version="1.0" encoding="UTF-8"?>
<svg xmlns="http://www.w3.org/2000/svg" xmlns:xlink="http://www.w3.org/1999/xlink"
     width="101" height="101" viewBox="-50.5 -50.5 101 101">
<defs>
</defs>
<path d="M-1.128705320678787,36.02107311478313 L-1.128705320678787,36.02107311478313 L-9.863567937876446,39.048928288610405 L-13.056641568246825,38.60653119824566 L-16.291884313257626,40.49198366140322 L-23.021938709059693,40.30807011852113 L-27.52632709030753,35.0451929733399 L-30.296354979808967,28.955146600775606 L-36.252927522633506,23.411834746879304 L-42.57515643462659,23.515751493671775 L-50.0,23.51140164685033 L-49.51738575720484,9.949328070663732 L-49.72999819275222,4.597325340608995 L-48.14390269266456,-0.7096812950528827 L-45.55213438654034,-3.28883756948396 L-41.47080015979166,-8.497354249842406 L-42.35732754834555,-10.76041885070484 L-40.69948902340974,-14.147409830283607 L-42.591680804369965,-19.13831637874663 L-42.263852116650604,-21.933559918004114 L-41.679491843658596,-29.444710502128814 L-39.26773315599644,-32.83713668682684 L-38.084246688984095,-37.67587431921111 L-35.89335420811081,-39.49545647141098 L-26.851108024617606,-40.491983661403204 L-18.417554332699837,-37.35238706468297 L-15.262308383778652,-34.17475244575816 L-10.968790816623583,-34.0312748096921 L-6.981369530341063,-36.096728477681495 L3.2013274016118456,-31.747992255421646 L7.492236743400092,-31.953646618780756 L12.45531941674024,-35.539115135144776 L17.38754089444966,-35.28389607618576 L19.815386443083977,-36.465211826602484 L24.343686361404462,-35.97433539893563 L30.858091001151323,-33.51931382470504 L37.43684308478685,-38.222179742738106 L39.411648300833726,-37.88739298283046 L45.10473959982755,-28.676226345499327 L46.66953178820941,-28.86210026422163 L50.0,-25.51098500388205 L49.08303209732618,-23.99140766427865 L48.638683044751424,-21.19486001233774 L41.55079695588128,-14.68436771064111 L39.32729324429245,-9.314755252545195 L38.14033194800108,-4.941888738827108 L36.35553174311235,-3.0668775907670733 L34.65769482013173,2.822739282801975 L30.158085380846334,6.2886417001725565 L28.854595306069356,10.546073207333059 L26.96458265533497,13.934797394736236 L26.177613753121886,17.431998516508724 L20.397567585850158,20.267021699425417 L15.674046205637874,16.809600221312134 L12.484455818176748,16.94916551932796 L7.473541657061103,21.87356232093692 L5.037433923555099,21.949209270205085 L1.0356589841248325,30.066890042939807 L-1.128705320678787,36.02107311478313 Z" stroke-width="4" stroke="#ff0000" fill="#ff0000" fill-opacity="0.5" />
</svg>