<?xml version="1.0" encoding="UTF-8"?>
<svg xmlns="http://www.w3.org/2000/svg" xmlns:xlink="http://www.w3.org/1999/xlink"
     width="101" height="101" viewBox="-50.5 -50.5 101 101">
<defs>
</defs>
<path d="M47.851047113908756,-31.741767676504008 L47.851047113908756,-31.741767676504008 L50.0,-29.055373172773663 L44.16712130175973,-29.976366138798614 L37.50368031840909,-24.778083323943722 L32.920175697402875,-19.554809650401136 L33.500844746285686,-8.528805955806703 L25.56342259327134,-5.136005226589374 L22.835381775278076,-2.428580331948557 L17.047695391519596,2.1089030394594928 L6.8248684219009315,4.633071870823691 L0.1630239061815646,8.755688567234799 L-0.3176970586005073,15.401276744286704 L-2.1089030394594928,17.096894225730047 L3.9992588706034695,19.592510847537092 L12.693452732738015,26.32615035470748 L10.483419609104866,30.038643727064244 L3.9484789194123344,31.049652906446077 L-6.900224764221846,31.792946744602908 L-12.880669263792184,38.7213399521244 L-19.73290789517713,38.17478004820713 L-20.693551590926184,39.566961225178396 L-28.14867166217766,36.64536405755753 L-30.000957880578763,39.530073612508446 L-34.50037163924383,40.80445389908046 L-35.041374607752495,37.91618299326008 L-39.01802197046481,36.51010947776775 L-43.14538201781851,34.06129698872435 L-38.94186739432837,27.305045973662594 L-35.319804702886735,25.50314058954475 L-36.687394138077956,22.698546078507498 L-32.79245828691047,14.418420657554368 L-33.797526764626305,11.909709931041776 L-42.7566882015823,10.237118425047832 L-50.0,6.120856897860746 L-37.49970449998172,-3.723991009431039 L-20.58170675284319,-11.975149753268882 L-10.035226672307541,-22.86233751720418 L-2.7482729750881,-18.05118275225486 L10.52466680646002,-17.492726094355444 L8.126618917956957,-25.590393685847594 L31.834992175773262,-32.20187271793385 L37.938380033593326,-40.80445389908046 L47.851047113908756,-31.741767676504008 Z" stroke-width="4" stroke="#ff0000" fill="#ff0000" fill-opacity="0.5" />
</svg>