<?xml version="1.0" encoding="UTF-8"?>
<svg xmlns="http://www.w3.org/2000/svg" xmlns:xlink="http://www.w3.org/1999/xlink"
     width="101" height="101" viewBox="-50.5 -50.5 101 101">
<defs>
</defs>
<path d="M38.107560299209084,-24.91620198818764 L38.107560299209084,-24.91620198818764 L49.99999999999999,-22.134267683699747 L45.10297574192036,-21.117098976706124 L49.26871026343144,-18.728707358636466 L42.799465730643384,-17.203446668496692 L39.72870583780142,-16.853126114486937 L41.33943365623196,-19.521104247920427 L36.46028681428399,-21.033202110614855 L30.55689938231283,-19.7446974184585 L28.692321379823223,-16.95706378458279 L25.066901534294452,-15.274423280334743 L20.984869972404447,-16.193349844532634 L16.020058293607853,-16.005123693317493 L11.794790683668582,-18.015295038199525 L9.516036065082618,-17.010798689344302 L7.157509845505972,-16.854502470216325 L6.599709368420009,-14.352937911148238 L-0.5660548093747387,-14.962020946461255 L-1.5724141811785994,-12.844870261363095 L-5.2235703580121875,-12.857740328059295 L-7.733583155839209,-10.152627204545468 L-11.536815234508968,-5.937674658401395 L-17.440396572950277,-0.5887494705592897 L-16.05561921940099,0.7100702853923478 L-17.378703898736724,2.2168642358146196 L-21.150302608156085,2.151829526556457 L-23.61924905727237,5.7178113358483165 L-23.385439677217974,10.766816443572868 L-20.95559009540959,12.693676443861834 L-22.21324845045918,17.163558966957602 L-25.376942771737106,19.77004213473538 L-27.053294623011606,21.960972330687355 L-29.60378064387594,19.62779082738752 L-37.11121942836373,24.024977434609823 L-42.1803603922842,24.916201988187694 L-47.438316831005565,22.97990900843838 L-48.79794717683586,18.892372023630763 L-50.00000000000001,10.118043415278485 L-46.498954045687405,7.671495064510063 L-36.45949978214038,4.479509409026331 L-28.95304573835402,0.5556408913006496 L-21.99279960640789,-4.74328304185261 L-12.857147202385889,-12.084794919194207 L-6.489483045350546,-14.946105407557138 L3.959037828490869,-19.714832019965474 L12.302293343228902,-21.37910083668736 L18.557967008525033,-21.177221388720092 L24.34778988446976,-24.3269658504091 L31.28092332938169,-24.158780503198653 L38.107560299209084,-24.91620198818764 Z" stroke-width="4" stroke="#ff0000" fill="#ff0000" fill-opacity="0.5" />
</svg>