<?xml version="1.0" encoding="UTF-8"?>
<svg xmlns="http://www.w3.org/2000/svg" xmlns:xlink="http://www.w3.org/1999/xlink"
     width="101" height="101" viewBox="-50.5 -50.5 101 101">
<defs>
</defs>
<path d="M35.74111692244363,-3.9419395067322585 L35.74111692244363,-3.9419395067322585 L31.230972042552754,4.337918031889341 L25.747705283778753,3.7039680403438444 L23.234374155832167,6.585817122995195 L21.293146303320135,12.7136458367201 L22.77903873741323,20.79269795390952 L21.639171246752234,22.277647639545204 L16.077837663792003,22.23799177173984 L8.528440968415378,26.755013880762405 L7.35046468434061,32.643009804221386 L4.586664629685385,35.19382122661004 L-2.9315005014092,35.09639179949046 L-7.664013152066167,38.1400068482215 L-7.604051932870001,43.02241650360947 L-13.452694151490752,46.37832302212279 L-20.121418749405525,45.238757694428884 L-28.204217687387317,49.31575800420636 L-33.78740369612994,50.00000000000002 L-37.73231044319934,41.555258173478066 L-47.186071109098805,21.609347761897045 L-10.926853476705201,9.52293785559293 L-2.869049459363947,-14.650184119982393 L-8.408518530023132,-23.2114158135901 L-8.0924802394484,-28.07820968683709 L-4.571048847544407,-33.08052969409865 L-4.537315373894626,-38.02071290880079 L0.9328254255874864,-40.40101981210055 L-1.2076366009276929,-42.0817831869515 L-0.21516420562991498,-49.95285049060991 L5.956381446178559,-49.99999999999998 L11.374683167020827,-41.744194633561506 L18.122743673583724,-37.355833515940475 L26.98814469641743,-35.77657272500596 L34.14654251233519,-33.573647569926834 L39.60107961619498,-26.644772743836725 L42.85955670758876,-22.630549812109038 L47.186071109098805,-21.099683441989132 L47.162961685373176,-18.40333824811469 L42.763988604346736,-11.199966496170205 L40.832768389305755,-7.807824594639321 L35.74111692244363,-3.9419395067322585 Z" stroke-width="4" stroke="#ff0000" fill="#ff0000" fill-opacity="0.5" />
</svg>