<?xml version="1.0" encoding="UTF-8"?>
<svg xmlns="http://www.w3.org/2000/svg" xmlns:xlink="http://www.w3.org/1999/xlink"
     width="101" height="101" viewBox="-50.5 -50.5 101 101">
<defs>
</defs>
<path d="M34.20449840752361,-39.61830203883078 L34.20449840752361,-39.61830203883078 L38.56021471888293,-36.86985293991944 L40.30487933204592,-32.340030358653394 L49.99999999999998,-29.95608789212747 L44.306918333760436,-25.00144577648453 L37.735865685271754,-24.1253081744055 L28.793816238595912,-25.563503543523026 L25.903707572207907,-23.021601521835223 L27.992617314076774,-17.856150162207 L30.03978376017783,-13.867675815705311 L34.797629315642745,-10.956698448989847 L29.77078975002537,-7.54657596209867 L29.861875142330103,-3.344397871086016 L24.139241274186208,2.5707703904740073 L20.443677411630304,8.553254948372663 L14.276882143071633,14.7337622499713 L7.43165368002725,14.28563933356218 L0.9346318616831579,20.46507372457902 L4.7931838108639715,23.11253364119971 L5.464908366656875,27.649666162693453 L8.776936171783127,30.63923717708264 L9.947357819157103,35.70065158095437 L-3.0256697393764496,35.685265335797716 L-6.9515438800090505,39.618302038830755 L-11.272532080173775,38.12755173654409 L-13.030602180496233,33.89033898845637 L-17.585249082970986,29.401033519436158 L-28.446523336424207,30.509916081296677 L-38.02435483440247,30.61974203810447 L-46.32666660889459,31.44607182971281 L-44.105246515059726,24.597494942435095 L-35.6018701185148,21.55233301163701 L-36.089596404641284,18.83754500845152 L-38.910242953527145,17.883267682406437 L-39.07292449427156,12.69131189433977 L-44.70842859099197,10.099295516300778 L-47.08155942011661,6.538989128409294 L-50.00000000000002,3.4383777639163915 L-40.122095455675456,6.448817478633014 L-34.224600743149786,5.565971237861153 L-30.70084995150975,6.3176688977901145 L-29.507578845811153,5.025389367798056 L-25.401968602274,5.543275052476825 L-17.74061478837459,3.0923110452666247 L-17.53437425703159,-1.9241708066572134 L-14.248243683695863,-5.260875555164914 L-9.859314305205203,-5.25051784147133 L-9.215007920379243,-6.899829000454701 L-4.709709009554397,-7.668433844716712 L-2.530020421261286,-7.119475018957213 L-0.22451832946884037,-8.777316406577233 L-0.5501761666119358,-12.317520458842605 L1.9530362278868616,-15.875545437969484 L5.704963266666059,-17.367209482784602 L3.387883172771057,-21.267339664566883 L8.995668447757184,-21.08303484901996 L10.616647693245174,-23.20559979150165 L10.37050314141733,-25.470590666161335 L13.306605480108926,-27.946992086341233 L12.63274689337853,-30.87898553121129 L11.239024257388172,-33.377481835240665 L14.681440173769072,-35.94512192066559 L21.011217633839497,-37.183478851252346 L27.776019069040213,-37.8683082434373 L30.772746750716767,-38.956929301618324 L34.20449840752361,-39.61830203883078 Z" stroke-width="4" stroke="#ff0000" fill="#ff0000" fill-opacity="0.5" />
</svg>