<?xml version="1.0" encoding="UTF-8"?>
<svg xmlns="http://www.w3.org/2000/svg" xmlns:xlink="http://www.w3.org/1999/xlink"
     width="101" height="101" viewBox="-50.5 -50.5 101 101">
<defs>
</defs>
<path d="M38.83486332948765,20.83276765497444 L38.83486332948765,20.83276765497444 L33.01007982049262,15.792175973757404 L29.266992672128353,6.360662194007328 L33.58388298049849,1.6929901487223025 L29.156844830451195,0.4957089692737386 L25.895462289827396,-5.277599993150695 L17.19081243992673,-10.134448859793373 L9.545287204731077,-9.021141431471149 L6.003555343087699,-2.9430912719192666 L-1.0537168169579412,1.446031139479768 L-4.865873511348678,2.0559503510001496 L-6.578721372962071,5.692034741999111 L1.7557345807435418,15.175931648232085 L-3.013977977770088,17.4084173289253 L-5.538554627581061,19.997555570582048 L-13.667601630341931,20.88920444568149 L-16.692858229908197,10.451368522283868 L-18.967330786164567,13.42198801827712 L-24.72980668040366,12.396271188039853 L-28.255725757034888,5.366081698457359 L-35.421800361579756,4.2053708604793405 L-39.9558412689926,2.1616077111875898 L-47.45419403108427,2.187781801738438 L-47.99369829940056,5.980072046892484 L-50.0,3.3381138614873356 L-49.08081416448136,-0.13002302725897932 L-47.62350440320526,-3.6731002860803756 L-48.30294745070818,-6.835150580521411 L-45.69123449276866,-8.90466847578904 L-49.32506490667744,-11.501477228628573 L-49.42528826008163,-18.53392069530126 L-42.66868616024857,-20.094633839674405 L-36.394714720759296,-13.827424331455541 L-36.75225838894463,-10.125415478742116 L-29.78032284989361,-9.339878253786273 L-28.130673710257586,-10.761071963547767 L-23.32800765723181,-6.467664951372631 L-14.731705961874125,-7.730416302579471 L-7.298805898850247,-12.143458827439176 L3.3123765882021603,-15.667578216936384 L9.27575347920589,-20.889204445681507 L18.922618170864375,-19.863924432709755 L18.27162066369325,-18.145205747047505 L28.01372899192874,-17.54928216071483 L35.78837741081638,-14.531241782375194 L41.49170824730221,-9.27395379207184 L48.06411324260446,-4.445567938451404 L45.94359256341319,-1.8907285884844154 L50.0,8.400825969031038 L46.70566396486455,13.594006657444558 L41.07411094145112,12.339834397332817 L38.83486332948765,20.83276765497444 Z" stroke-width="4" stroke="#ff0000" fill="#ff0000" fill-opacity="0.5" />
</svg>