<?xml version="1.0" encoding="UTF-8"?>
<svg xmlns="http://www.w3.org/2000/svg" xmlns:xlink="http://www.w3.org/1999/xlink"
     width="101" height="101" viewBox="-50.5 -50.5 101 101">
<defs>
</defs>
<path d="M-50.00000000000004,-14.258581615536588 L-50.00000000000004,-14.258581615536588 L-45.30656044609592,-28.52669600935257 L-45.00606344278433,-34.93629780494669 L-39.290745805249934,-45.42233008031244 L-18.5240530465747,-48.88975901970626 L-7.459798188700697,-48.7210407601342 L3.640776554417803,-42.62610405956935 L3.8442894547095348,-38.95238579820987 L7.368057113734458,-32.32725980169197 L6.5758594067727705,-16.15146965055335 L19.15490848115791,-13.863865014906278 L24.018925186398533,-16.197655961316897 L32.06648469387325,-12.972836229133186 L34.29804850921046,-9.413666214773212 L35.406758286993046,1.5058810688199031 L36.79964018528378,6.092779909479166 L41.242451082250355,6.62112222964059 L45.71175118686067,4.69435708381352 L49.99999999999996,6.856343533684171 L49.99385135800979,13.407578582564058 L48.37959451612623,20.454506185998603 L46.03995282704668,27.330856638096563 L44.09164360230818,37.84707207268937 L33.28324851345253,46.975314989805334 L23.85942988981176,48.889759019706304 L10.477101253715201,47.07138156291571 L-1.5391325910556832,43.82809207281569 L10.19230950261893,25.715074551688343 L8.481688188303792,20.456353161790226 L-3.7907033248066804,15.798625778515222 L-18.350091758948924,6.996737525793654 L-28.092579244496356,5.184520626966091 L-50.00000000000004,-14.258581615536588 Z" stroke-width="4" stroke="#ff0000" fill="#ff0000" fill-opacity="0.5" />
</svg>