<?xml version="1.0" encoding="UTF-8"?>
<svg xmlns="http://www.w3.org/2000/svg" xmlns:xlink="http://www.w3.org/1999/xlink"
     width="101" height="101" viewBox="-50.5 -50.5 101 101">
<defs>
</defs>
<path d="M29.78325953472714,45.80136320122116 L29.78325953472714,45.80136320122116 L28.317930300364633,48.60431791553882 L25.50706995932924,50.00000000000001 L20.025190300900487,46.86084292788111 L19.550683213445968,44.61757487519661 L8.711943236944153,39.127784122811654 L-1.0927451386682256,33.14837483605118 L-5.30974639121253,29.778385491698813 L-7.574626437268561,25.261905321645834 L-6.676758277535555,23.686531512888735 L-11.307235835341993,16.511748821946803 L-16.697719669538163,6.424672116045415 L-21.863166504198492,-4.461386808756549 L-24.099086588481462,-6.952998698250543 L-25.81939688706372,-10.979576037531503 L-30.066916264323407,-14.547894921864968 L-33.9624001613928,-16.76121890986547 L-32.19293392241003,-19.201121658628917 L-34.84233577919351,-24.415729900928177 L-33.14053208257494,-28.244825122179115 L-28.782547153564266,-31.69759392305518 L-28.134427910908027,-29.4215497761986 L-29.694121679951103,-28.11966363362505 L-29.546216479677906,-26.116265198239336 L-27.286420965328364,-26.551637793269503 L-25.07804482807441,-25.960591052208304 L-22.783499546492482,-23.200012902682612 L-19.692366696426635,-25.448934079866515 L-18.657894118180838,-29.13760875020571 L-15.307685242338053,-33.89452166311205 L-8.733270933919101,-36.05048885312101 L-2.771805123567719,-41.775059223859905 L-1.0700014269491518,-45.32981935697622 L-1.8326811829134888,-49.48155818481125 L-0.3751263615472923,-50.00000000000001 L3.2607183841905214,-47.41063388802112 L5.0058936829888125,-44.83002629194944 L7.536629130430332,-43.4213485818257 L10.757444875202149,-37.689151413527156 L14.828377919573668,-37.00430326333993 L17.840968422871274,-38.44999417739111 L19.81527021552406,-37.504096328366714 L23.096542682456867,-37.97393439423273 L27.283173425722442,-35.413675859463545 L23.756952277022812,-29.849579870065615 L25.38967741653313,-29.7199024425981 L28.125532714041054,-26.81354038129614 L23.19881831109356,-27.070074141219862 L22.46580379065512,-26.24820606240197 L17.985057490745373,-25.196353133301663 L11.733150107950717,-21.47547096158336 L11.336343412551864,-18.92396547548299 L9.94108230544699,-17.02170548314806 L10.486078497515507,-14.065340059494492 L7.181351577872413,-12.48714515572609 L7.187288998768312,-10.177761789142833 L5.744845624323153,-9.178181126327653 L8.020179030188478,-4.254293285629856 L11.058192192018216,-0.9281019880519005 L9.902800702212135,1.4194208335679661 L13.53129747954846,1.736416782891039 L15.59868994033612,4.652663611209361 L20.42341301104331,4.7939261168337834 L24.90938052361936,1.5719841209528085 L24.54421273680663,9.876877791366901 L27.031445368347068,10.504653439959059 L30.115372398209622,9.562987233451622 L34.84233577919359,18.362868266344165 L33.666879524481494,20.213140288790466 L33.39819756084629,24.05636285405152 L33.290695252304914,28.708736701626012 L31.154929508161832,31.439928444783888 L32.13459302150761,33.4670656292764 L30.880315590869113,35.30490515161471 L33.23193337404606,39.900496261229016 L29.78325953472714,45.80136320122116 Z" stroke-width="4" stroke="#ff0000" fill="#ff0000" fill-opacity="0.5" />
</svg>