<?xml version="1.0" encoding="UTF-8"?>
<svg xmlns="http://www.w3.org/2000/svg" xmlns:xlink="http://www.w3.org/1999/xlink"
     width="101" height="101" viewBox="-50.5 -50.5 101 101">
<defs>
</defs>
<path d="M-40.533089112361885,8.365169281394682 L-40.533089112361885,8.365169281394682 L-44.65040558125611,1.9514658531771074 L-43.86763953265868,-1.5115466731087401 L-46.35296794273295,-6.884505143657328 L-49.999999999999986,-10.464579002588039 L-47.199588366791495,-13.145598924811669 L-49.54632957877909,-18.256942292499705 L-42.683626530754715,-21.206849705161947 L-27.0080453298766,-25.852067181191483 L-14.358159061379856,-29.250974213660594 L-4.333243098137553,-27.55411726122288 L-3.5759103165949386,-25.10433716556687 L6.111080697888061,-24.977421948648363 L18.482225591672513,-23.836751974920343 L36.95302529816539,-23.987543525089006 L42.104848944775576,-22.913058305162092 L44.51700146602895,-19.81858707754989 L44.95302328921856,-15.375037730532991 L47.739422518184746,-11.554111234382354 L47.681805922676666,-7.549958741254216 L41.65792858495311,-5.499607502010262 L44.756809450889556,-0.8455807940663714 L44.94835248780444,3.6262645692591606 L50.00000000000002,12.395789649202685 L48.92291319390909,15.213598762086933 L43.9382238800498,16.382554707389318 L34.81702261019453,24.737081592873846 L37.408252653191,29.250974213660523 L35.2156780220713,28.664934284837503 L25.669865747104726,24.80404983594436 L18.439133681852155,26.223722347474443 L13.696853939017407,25.19231899263369 L7.762264243809833,27.345186789366387 L2.696604327371974,23.78484078845136 L-1.4331676119598513,25.148192475188242 L-2.000002008946832,24.54165124381433 L-6.622890040796667,19.59563415671688 L-14.0908385494801,18.98884180698736 L-15.04386284317207,15.84375516362113 L-21.9325214844309,14.72047262483469 L-23.432129990914525,17.31429420926091 L-28.88866065020569,15.236440487712004 L-28.262130397726253,12.472872939636648 L-35.772126163870794,11.599011196362941 L-40.533089112361885,8.365169281394682 Z" stroke-width="4" stroke="#ff0000" fill="#ff0000" fill-opacity="0.5" />
</svg>