<?xml version="1.0" encoding="UTF-8"?>
<svg xmlns="http://www.w3.org/2000/svg" xmlns:xlink="http://www.w3.org/1999/xlink"
     width="101" height="101" viewBox="-50.5 -50.5 101 101">
<defs>
</defs>
<path d="M-19.789579581786754,-42.65190547940183 L-19.789579581786754,-42.65190547940183 L-13.121834919701579,-47.32130388445858 L-5.623231413766473,-49.99999999999999 L-1.0169692403807211,-41.00395060820998 L9.836398882804755,-41.02579839035685 L12.98225901289921,-43.3460181544229 L23.689381132630206,-42.70364925949069 L28.825502554114156,-33.48730292896267 L20.335572011318966,-28.512623571349895 L20.098664143177405,-14.176307375693703 L17.114705450001853,-11.487174304509326 L16.376419462717298,-2.802598213957631 L8.43771820219766,-1.2899562676858967 L15.798620043364835,9.725772665466081 L10.726130976443363,21.79835360699715 L17.06200617397377,27.261126015214384 L14.540470765499254,32.2567160339568 L7.730779831685722,39.14712799970589 L9.262862445334628,45.231358641725684 L1.8782202050641434,49.99999999999999 L-7.809093748851554,47.41628385579361 L-17.29130682444597,49.43882988497295 L-14.484427253684148,35.05977362096211 L-16.20977729594647,23.761089265370508 L-24.43193010179705,22.06613134394174 L-28.82550255411414,15.103083311895885 L-27.363189518944534,3.0741795597368133 L-20.037402153540818,-3.5964132152439374 L-18.73366469442505,-11.023795523869099 L-14.899388115100503,-22.073242438719653 L-15.306741758847515,-29.85860497592891 L-18.980550145161857,-36.45749880563011 L-19.789579581786754,-42.65190547940183 Z" stroke-width="4" stroke="#ff0000" fill="#ff0000" fill-opacity="0.5" />
</svg>