<?xml version="1.0" encoding="UTF-8"?>
<svg xmlns="http://www.w3.org/2000/svg" xmlns:xlink="http://www.w3.org/1999/xlink"
     width="101" height="101" viewBox="-50.5 -50.5 101 101">
<defs>
</defs>
<path d="M-20.281367582519383,47.0696029195828 L-20.281367582519383,47.0696029195828 L-24.55639762980106,43.15592736816841 L-28.00318816032154,45.074744039139496 L-32.60775726359383,50.0 L-41.975459333274316,37.91766177848879 L-33.290391805602084,31.62123907050091 L-37.59195563314664,24.078025284433913 L-33.68004823991831,21.209525148000544 L-25.982981876720814,19.812417809163026 L-25.075163834115283,14.756888516143398 L-18.9797521932006,20.235087467933592 L-8.909372652912607,20.71494278468259 L-5.409525969338541,15.324581368586376 L-3.9693782380109752,7.740106755687537 L-5.213226188270745,-1.1666193636820767 L-10.610067048558426,-7.912827291783973 L-5.671259010762275,-21.124642147598088 L-8.518529841490897,-23.3918430185814 L-17.006122618462037,-22.462213889190554 L-20.194705016458705,-28.356591648087694 L-19.365290530064165,-33.33254241526302 L-4.969163321235328,-32.88511854188778 L4.25410874332549,-29.875142935626265 L13.318223756197664,-27.179078148485132 L14.138797451661956,-33.33873667265026 L20.118662806986457,-43.95470138431956 L26.91733369958923,-50.0 L34.63857249631081,-48.08353326829553 L41.975459333274294,-47.446882246596694 L41.299304235457534,-40.55741928300843 L37.88258380157204,-34.457604357836885 L35.65309603357627,-27.340596546912547 L34.2312344801341,-17.2316027133357 L34.82839283318717,-10.766577566704052 L32.969123166933294,-6.808104872085733 L32.68498585017152,-2.62443726939795 L31.373936481369768,1.0145235372654735 L23.863154138676542,6.512765417654934 L18.63607927919375,12.388879813611029 L13.681939598803769,23.47083976334514 L14.06394161929523,32.85623482235828 L11.180703028820735,36.50699095524346 L4.5353029322679,42.077738728733046 L-2.176716801746354,49.227166575558996 L-6.4381947720924,47.20636710340554 L-7.169174181148833,43.97710565965762 L-13.383063828000882,43.8645025018868 L-17.284362272112926,48.231499589787305 L-20.281367582519383,47.0696029195828 Z" stroke-width="4" stroke="#ff0000" fill="#ff0000" fill-opacity="0.5" />
</svg>