<?xml version="1.0" encoding="UTF-8"?>
<svg xmlns="http://www.w3.org/2000/svg" xmlns:xlink="http://www.w3.org/1999/xlink"
     width="101" height="101" viewBox="-50.5 -50.5 101 101">
<defs>
</defs>
<path d="M-0.808587365523106,-29.06256413612536 L-0.808587365523106,-29.06256413612536 L13.849348888251095,-23.403427025510574 L15.738021687604514,-13.48515795321628 L29.766825409466765,-6.494996991241277 L37.3202173428174,-11.886822551085706 L43.25602551754623,-8.890960225917977 L37.68078718078715,-4.830158517433763 L42.08726531140602,-0.6363025447049091 L36.15145713667711,4.8220501472620105 L38.309943773144745,13.61010384728934 L50.00000000000004,23.995867377861494 L40.82772504396447,31.518173215478914 L36.780613729034705,39.174158888927245 L39.3891750611557,42.036365438709794 L35.43156860390954,45.43134243572085 L24.280851325935085,45.831227041823595 L16.08961697936029,47.236742032804564 L15.28801917328798,45.431583040176896 L18.165648468709072,42.56911182549258 L20.863546235394463,36.71087452742292 L17.446241144853754,36.84392879166773 L12.769852935338289,32.38360338376493 L8.813112654134267,31.251800022087522 L5.66564546115341,27.423903427145827 L1.1691090826017503,25.926020385453157 L-2.2481960079389567,22.53085090487733 L-6.56463995107068,23.862355965149973 L-9.891958975015344,31.850905117873417 L-15.647458170313742,33.58181357533655 L-13.669208331939796,31.518149155033363 L-22.841772013322686,26.525125481239048 L-30.747312628678277,23.93285307079865 L-34.26278433732361,20.600240748818788 L-40.64770478988128,16.47267130375621 L-34.98195105672271,15.40775598088545 L-31.47490050404226,4.090444177480564 L-43.07564435677889,-5.16320320562131 L-37.05042756614874,-15.748115044539444 L-45.773542123464274,-15.681467610189015 L-36.51036680389942,-24.73507644845688 L-44.154538798551236,-31.592183146187068 L-49.99999999999996,-40.91245390319382 L-31.564285059497852,-47.23674203280439 L-16.547030110925824,-46.17180264948808 L-3.5066776157734356,-36.71854980957352 L-0.808587365523106,-29.06256413612536 Z" stroke-width="4" stroke="#ff0000" fill="#ff0000" fill-opacity="0.5" />
</svg>