<?xml version="1.0" encoding="UTF-8"?>
<svg xmlns="http://www.w3.org/2000/svg" xmlns:xlink="http://www.w3.org/1999/xlink"
     width="101" height="101" viewBox="-50.5 -50.5 101 101">
<defs>
</defs>
<path d="M-23.524919493223265,-20.491803888670557 L-23.524919493223265,-20.491803888670557 L-18.93541395595381,-22.768425290529834 L-12.357709169049746,-21.59110371280007 L-5.542122551029612,-21.55155596468817 L-0.6065104310906807,-18.953821731721536 L3.0232286675247333,-20.58601683054356 L10.871096560185771,-21.607592572295097 L13.544917683807446,-24.092424363071313 L18.030046933183762,-24.09077654023332 L21.27082542422665,-23.054646801932037 L24.563249872346862,-19.90259559737888 L27.93642827064392,-15.419943397817075 L34.0691358423686,-9.098246493247007 L34.40920395167052,-4.4321118784532425 L33.28682397669402,0.1071297466998143 L35.19097363047584,4.958139452801557 L39.93484295876263,6.91694366922938 L44.930892967953234,5.206461038929927 L49.75278404984036,7.03094111627339 L50.0,9.772886425352397 L44.844642731278014,12.060500400208257 L41.61539900010109,11.064747636995437 L38.641057515289404,23.890252447521856 L32.390238254983224,22.773921577028048 L24.653901390666782,18.90931988398046 L12.138516838251093,21.380969092052755 L6.866685072670585,24.092424363071235 L-8.746096121652293,23.53316392297074 L-16.914800436428564,21.875135214494943 L-21.034038597964283,22.653609247624242 L-24.092419047513744,18.282753854284135 L-26.0394227261985,16.429697339595318 L-23.576002001201132,14.635430891320066 L-26.19874061684494,13.31170822777075 L-29.53620909957538,15.694087962484012 L-35.734840215934966,12.605483252751245 L-36.5693508566712,8.223093099545135 L-43.04596437024304,5.722601676250379 L-44.23811635351479,2.3398021188024876 L-50.0,-1.8371204731781892 L-41.476397170379904,-3.8423507691771666 L-35.0492183419479,-11.051841463283758 L-30.018011235175045,-18.26187434425954 L-23.524919493223265,-20.491803888670557 Z" stroke-width="4" stroke="#ff0000" fill="#ff0000" fill-opacity="0.5" />
</svg>