<?xml version="1.0" encoding="UTF-8"?>
<svg xmlns="http://www.w3.org/2000/svg" xmlns:xlink="http://www.w3.org/1999/xlink"
     width="101" height="101" viewBox="-50.5 -50.5 101 101">
<defs>
</defs>
<path d="M-11.268085500065801,37.58884467068418 L-11.268085500065801,37.58884467068418 L-11.884977234589417,35.56004631097468 L-13.318748124196839,34.12823887890282 L-13.685296645867819,32.2317385731882 L-16.14083562375648,30.528218093826926 L-18.674746508361622,26.541619618563416 L-20.01565013525752,22.667546752039513 L-23.304032651775863,19.39598911740587 L-25.424219738377143,18.615231876015212 L-28.57281643911242,14.084337299565089 L-29.12288405954402,10.78035646785493 L-28.92020104474006,7.962195883366432 L-31.646968148202344,2.6908353551478594 L-33.876238850187875,0.8356056907559961 L-36.44454114353955,-0.14759210458070093 L-38.007781377133,-2.8716541055302858 L-37.74785858332594,-3.9463689893893923 L-39.06886140333589,-6.410993118247732 L-40.45717801328811,-7.4724439669391876 L-42.313510636876714,-11.009082631278424 L-45.208564592261894,-14.842740600683943 L-47.63314940062489,-18.108032286087838 L-50.0,-18.085183915831287 L-49.261003075782384,-20.694637997144014 L-49.04972458585904,-22.358851292718104 L-48.461081918348405,-24.256093243409836 L-43.17018665159796,-23.499900614818937 L-41.11510268241105,-24.963028284770573 L-39.97737174616937,-26.674654563400985 L-36.34971042329245,-27.333068908374184 L-35.567474646082026,-28.925176246461557 L-33.99514450738444,-29.732594673952676 L-38.73350951204847,-34.486315532950606 L-29.212309328900215,-36.871959225880474 L-28.30625687358706,-37.5888446706842 L-22.57977829854568,-36.30039340938142 L-15.496179743935679,-32.972580101579695 L-2.091812035024857,-23.411454697163304 L6.747141327058636,-23.031760993686376 L10.983593339324493,-22.572958492650326 L12.167510691929568,-20.30782260023297 L15.529839015974026,-20.43114960248543 L17.39108741460325,-16.331298135908632 L19.72992665368882,-15.245406281913613 L20.544595136244688,-13.575663927952423 L23.78457580973725,-11.577330061918326 L24.072262748841496,-9.615603031293196 L23.598598823456307,-8.032214775821405 L24.20026306527669,-6.435196416827868 L25.567209840792092,-5.102888265051376 L26.200317927988433,-3.5439505231520934 L26.911303491916506,-2.3784601957476963 L28.348511620744798,-1.4351828675446394 L29.666324416526265,-1.7729878922178899 L30.5691868476109,0.04256376589823315 L30.750742488835975,1.1420904775494694 L32.571694843708514,5.958337713079707 L46.86295584602364,8.3554008370034 L47.82109459857583,7.35046238474135 L50.0,10.717953698818818 L46.83052789481268,20.22625591515352 L32.56825760448768,24.98034759664002 L18.86048103378463,26.802773733197867 L14.423314218384855,28.942129489976928 L11.01626850552784,33.93390887836037 L8.797561490331773,34.72634227400616 L7.608975577678438,33.141603844345255 L5.786549441120572,33.37941991287287 L1.1909178156102223,32.90391138331382 L0.319256769043607,32.42852646125097 L-5.167195064942207,32.53772892999693 L-6.456012394599063,32.967417111546666 L-8.408654274254516,31.73129460834085 L-9.668480891921286,34.06817514402531 L-9.180816040525766,36.072280529304415 L-11.268085500065801,37.58884467068418 Z" stroke-width="4" stroke="#ff0000" fill="#ff0000" fill-opacity="0.5" />
</svg>