<?xml version="1.0" encoding="UTF-8"?>
<svg xmlns="http://www.w3.org/2000/svg" xmlns:xlink="http://www.w3.org/1999/xlink"
     width="101" height="101" viewBox="-50.5 -50.5 101 101">
<defs>
</defs>
<path d="M-35.19907931339594,14.133468374298229 L-35.19907931339594,14.133468374298229 L-41.89663259459255,1.488693459175231 L-50.0,-4.293614052229388 L-42.85594100121741,-7.378420904237415 L-34.98756891182014,-18.780622964153498 L-31.128506983107712,-27.120674780385162 L-25.567357203274746,-32.32807288574053 L-17.49504315637249,-30.92602674226882 L-9.570443699221588,-34.4657360620443 L-0.5014825055252932,-34.64409797789363 L7.259047376510942,-29.869774038092963 L18.039743751323655,-25.567146066422996 L27.867027310064536,-13.61857055803793 L38.58478866175616,-2.4631062713491856 L39.329663233473184,7.640717839309933 L42.531975864134395,16.941328641980775 L48.61138540855955,21.502875359095068 L50.0,27.783303427693095 L49.252185753654615,32.8429707020008 L46.90762470392116,33.75906101919981 L38.05183052402218,32.474942928084836 L36.83318109824944,34.28110500582737 L33.252754848676595,34.64409797789363 L21.57904703869197,30.6847298032984 L13.74005545428205,30.517298279851826 L-16.273876329674916,29.835374972552195 L-20.628119140952336,31.66419365861833 L-26.006310718086162,31.141305124583724 L-34.60989380790831,33.78717470307661 L-37.274652013985694,21.337538962869804 L-22.491353133855547,21.68039272753732 L-18.588650842013752,19.405490597588752 L-15.67840544252334,19.272035865979422 L-9.65856897288743,15.521238418331606 L-2.6916050688435953,18.953105530746083 L4.365156962383868,19.239309653956443 L11.393399277327283,15.593837012744881 L8.112186429292553,10.899680111428303 L2.7570737341858584,13.634519510994076 L-2.2828766064265973,13.558558968248919 L-8.693381217005799,9.561007506077488 L-13.842440586089914,9.822865926150175 L-17.51014756192156,13.668512544127598 L-35.19907931339594,14.133468374298229 Z" stroke-width="4" stroke="#ff0000" fill="#ff0000" fill-opacity="0.5" />
</svg>