<?xml version="1.0" encoding="UTF-8"?>
<svg xmlns="http://www.w3.org/2000/svg" xmlns:xlink="http://www.w3.org/1999/xlink"
     width="101" height="101" viewBox="-50.5 -50.5 101 101">
<defs>
</defs>
<path d="M-15.249962355729936,-14.639059694566184 L-15.249962355729936,-14.639059694566184 L-14.256136016012196,-13.575615670935283 L-7.015438993828035,-15.965969579907481 L1.8661431398051644,-9.723642626874405 L12.271213096507589,-13.498248991089449 L20.585815286831792,-11.689897510723082 L33.26340158026684,-14.178998283773446 L50.00000000000003,-7.4097396073195725 L45.11644187240401,-2.824693936674823 L41.67810670895744,4.274936136826205 L37.92033679954145,6.076454411688303 L19.059597703831628,0.7246632048614559 L13.287793306100369,1.7990262682157327 L9.157789810246491,5.942678563723613 L0.8877971805983049,8.141914054829446 L-1.016113508701307,7.016125836649419 L-9.59282548644755,9.750042047108664 L-16.590521040725363,10.271531862022183 L-18.008446405566563,13.808138382978267 L-32.7910650554625,15.965969579907606 L-39.28366696576614,14.045680331023053 L-48.24442974874758,9.536627654581496 L-49.999999999999964,3.4340115759432575 L-48.585720185517985,1.1979155200942109 L-46.09024410217752,-2.6763534986275963 L-38.288026656545995,-2.377841041676327 L-32.27413658133666,-4.199841321696884 L-31.798154506173162,-5.83801428456952 L-28.426266982849118,-6.674377504664714 L-27.2722829862869,-10.681524192277214 L-23.230547598647764,-11.447371549385315 L-20.50119272897621,-14.617661898979502 L-15.249962355729936,-14.639059694566184 Z" stroke-width="4" stroke="#ff0000" fill="#ff0000" fill-opacity="0.5" />
</svg>