<?xml version="1.0" encoding="UTF-8"?>
<svg xmlns="http://www.w3.org/2000/svg" xmlns:xlink="http://www.w3.org/1999/xlink"
     width="101" height="101" viewBox="-50.5 -50.5 101 101">
<defs>
</defs>
<path d="M26.781364600970637,-46.74829605431617 L26.781364600970637,-46.74829605431617 L30.648918250730024,-47.482690625617806 L34.10123658710416,-49.9800115116185 L36.86738075662988,-50.0 L37.032759965246264,-47.98298644065572 L36.35913331665191,-43.739882651524056 L36.38670867653589,-39.90552156458799 L34.84650081084688,-37.270688632605015 L32.79082338711499,-29.384865212662206 L29.278466634908767,-21.23620046557129 L24.768509230815205,-11.919887013975163 L18.50824598096419,-1.2285990039313093 L12.280008082936112,6.939762428791011 L3.7007883780800235,16.891038664593896 L-3.599897577234784,22.7966156717044 L-14.512153219788045,30.040108288000564 L-21.31247040937742,35.58895643311991 L-29.29619365197712,44.425910916997445 L-30.978582407649963,48.27267362081255 L-32.625954833311376,50.00000000000001 L-36.94558389365544,43.98186008204035 L-37.03275996524631,17.407310680199508 L-30.65662913840136,9.131843048054808 L-28.661230867770346,6.8323060660685195 L-23.984654093372566,6.697639096899674 L-17.483288821255524,1.5549074292250664 L-7.979783905473465,1.2334137493078827 L12.634767276364151,-20.66185970269677 L17.721735438495603,-26.75051375521689 L21.01468570290537,-31.230583262631956 L21.015437094986837,-35.036792679252606 L21.017319222724964,-42.39625500350528 L21.042954094320834,-45.40137833029008 L21.08818352058556,-45.52065999946017 L23.419359215750905,-45.66446768977574 L26.781364600970637,-46.74829605431617 Z" stroke-width="4" stroke="#ff0000" fill="#ff0000" fill-opacity="0.5" />
</svg>