<?xml version="1.0" encoding="UTF-8"?>
<svg xmlns="http://www.w3.org/2000/svg" xmlns:xlink="http://www.w3.org/1999/xlink"
     width="101" height="101" viewBox="-50.5 -50.5 101 101">
<defs>
</defs>
<path d="M42.05879500105032,4.865881357535086 L42.05879500105032,4.865881357535086 L40.87324265249018,5.74298020951349 L38.3024551258063,8.82441541453415 L36.61032543060136,11.941276457231817 L33.17027641191829,16.287571785091572 L26.31463069504462,22.546370995993172 L22.033218031532996,26.185478039226 L17.452438841446494,28.945605749370817 L11.1124513751564,31.299155245423098 L8.020042652951199,31.615136732511196 L7.2373014901963515,33.299113632195954 L3.5505515481424577,32.40257909803994 L0.5477932463188123,33.557103508292265 L-6.0266720161299245,32.38816005417726 L-9.701823635985455,33.127959520884964 L-12.213369941649889,32.810412988228244 L-18.469657800360004,35.205029765286234 L-23.648539172514297,36.16550672323557 L-27.396107513292424,38.4582499526998 L-30.155294982882463,38.604011502963615 L-32.72201217787435,36.44105180039988 L-34.77211874959167,36.330085216731185 L-37.38460442836316,33.62199223870849 L-37.671116956643935,34.463040447996114 L-38.47737019933645,32.83266939207019 L-38.44351547329616,29.276006280321596 L-40.41432033680265,25.210891406886795 L-38.45667884106312,24.105896442633203 L-38.61529438962101,19.45020131156883 L-42.587622685468965,13.772895388289921 L-45.63583403553125,8.634450426059374 L-45.64492100553814,8.61815090108711 L-49.99999999999999,0.7368179942388083 L-47.09411073959139,-2.2631135198523955 L-44.69854765591054,-0.6023393306324442 L-43.676002689209305,1.9913354709752842 L-40.954430907878695,2.4333334566767073 L-37.14040879111574,3.5803298764226636 L-33.88154716037342,3.137391650166439 L-28.466932315964748,0.03558052241341641 L-28.460660001554125,-22.36831976525772 L-26.823076390662795,-21.457366187239028 L-23.22660774007238,-15.693546000783863 L-23.785529188312164,-11.997387587114048 L-22.43195281957821,-9.867651739508727 L-18.086907101746093,-10.486445279849862 L-15.05343023108746,-13.193598017317772 L-12.18076482563724,-15.018319828951435 L-10.696161386043183,-17.92389971988718 L-7.7369756513486045,-19.32982625628423 L-5.180291732986484,-18.593169012849927 L-2.2825492020299794,-16.89414219822055 L2.65464788506839,-16.594150866631853 L6.533868101720439,-18.00665908691238 L7.147651069814795,-19.899096416694714 L8.214084039186076,-22.80154015042514 L11.514637755947875,-23.28710463718757 L13.33842539309486,-25.56573819226196 L15.358444267059118,-29.60797185684104 L20.804717920857584,-34.136710248737316 L29.3879131045451,-38.604011502963615 L31.855886843080462,-38.537873162519745 L34.790929626755435,-37.510305491435524 L36.8350853856712,-38.238506635944866 L40.059467485359384,-37.63224559228877 L42.96504737629511,-29.094503456839906 L44.54338370009893,-24.784877510616692 L43.462525620796846,-18.02201837132988 L43.98038585409905,-15.844008753821551 L40.91932657181075,-16.95495453087668 L39.16575973893584,-16.52268045233214 L38.59304405184717,-14.756259621163126 L36.93665562986016,-12.478881742184457 L36.99339156475621,-10.381435575050824 L40.61368773082525,-7.093420421042145 L44.164078528163195,-7.748264604074109 L45.39916032272211,-10.442247907706955 L49.99999999999999,-10.391462785612486 L48.48436255602997,-5.975571458494474 L47.76776579978712,-0.9355605832476072 L46.19820707651732,1.8026261585962486 L42.05879500105032,4.865881357535086 Z" stroke-width="4" stroke="#ff0000" fill="#ff0000" fill-opacity="0.5" />
</svg>