<?xml version="1.0" encoding="UTF-8"?>
<svg xmlns="http://www.w3.org/2000/svg" xmlns:xlink="http://www.w3.org/1999/xlink"
     width="101" height="101" viewBox="-50.5 -50.5 101 101">
<defs>
</defs>
<path d="M38.3041727970673,-13.896172535565826 L38.3041727970673,-13.896172535565826 L38.405714928200624,-7.063089062886275 L37.09575395799168,-4.38673048446911 L32.44498939490725,-4.171324807136121 L29.45998199811465,0.8204257162830259 L34.841706184728146,1.4481518622294054 L39.28311185312243,5.719371271315018 L40.81864410626672,9.223700899139057 L44.82091313954477,11.255507501647312 L50.0,20.792072440105525 L44.06003508711356,26.566110131892607 L38.668793790427486,31.799977337710278 L33.27927013055005,35.830157969129345 L27.11347979458816,35.809826757924604 L20.059162948260504,37.860912957264944 L14.486570753009364,35.901141939283825 L10.878569474947367,38.291198504744585 L3.163575898996637,32.467621012552165 L1.082299603707885,28.724706373931117 L-3.798216409443243,30.578509716960628 L-7.8504371254226415,30.001786868088217 L-10.196273306513083,31.4733634404686 L-14.131212729581646,30.41072464380288 L-19.439683211686383,23.176222438173184 L-20.848995449752262,20.39812893265436 L-27.39967664610732,16.92986967781253 L-29.612369684166026,11.67279684817151 L-33.26471403494181,7.880736764534869 L-39.15828522708782,3.317002054241039 L-39.23890023220523,0.4687132893472274 L-44.0374429050076,-3.0724578953323034 L-50.0,-6.494954398057256 L-47.308848712740755,-7.449872829150258 L-44.299943379329505,-9.104780840497536 L-42.04325780668121,-16.92794171812932 L-39.63613003457094,-20.98996873813374 L-33.31742620537136,-22.193532624188876 L-31.812969156939175,-19.78640485207862 L-27.29960677509571,-14.671256145481044 L-24.89247900298544,-13.919027621264952 L-21.733122706659092,-15.423484669697135 L-15.414410114006394,-15.122591507320072 L-14.210846227951258,-13.317250059963941 L-5.485014626641404,-13.317250059963941 L-5.184121464264357,-15.122591507320072 L-0.6707590824208912,-16.77749951866735 L0.2319116412571978,-19.335069490239572 L3.5417101370454964,-21.14041093759572 L10.913544416291378,-16.025270994451244 L15.426906798134812,-16.92794171812932 L19.7898269805163,-23.24665431078203 L24.604082524736842,-28.060901091549443 L23.851854000520703,-33.32649199760898 L21.74561939078754,-35.884070732634335 L27.011210296847114,-36.33540609447337 L27.612987858148124,-38.29119850474459 L31.67501487815253,-37.68941217999047 L30.621893191559344,-31.22025738787579 L31.67501487815253,-24.901553558676195 L36.18837725999597,-21.441304099972783 L37.241498946589154,-18.432398766561516 L37.091047983674024,-14.069478584180032 L38.3041727970673,-13.896172535565826 Z" stroke-width="4" stroke="#ff0000" fill="#ff0000" fill-opacity="0.5" />
</svg>