<?xml version="1.0" encoding="UTF-8"?>
<svg xmlns="http://www.w3.org/2000/svg" xmlns:xlink="http://www.w3.org/1999/xlink"
     width="101" height="101" viewBox="-50.5 -50.5 101 101">
<defs>
</defs>
<path d="M-47.11988898655509,-16.352291051873646 L-47.11988898655509,-16.352291051873646 L-46.71461623401108,-22.080918132410513 L-50.00000000000001,-25.570599261540536 L-38.620880591694196,-31.3757121732561 L-28.778041319240227,-29.924427912687268 L-17.978763176894375,-29.975351437473556 L-9.420112081624353,-28.601590622156625 L-2.741488990673376,-29.023489330431634 L10.25829512125124,-28.757256863696416 L13.464281301840488,-25.630032830431006 L28.27093760416359,-21.974510407027847 L31.195111019879725,-23.71342289739173 L40.245695751605815,-20.07494469275682 L49.56979233561941,-21.11762618352349 L50.00000000000001,-16.445185663744812 L42.377622670114015,-11.087952029734005 L32.07132382181738,-9.387897784235484 L31.353890103639152,-6.6819450646891765 L26.410029046759234,-2.2227463022329905 L23.310032328515376,4.324325019980103 L26.447021194996807,8.920907103135933 L21.79452860468738,12.50950744057769 L20.054996763287576,17.73789192855298 L13.982195507726287,19.340885018847587 L8.286812295131549,25.52570837671474 L-1.9230527925170786,25.648323794791132 L-9.5894925246743,25.495987570509513 L-14.627293851018562,28.336403813014545 L-17.699443903204923,31.375712173256158 L-21.63491299485343,30.708365453789654 L-24.613122777575438,27.990781804399617 L-26.893436552071172,23.36385956400264 L-34.402343946060796,22.118119412166692 L-35.07300459574556,19.454781261301132 L-32.092100233841215,16.438541716268382 L-30.988312122034998,14.251749948199743 L-33.761806278578625,11.86045168547137 L-31.54135237953059,6.575746470825183 L-34.76354625281362,1.7536723494671516 L-31.288423894788185,1.0915217438866192 L-30.965243306826178,-2.7101031758390874 L-29.65903197202657,-3.887256233084466 L-29.55532686934621,-10.162898974676425 L-25.83890695642214,-12.340537217045075 L-28.08721556504762,-16.37494160404517 L-32.77419876889101,-16.656135017882345 L-34.15128155794616,-15.640471710618575 L-38.90228313705,-15.63090796540128 L-40.918648804475545,-19.568878591753364 L-44.20112081624354,-18.396294253838054 L-47.11988898655509,-16.352291051873646 Z" stroke-width="4" stroke="#ff0000" fill="#ff0000" fill-opacity="0.5" />
</svg>