<?xml version="1.0" encoding="UTF-8"?>
<svg xmlns="http://www.w3.org/2000/svg" xmlns:xlink="http://www.w3.org/1999/xlink"
     width="101" height="101" viewBox="-50.5 -50.5 101 101">
<defs>
</defs>
<path d="M23.006608277161593,35.485222129412 L23.006608277161593,35.485222129412 L22.16627775403562,35.36517317741215 L22.270495007673055,32.342982089784186 L21.54099851395715,30.258715932710434 L18.414596243128283,27.861804085160944 L17.685099749412377,23.484843334175107 L18.414596243128283,19.003665329551865 L15.60083359233865,18.586808455875214 L15.183982789098495,19.94158418966958 L11.536512461392038,20.254223809708815 L12.995499378387292,22.02585641717983 L13.516567435264884,25.673326744886268 L10.181736727597661,29.008151382116985 L7.159545639969694,33.38511820353932 L4.033143369140827,34.0103974436178 L-1.0733199459974017,30.46714436954876 L-3.366014539909462,31.71770284970572 L-3.991293779987953,33.48932938674023 L-7.117696050816841,34.635682754132766 L-7.3261244876551554,35.88624123428971 L-13.370500592474594,35.88624123428971 L-14.2042082693914,34.635682754132766 L-18.581175090813723,34.42725431729444 L-20.769658501524884,35.46939043104956 L-22.437073855358495,34.948322374172 L-25.563476126187382,31.405063229666474 L-26.605612239942502,29.73764787583287 L-30.98257299092833,30.57135555274968 L-32.649988344761944,33.38511820353932 L-34.21319251539463,38.80421506828028 L-36.29745867246838,39.950568435672814 L-38.16161687289962,40.61203961809671 L-38.65433599137512,40.329224052526286 L-40.759563365644254,38.58113866819481 L-41.14949178305717,36.69455627537444 L-40.163221896307235,34.16834413061638 L-40.18110540220285,31.691381437090865 L-43.68229035140542,27.896095980885416 L-44.37055037005381,25.298361953417903 L-44.297371258182956,23.828011179315844 L-46.528438780862096,22.038750024281747 L-46.59563851279162,18.512554876745867 L-47.86806270518076,16.170519775053908 L-50.0,16.521815934652974 L-49.38822141067231,14.292266021095983 L-47.8160390644729,11.761743866430976 L-48.50375881427379,9.247611890285368 L-46.50822422735485,7.385809019211719 L-47.77397093960645,5.9675122379999666 L-46.1687047145438,2.219199819343809 L-43.396700596359686,-2.251251724003967 L-38.16216321218361,-1.8270496221760293 L-38.461010800520604,-25.924436420676386 L-38.386101614250464,-28.471166640766143 L-31.4050996522854,-28.489620767691676 L-31.4050996522854,-40.61203961809671 L-7.001944967850966,-40.61203961809671 L16.551348608170322,-40.61203961809671 L40.62809592260925,-40.61203961809671 L42.58575098583892,-34.65603085724277 L41.25444355950974,-33.554792973834004 L42.136417276947896,-27.30540001748287 L44.36481380757201,-20.058088006760048 L46.677467996658855,-18.56336443015599 L50.0,-16.32001641446027 L46.92781279745142,-12.855211591134253 L42.456754210454775,-11.857231832397677 L40.54493094271453,-9.996096709337788 L39.94614308747257,-5.961138279686861 L37.3317882048991,2.9585789836632426 L37.97701489927933,5.389060344995049 L37.010055070999854,10.602229792731018 L34.54187629907343,16.58191325589076 L30.88055323529983,19.58932890110531 L28.277185842770834,24.22653533479672 L27.667228384389762,26.708069066998195 L24.79166261970901,28.408276918743578 L22.99584539326719,34.76104940849668 L23.006608277161593,35.485222129412 Z" stroke-width="4" stroke="#ff0000" fill="#ff0000" fill-opacity="0.5" />
</svg>