<?xml version="1.0" encoding="UTF-8"?>
<svg xmlns="http://www.w3.org/2000/svg" xmlns:xlink="http://www.w3.org/1999/xlink"
     width="101" height="101" viewBox="-50.5 -50.5 101 101">
<defs>
</defs>
<path d="M34.324970479122214,-25.390130313848974 L34.324970479122214,-25.390130313848974 L27.270110029386274,-20.313659781250823 L28.405938080004294,-15.857938915246917 L16.832189725206646,-10.008083227412271 L2.782238144539155,-3.7499190585914 L-2.516051863616836,6.495873625178341 L2.662677680033696,11.62216041168437 L9.620917733698752,15.657728067424763 L2.9382713534349323,23.865718021231746 L-4.628677195476607,25.56777215048044 L-7.404149002037905,37.781441462809546 L-11.536155163043292,44.59737014997264 L-20.36226100457565,43.89466776189185 L-24.479977823872957,49.66500078940611 L-32.90377758101235,50.00000000000003 L-35.21604626138,43.122031996775455 L-41.30690726697425,34.86610290217695 L-46.84055670227605,24.57594341304273 L-43.6327086232976,20.383403991848407 L-37.57869869496985,15.395667069979215 L-35.17205778889172,6.842150065735361 L-39.82179066405425,3.1549324057387342 L-40.26920566829957,-6.506787073529719 L-35.54465746687223,-13.330609821667004 L-28.32736852750663,-13.206160132300116 L-25.795528541941483,-16.089544116159804 L-28.4454229361396,-18.57495101680603 L-17.14839597773948,-28.81059419360892 L-9.870573778184891,-36.876280056546264 L-5.067441472995418,-42.05275415420411 L1.9193699884535786,-42.028126139091206 L3.845127982008806,-46.07948191677987 L17.55745384884583,-44.913947459749416 L18.624854578300727,-49.70091331011439 L23.138103868380913,-49.99999999999998 L32.83609964996934,-46.43929830892477 L44.19291047843831,-41.48577868545331 L44.3850380988482,-30.28161062125896 L46.84055670227605,-27.45048750373789 L34.324970479122214,-25.390130313848974 Z" stroke-width="4" stroke="#ff0000" fill="#ff0000" fill-opacity="0.5" />
</svg>