<?xml version="1.0" encoding="UTF-8"?>
<svg xmlns="http://www.w3.org/2000/svg" xmlns:xlink="http://www.w3.org/1999/xlink"
     width="101" height="101" viewBox="-50.5 -50.5 101 101">
<defs>
</defs>
<path d="M-2.6123467088861076,-18.509078665315588 L-2.6123467088861076,-18.509078665315588 L-7.470261145785299,-14.414876949213996 L-21.90964132419852,-16.636445575104197 L-23.166284193413922,-8.987935708408614 L-8.781747734280557,-10.016288611159029 L7.609440018297158,-5.708191083265582 L32.69221635754399,-7.721701158245242 L36.054916419710814,4.555411658230553 L40.415111500969395,3.2195810385601735 L48.47188470030051,6.23984615102957 L48.00981243554147,11.398379523313416 L50.0,18.96051119546844 L36.318176885455145,18.93960318831196 L27.182332946216874,17.961981389220345 L18.915099959112545,23.901381069391523 L13.026776311652316,25.218346723213884 L8.404687214355649,28.005864324545378 L3.151882078839684,23.66142984766607 L4.388651728054662,12.515856786518928 L0.3753491411663381,11.88581733990186 L1.817776104429562,7.831043667752717 L-5.36351409472977,4.814546241852043 L-11.074968737488012,9.429776557613403 L-12.4776359942488,14.779241426722093 L-14.520624236678634,16.728647764024007 L-22.451246268464782,16.45304945141689 L-26.729852362405804,22.527157192924943 L-31.198368432517672,19.96417513799159 L-40.801776968344434,24.2256541778471 L-44.85551585333733,22.608746180242502 L-37.399303933173016,9.182634891802463 L-40.26497449780333,-0.6946473113708742 L-50.0,-3.859915290731378 L-46.56120328234488,-9.701607183651609 L-35.48384657449635,-9.077749926967906 L-29.17937929221091,-16.410211916449647 L-24.962462432583088,-24.92287519060644 L-7.223464409026411,-28.005864324545378 L-9.989025949543203,-21.853948548790644 L-8.088639337141991,-18.166285520064136 L-2.6123467088861076,-18.509078665315588 Z" stroke-width="4" stroke="#ff0000" fill="#ff0000" fill-opacity="0.5" />
</svg>