<?xml version="1.0" encoding="UTF-8"?>
<svg xmlns="http://www.w3.org/2000/svg" xmlns:xlink="http://www.w3.org/1999/xlink"
     width="101" height="101" viewBox="-50.5 -50.5 101 101">
<defs>
</defs>
<path d="M7.486280143518454,5.89429941983365 L7.486280143518454,5.89429941983365 L1.3899499037990384,2.776477397903885 L-4.4182867770176095,2.903154090058002 L-3.4224130894676534,-2.4317103641837767 L-9.40259869543717,-2.391877318020488 L-9.939482425722511,5.076683027686348 L-13.605073342103926,14.99511152234351 L-15.812996139060076,20.99319687425347 L-15.34698480952594,25.90819820586962 L-10.923432003306193,26.121372228747884 L-8.167747102393752,32.31911851764028 L-6.947990780680204,38.19683554764598 L-3.1585276467551155,42.08577943954782 L0.9548217474579824,42.87515416122238 L4.473031751134343,46.39932621988194 L2.2531848442118236,49.189051874360075 L-2.2289699375260894,49.99999999999999 L-2.7634022989630043,46.51319603766443 L-8.303903326161187,43.539244242304974 L-9.48435626035464,44.75023403442482 L-12.1670501259433,42.14455796794695 L-13.32855757790086,38.78162622315496 L-16.936952151317215,34.94812672639858 L-20.2267230983998,31.72731326035723 L-21.34120636953899,35.71871893772749 L-22.629044198384058,31.946632681595165 L-21.887922737199766,27.70993393798621 L-19.888794093572752,21.197597577042586 L-16.598323725461317,14.219779545207922 L-12.869221305369477,7.889564271563862 L-15.52384326287107,1.6967343013592013 L-15.417517685505787,-1.4577631863612084 L-16.193379321284493,-5.24827884707709 L-20.722205178078696,-10.643497224656613 L-22.343402008329715,-14.050119017013316 L-19.99863035707279,-15.304961828588057 L-17.513499165380235,-21.208122844951397 L-20.294797815035814,-25.68993131142257 L-24.604304250592104,-30.647739926198167 L-27.88565498334767,-36.60634533770694 L-25.020833239964038,-37.83978450770197 L-21.92476796537603,-45.18114529310698 L-17.131004139078556,-45.48521009724938 L-13.167846922676524,-48.42968435196875 L-9.279072793160266,-50.0 L-6.339514857128682,-47.904371625887705 L-5.949652143290813,-43.82400366795401 L-1.3611717841877151,-43.513277387799626 L-3.0322040603631137,-36.358424349738755 L-2.8718329299099445,-30.271213745375157 L4.285648029880343,-34.32245726843086 L6.318810636577708,-33.12515711508789 L10.296010597518778,-33.32149070931205 L11.66420035872831,-35.684155316014035 L16.799750191254358,-35.217797671213155 L21.963718247134146,-29.7032702890157 L22.3872686087755,-23.00109204747425 L27.88565498334767,-17.082842550276485 L27.58211304735296,-11.335489451440687 L25.371392566281713,-8.27486377247602 L19.00626056516209,-9.249510371327377 L10.226177142567682,-7.952376354245476 L5.878066740520137,-2.3062559612061686 L7.486280143518454,5.89429941983365 Z" stroke-width="4" stroke="#ff0000" fill="#ff0000" fill-opacity="0.5" />
</svg>