<?xml version="1.0" encoding="UTF-8"?>
<svg xmlns="http://www.w3.org/2000/svg" xmlns:xlink="http://www.w3.org/1999/xlink"
     width="101" height="101" viewBox="-50.5 -50.5 101 101">
<defs>
</defs>
<path d="M-0.34781278869620424,49.99999999999997 L-0.34781278869620424,49.99999999999997 L-6.40447952825429,24.509736542941557 L-15.158550206618802,18.778866068824485 L-15.28109299648788,15.341817705743392 L-26.89398898506455,6.881991719344892 L-28.14582819188469,-3.8140342875577566 L-19.391771713148206,-11.734160811923394 L-16.049363870864052,-23.445020034255137 L-18.300629696704465,-36.98153963158781 L-15.416117259392284,-44.269498716211615 L0.047703650355177867,-50.00000000000002 L9.987556865960322,-48.29615823383888 L9.570769384125205,-41.11165763901648 L21.615135269916458,-46.3380437286065 L22.625566600657315,-43.61019578731117 L15.525454395196645,-36.65243485281654 L15.430061294114331,-30.08431171137036 L20.346426905000794,-26.556272131895266 L18.476733483489664,-14.26682066636578 L9.129771536504812,-7.128184870069148 L11.828638036997964,0.6110525928662943 L19.172359060882023,0.8524746685735701 L22.745908448182288,7.6029352335086235 L28.14582819188468,9.823004476574685 L27.343066421032013,20.729639366367117 L20.42127314432869,24.8061821772517 L16.049363870864028,29.35565779918831 L6.298820096108749,34.82749865884515 L7.808950536731738,40.709538372932776 L6.579859134010122,46.708966411915846 L-0.34781278869620424,49.99999999999997 Z" stroke-width="4" stroke="#ff0000" fill="#ff0000" fill-opacity="0.5" />
</svg>