<?xml version="1.0" encoding="UTF-8"?>
<svg xmlns="http://www.w3.org/2000/svg" xmlns:xlink="http://www.w3.org/1999/xlink"
     width="101" height="101" viewBox="-50.5 -50.5 101 101">
<defs>
</defs>
<path d="M12.009037510796668,23.932709280822866 L12.009037510796668,23.932709280822866 L11.38423021299961,17.94051634577519 L6.076273401079056,17.68569727756732 L-2.061730214779697,11.3796267220367 L-7.74832682863262,10.601191709586258 L-15.621756105411054,6.991599074032491 L-20.685012272415577,6.3353256871946915 L-23.810907247311786,7.661665132169629 L-28.573167023766533,7.455237903998114 L-33.637890041719814,11.526076835931265 L-39.894835331739706,12.903941200638831 L-41.21989306229343,7.86809948097685 L-40.18442446394072,0.4202207539471209 L-45.73781534625159,-1.9899791294168783 L-43.90937851803906,-6.865563822613592 L-48.63630570028247,-7.281003069706064 L-47.06066567974657,-13.282944154990638 L-40.34670375093724,-11.534906424166337 L-34.089758460917295,-13.81337454757264 L-39.27738365059325,-18.08715159619735 L-41.31814359331484,-22.160012788661703 L-47.049991846872146,-20.34372376490797 L-47.77673104433377,-15.126106457775736 L-50.0,-19.739886739169016 L-46.85386817852001,-22.109050399147268 L-38.77105660976568,-23.59067666688745 L-33.95802670095965,-21.59591603061592 L-28.974251069341474,-16.012540151484437 L-25.321792207033916,-16.359906121539318 L-17.288291040317763,-16.457230969923202 L-18.457328522631865,-20.044009088779408 L-12.37406265732154,-22.497260335424695 L-6.3750623945700875,-26.634335420391686 L3.2193604387450967,-22.871300206712082 L3.9806916843080344,-17.189488660031685 L6.7051323405743135,-15.73104718204406 L14.404148767168756,-16.058902610353886 L16.793371257838945,-14.766414667370224 L20.293491240550036,-7.425245786541887 L28.43775389516573,-2.507528292065711 L33.08188944643463,0.8452230147489418 L40.52847933840749,4.332283751635026 L50.0,7.379987026201756 L49.80387633164791,11.737111115383469 L47.65898421283862,11.51632868569437 L44.29979585137528,9.612455843157994 L43.18411329216185,12.147024749193378 L37.18253535929661,13.524148567790908 L35.76107134236093,19.218841344404474 L31.748002127645933,21.38434058285249 L26.127271393771856,22.458068356678304 L24.639941496857322,25.684606396182165 L19.2709038721305,26.634335420391636 L12.009037510796668,23.932709280822866 Z" stroke-width="4" stroke="#ff0000" fill="#ff0000" fill-opacity="0.5" />
</svg>