<?xml version="1.0" encoding="UTF-8"?>
<svg xmlns="http://www.w3.org/2000/svg" xmlns:xlink="http://www.w3.org/1999/xlink"
     width="101" height="101" viewBox="-50.5 -50.5 101 101">
<defs>
</defs>
<path d="M7.682563232268566,-12.911193320376366 L7.682563232268566,-12.911193320376366 L15.3855230611487,-10.834364976382941 L21.640848070995304,-11.662240736758259 L26.26317811568952,-11.183859061853184 L32.60285487916823,-13.986722478757018 L38.32402371127847,-14.24187190121142 L43.496049686399296,-11.605215106637113 L44.40841681117721,-9.71541149871892 L43.89173882798367,-7.102343554721087 L47.884461885051444,-5.767643109765481 L49.99999999999999,-4.199722872620468 L46.32305502731673,-2.6700882044739354 L47.99934007062692,3.4881160358810526 L46.948785131238125,5.151078989894606 L49.88567488786168,9.45291103223103 L47.31228862056773,10.36001053524354 L45.42650687677013,8.99228677340985 L39.180895554766195,8.299409258503047 L36.87444508074735,9.13380376793363 L30.766463130272136,9.96889633121691 L27.873137303702556,9.878020458884501 L21.694399540787938,11.89282940288743 L17.27685164825281,11.909620282867538 L14.419319875392004,10.89860740941209 L8.507523275397538,12.392303043434268 L6.750215658368143,11.34799300120468 L6.459691014516562,14.34329375636473 L5.021490661784569,15.519686326816487 L3.583569530593679,16.696078897268244 L1.6092691886278467,14.261159666126238 L3.6429524348789672,12.244261930210179 L0.36808111170981883,12.701557009118462 L-4.122998699740454,11.46606075592252 L-7.815478055468961,14.556678079847165 L-15.965186980436515,15.160204701607475 L-20.312252912428352,12.27825715283702 L-26.10056915552398,12.097890776587622 L-27.33842805252909,14.32567058140636 L-31.049497119319696,14.962639352356387 L-36.24233583854122,12.103442989539136 L-42.104463222093095,12.200144926719117 L-45.285542955683525,6.859823537355708 L-49.20833712564512,3.8808948298641686 L-46.596101476625535,-0.2946861187427038 L-50.000000000000014,-2.860581731232598 L-44.04380180532836,-7.996120968436958 L-35.77477399835314,-8.210890660334778 L-33.5193834788373,-12.291713483259182 L-23.28521594430175,-11.580938941497992 L-16.83066099524759,-15.063916227094081 L-10.573392173903473,-16.581893395900426 L-1.6897386889098895,-16.696078897268205 L7.682563232268566,-12.911193320376366 Z" stroke-width="4" stroke="#ff0000" fill="#ff0000" fill-opacity="0.5" />
</svg>