<?xml version="1.0" encoding="UTF-8"?>
<svg xmlns="http://www.w3.org/2000/svg" xmlns:xlink="http://www.w3.org/1999/xlink"
     width="101" height="101" viewBox="-50.5 -50.5 101 101">
<defs>
</defs>
<path d="M3.9054872523927235,-20.8578118775243 L3.9054872523927235,-20.8578118775243 L5.980565019045939,-20.63324620074673 L7.384529780500679,-21.897073444273737 L9.072220501699864,-21.617943159338015 L14.834535423678123,-22.154809112506285 L18.38565836042437,-19.008450095611675 L16.997770125235192,-17.88332109579778 L17.458104478082188,-16.158303714755593 L21.889107422703866,-15.889226121148742 L23.86597556312436,-13.479597676733551 L23.744787562848064,-12.386204951203295 L30.802521519511235,-10.432315184826416 L35.06639638689933,-11.312339675827628 L38.49604235711768,-8.710026312044286 L41.743339508505066,-8.770042379679301 L49.93481032505311,-6.961741590706973 L50.0,-5.33005475188048 L47.74314578997564,-2.420320195723474 L48.971074533787665,0.6439057212039326 L48.096651542432376,2.4970018362138533 L42.71913964077379,2.904494264325546 L39.85463386003172,4.45606520990261 L39.67917577489215,6.924559413989793 L35.24242684749876,7.368950609610434 L31.545425967096406,9.166770814919841 L26.34308874136912,9.459827050364225 L21.5565683946163,11.531309410002597 L21.88135534730104,14.987668087361861 L24.599977627343645,16.328171414335884 L30.268100665394787,15.994765487493567 L29.182893464644774,17.977374053642478 L23.099520366035744,18.939965093988228 L15.5559007714343,22.154809112506285 L12.465684562994955,21.024517619467122 L13.691029281672659,18.413296315274646 L7.618570216103966,16.786777526716744 L8.60011077410111,15.721381185329589 L13.920190633258953,13.874314462299683 L12.310898678929632,12.601590392450072 L3.6728805339607296,11.19704769849218 L3.290372572523712,9.124842923224834 L-1.8585503530084058,9.809165020346287 L-3.9209914031984563,12.869373194968164 L-8.223921170895704,16.976595011742305 L-10.744395958006765,16.022911911805732 L-13.355906228450836,16.91700683644138 L-15.835597874786586,15.893110494415144 L-14.436806720643723,15.289482223046274 L-13.46589122943526,13.382971807841225 L-11.944761767053079,11.61114745108704 L-12.337894795278814,10.616108834915327 L-11.17572254483021,10.172717907088604 L-10.628092598790767,10.941901612437272 L-7.353226955594391,11.104578497987875 L-5.882349835769931,10.693640703030441 L-6.9184550019252455,10.13021763993373 L-6.525894349159378,9.30202369178729 L-8.466291614404991,7.889301030092443 L-9.269501095876736,5.566112394201539 L-11.293748587469057,4.657080137176739 L-10.894586167263345,2.773975988349351 L-13.405297229297112,1.2788312604357828 L-15.69115364830173,1.070925599470212 L-19.786750130493278,-0.6604101398035044 L-23.480589053258203,-0.11077410113296013 L-24.805871638634805,0.7088064298992266 L-27.15031596514645,0.7079450881878014 L-28.547962368369618,2.0068039326750906 L-32.65016061800101,2.5407968944574884 L-34.547479683588634,3.3939697522353365 L-37.12739816287482,2.0360951079069514 L-40.69000750812121,2.0154229068326677 L-44.12827245249714,1.4000192607120794 L-46.527275830123635,2.590043412177986 L-46.914662875577626,1.1005001839103836 L-50.0,-0.41114896260279543 L-48.91507620845825,-2.651348713858436 L-47.37413032966993,-4.0981027087196065 L-46.16113336120375,-3.7738881314947337 L-47.59467826414193,-6.271106692397235 L-42.54856063965126,-10.8930774300075 L-39.790883459299465,-11.53977834399107 L-39.195007263333444,-13.09867347263691 L-41.989727694319946,-17.95023345416752 L-39.3334220978383,-18.166902572416443 L-36.28800677247982,-19.672955776326983 L-31.98306535510812,-19.79629435236022 L-26.369501368171843,-19.360805540105428 L-20.16724644225585,-18.027192946822804 L-15.790802548749033,-17.91562974554129 L-13.701365382209842,-17.112564747195364 L-11.61624048127108,-18.08132410560358 L-10.159722761332615,-16.782031811738918 L-5.144902404704906,-17.0482364139599 L-2.9345717611842996,-16.511231534709175 L-2.577048266421997,-19.308108098495904 L-0.864951011051251,-20.52814028377928 L3.9054872523927235,-20.8578118775243 Z" stroke-width="4" stroke="#ff0000" fill="#ff0000" fill-opacity="0.5" />
</svg>