<?xml version="1.0" encoding="UTF-8"?>
<svg xmlns="http://www.w3.org/2000/svg" xmlns:xlink="http://www.w3.org/1999/xlink"
     width="101" height="101" viewBox="-50.5 -50.5 101 101">
<defs>
</defs>
<path d="M-8.423224621995596,-49.06321561373513 L-8.423224621995596,-49.06321561373513 L-6.884413668650518,-48.06272292893825 L26.150156624205405,-29.50350163329384 L26.771569900748805,-24.218345730623867 L39.847759668939126,-15.111238533781707 L35.6417183038233,-3.885714254478986 L36.18132112407935,1.2771814785499969 L42.01400580435166,4.596426650457631 L42.28731467836284,6.965103558554423 L39.77915914156237,12.46681119239925 L40.30154350275568,15.235521189090385 L39.704728024873326,19.58750949292823 L42.8862255242793,25.29838951834961 L46.65661254422137,34.28141448639069 L50.0,36.27383617793211 L42.75193976418184,41.55580347707195 L32.79035059333536,45.09353176286412 L27.324929267663443,44.944013588188405 L24.078475359200784,47.67682901942608 L17.7364431510254,47.91166511427229 L15.358027336718017,49.06321561373514 L4.410330638143445,46.496007139556625 L-2.444337914718868,47.23279320211594 L-4.995120525569309,34.84260870769362 L-8.08498666981519,30.594240908289212 L-9.917231140594472,28.075025472387065 L-18.84846407701044,26.37549068053182 L-24.018648046679704,23.64021546942804 L-29.8083959028449,22.106861583267378 L-33.43973247798588,20.581160345579033 L-37.245567658887225,18.26187035101606 L-42.165127391088255,6.782897642546981 L-47.449098955304166,1.6811319943384964 L-49.27122188744922,-3.602848680173224 L-48.360246969186804,-8.340384702282826 L-50.0,-16.721820397442123 L-46.232765142404865,-17.155415815765043 L-42.927476943663386,-20.455793565070113 L-39.3815676122425,-25.207177236796273 L-37.13405763829065,-27.113688838940185 L-37.218145668528074,-30.074534974061173 L-39.18004786913826,-32.139747929047566 L-39.708353922601844,-35.72729131227617 L-37.07876725307819,-36.880472554687294 L-36.551955288125875,-42.240387544695125 L-40.169016029747695,-47.38091750153419 L-36.97353422628809,-48.4751460198211 L-26.985825837381952,-48.35844313061834 L-8.423224621995596,-49.06321561373513 Z" stroke-width="4" stroke="#ff0000" fill="#ff0000" fill-opacity="0.5" />
</svg>