<?xml version="1.0" encoding="UTF-8"?>
<svg xmlns="http://www.w3.org/2000/svg" xmlns:xlink="http://www.w3.org/1999/xlink"
     width="101" height="101" viewBox="-50.5 -50.5 101 101">
<defs>
</defs>
<path d="M11.832189881178333,23.373806673867982 L11.832189881178333,23.373806673867982 L11.993010831168082,19.80097509707177 L4.226386009984535,17.301865530026546 L-1.879800309461956,14.44248387002598 L-5.6879806148366345,11.693235628996005 L-12.36625697019236,7.660718769158905 L-15.236347181268759,1.6409774326336335 L-17.195504043441414,0.581140338072559 L-23.508679531719817,0.8499810235599878 L-25.74271450675851,-0.34593758210959125 L-26.367004349983908,-5.005009780165234 L-34.23440866493443,-8.090689866581029 L-39.15357486935447,-4.698297959302829 L-44.141838671065265,-2.686637666773712 L-43.18323066592704,0.25451201354624237 L-49.77068285989545,0.3343181619128244 L-49.999999999999964,-21.194984380930126 L-34.969433334306444,-24.645461711382946 L-33.878363938925034,-24.138703179283567 L-24.828161036989414,-19.958181765100854 L-20.049905117799852,-17.749791259159775 L-14.473867982366468,-12.486952967623283 L-7.627828219426017,-13.33708580270342 L2.3861092459054976,-13.792555396607616 L9.376375791901449,-9.527696844072075 L8.940676729045665,-3.671193764049887 L11.78572387820048,-3.6303097538901934 L12.973345400402872,1.1529209120368895 L20.399316848159298,1.3424108837182243 L21.999410270633238,4.108101480162298 L24.174910226841426,4.070989402388108 L26.729687910547977,-0.10711470528131026 L34.430841094210734,-4.177204916357696 L37.77857705894378,-5.256503080022194 L39.51234052491754,-4.681703792368539 L34.61217995504047,-0.8997693632674636 L38.920339824249,1.2980585642133664 L43.0791346743351,-0.1576562636849239 L50.00000000000004,2.9186698975272067 L42.52303739818408,7.123784777975661 L38.08151694742064,6.548524216856912 L35.67126966980993,6.699395673371656 L34.83486409949499,5.076367033544481 L36.05205383470065,2.368761860274987 L28.244696814877514,3.725659066359153 L26.388730914080558,7.472285639214089 L23.61398417656851,10.699477418036357 L18.738574723381944,10.424902928210662 L17.22507809534937,12.995971155811162 L21.509695501123986,14.389081248357797 L22.77094561060346,18.736309228388755 L19.489288529471885,24.645461711382946 L15.085481563658703,23.412577000554677 L11.832189881178333,23.373806673867982 Z" stroke-width="4" stroke="#ff0000" fill="#ff0000" fill-opacity="0.5" />
</svg>