<?xml version="1.0" encoding="UTF-8"?>
<svg xmlns="http://www.w3.org/2000/svg" xmlns:xlink="http://www.w3.org/1999/xlink"
     width="101" height="101" viewBox="-50.5 -50.5 101 101">
<defs>
</defs>
<path d="M-35.43281531907442,-39.366912171089766 L-35.43281531907442,-39.366912171089766 L-35.6426233847779,-37.622645481726245 L-39.97611737263488,-36.761090384815695 L-37.56827786495375,-33.41102649087041 L-37.65830739029753,-29.550549223657743 L-40.91453270387463,-25.262830333099647 L-38.12026604034774,-19.40612772130591 L-34.93804416983158,-19.885448575653335 L-33.280367045266466,-25.221063601843905 L-35.5693802763439,-27.819060585160916 L-35.9424535939356,-33.40740198308558 L-26.74960933194853,-36.40823606278947 L-27.7723258422163,-39.887615898434646 L-25.18425011849776,-42.21649133325563 L-22.534557762437,-37.02926705144521 L-17.35763121659365,-36.909488511085414 L-12.561410862169968,-32.79304422261211 L-12.272454176366681,-30.34896701897227 L-5.644417922135353,-30.284117118993187 L2.2422821790777823,-31.04267271056415 L6.469344082939445,-27.736855862774217 L12.11490988890486,-26.824572420655212 L16.25595063346579,-29.13055661588198 L16.34063567075217,-30.98945666856652 L25.48447156780343,-31.434628901706972 L34.33075087768826,-31.53724454878827 L28.062249555554924,-29.35695916936616 L30.58395471004055,-25.872227463773935 L36.487583993907954,-25.317574426240792 L42.08431121839793,-21.687700007684548 L43.260578413863755,-15.773581058720936 L47.107694460932784,-15.940286271154378 L50.00000000000005,-14.20021249507351 L44.15130673840296,-9.863854334058702 L43.506240317267746,-7.172395246742244 L46.03309803068171,-4.433057223596031 L44.199946008859655,-3.0502299938427657 L39.65759621905524,-1.8653850426824548 L39.80465084142105,1.5434239285574824 L37.80498553629471,3.575134016359888 L42.80052429132576,9.176445394280378 L43.77784956255296,11.259459614678653 L41.07818919591076,14.076610135910181 L32.82127256837423,16.83997620964625 L27.512933624189685,17.985342815321285 L25.38204046796165,19.730377221201348 L19.512367876172114,17.885207483139578 L14.047436908281636,16.94068732921537 L12.664033891140974,17.62008691879707 L15.967946211418715,19.533731064622756 L15.670205077012728,24.48272700583841 L16.695025425811448,29.13169342687762 L22.948460311307652,29.76607825378744 L23.347665518020083,31.31751522348634 L18.074803935167303,33.417891648181794 L17.216873346041506,36.54422523267162 L14.177705113737609,37.75577047845053 L8.68778644961158,39.47906521951119 L7.258992193430398,41.738130124553884 L1.5195878070967823,42.216491333255625 L-2.5445927031350104,38.31214349625631 L-4.79583280522055,30.950354799449933 L-6.757924292373838,28.369328780282263 L-9.436413399694516,26.742552245508065 L-5.6955301256020645,23.067854993409078 L-5.949400690221387,21.415138498643245 L-8.047865205515086,19.221683828206597 L-9.532924224091417,14.316750385906733 L-8.954811541466212,9.022518232713622 L-7.307432152868199,6.544115242516848 L-5.978012894241795,2.56824427735619 L-8.58859599929631,1.299666552665681 L-12.796014694979878,2.141571059508587 L-18.11294615863811,1.7463668369496326 L-21.09641803404482,2.5358156364218596 L-26.292035524310055,-3.816411077352092 L-30.58033020225559,-4.756930247122782 L-40.073012055290036,-4.047013926008519 L-41.83120098840543,-6.621935122491753 L-43.64814238070507,-7.237245146721329 L-43.907925838879756,-8.778000522194873 L-43.03111975809246,-11.510274077010969 L-43.614001141387746,-14.482495952694487 L-45.24268958556367,-16.106607625329534 L-46.18930619612923,-19.50035015993233 L-49.99999999999994,-19.99473745091689 L-47.95264768817296,-24.31144502186405 L-47.04970971826499,-29.578969498548975 L-44.90432591278724,-32.32230850584871 L-42.04692194766428,-34.43889556006654 L-40.174483509486095,-38.129618894448356 L-35.43281531907442,-39.366912171089766 Z" stroke-width="4" stroke="#ff0000" fill="#ff0000" fill-opacity="0.5" />
</svg>