<?xml version="1.0" encoding="UTF-8"?>
<svg xmlns="http://www.w3.org/2000/svg" xmlns:xlink="http://www.w3.org/1999/xlink"
     width="101" height="101" viewBox="-50.5 -50.5 101 101">
<defs>
</defs>
<path d="M15.572666857506993,-37.80066407258581 L15.572666857506993,-37.80066407258581 L6.522473135211598,-32.001372938177845 L0.8732805989682444,-25.59694238926627 L-0.6158157136548941,-20.893371699320426 L4.568534146838037,-13.74842626266557 L10.90745627987718,-4.891070228153526 L17.059316094578715,-0.7038257009769867 L21.178076399325633,4.73973792430918 L24.28378131875414,17.284647014096713 L23.367761630167255,29.209354634323873 L17.714366360289716,33.673322056901895 L9.95150384316273,38.03763724213095 L4.421411355230519,43.68857865785431 L-4.030482562620798,50.0 L-6.491650829026383,45.65303125891599 L-4.586748252120313,41.060846567481704 L-9.615569853737357,37.21024100440453 L-3.748146984236856,34.480050335191734 L3.367725025712983,33.98858808689057 L0.39092879260962404,29.88209027431175 L11.78493961247961,24.66533869321963 L12.619690634065824,16.542369689668114 L11.048268192430802,12.021651805823133 L12.280604594414958,5.2448658355241236 L10.573623657269092,0.45669818468343837 L5.444268599960413,-4.259487484767628 L1.1720814031546016,-10.231646543593902 L-4.462049078031971,-18.24165013421972 L-12.583262423500887,-22.296650902574314 L-10.63877958580429,-24.733470428312103 L-6.305991681434312,-26.50928807522458 L-8.933201819403962,-32.42084642648676 L-17.278603889846785,-32.47391610652249 L-20.32195922223117,-38.63278499634937 L-24.283781318754045,-43.985278095223514 L-20.646681402896807,-45.63954183967071 L-15.240589892981385,-45.60539123959153 L-8.649463070274482,-46.387594533545034 L-2.871714335043021,-50.0 L0.3958297223152679,-47.45686487052224 L6.592529993452632,-46.21892934276091 L5.520629558652724,-42.31402717257096 L8.748240867883544,-39.5598402500274 L15.572666857506993,-37.80066407258581 Z" stroke-width="4" stroke="#ff0000" fill="#ff0000" fill-opacity="0.5" />
</svg>