<?xml version="1.0" encoding="UTF-8"?>
<svg xmlns="http://www.w3.org/2000/svg" xmlns:xlink="http://www.w3.org/1999/xlink"
     width="101" height="101" viewBox="-50.5 -50.5 101 101">
<defs>
</defs>
<path d="M48.454925217594656,-33.2520549697028 L48.454925217594656,-33.2520549697028 L48.18172703782039,-39.631084818485284 L49.99445125733199,-39.631084818485284 L49.99999999999999,-38.833935300469804 L49.770477331183365,-36.52709911852391 L49.7360179722108,-18.491446898949448 L10.65518743736082,-19.114156330942752 L11.03853887555086,11.353430021960403 L-0.11845851165813623,12.422241694419276 L-3.03014336593636,18.537908688414152 L-0.7719241717876543,35.73364082417164 L-47.401509519963504,35.6591971779047 L-50.00000000000001,39.63108481848524 L-49.48805109225094,34.59961356460396 L-49.28008040675857,34.6183792694211 L-22.465043218870868,33.6674009820322 L-21.034729770873856,29.37677022454189 L-16.156777699865188,24.027794199754013 L-12.226719958410625,7.585821843208934 L4.326001015205567,-5.263292007107666 L9.924801438958053,-20.275260502156463 L13.646257414745522,-21.147175160112816 L17.52400694473964,-30.426816192183715 L27.54141642253984,-31.70545606913975 L31.849896032518,-30.15915484790435 L37.25671710426122,-30.15915484790435 L41.09447043978787,-32.868405852185084 L48.454925217594656,-33.2520549697028 Z" stroke-width="4" stroke="#ff0000" fill="#ff0000" fill-opacity="0.5" />
</svg>