<?xml version="1.0" encoding="UTF-8"?>
<svg xmlns="http://www.w3.org/2000/svg" xmlns:xlink="http://www.w3.org/1999/xlink"
     width="101" height="101" viewBox="-50.5 -50.5 101 101">
<defs>
</defs>
<path d="M49.999999999999964,-8.169259403829116 L49.999999999999964,-8.169259403829116 L43.11321724725567,-5.611684454049536 L41.27122823386044,-1.3848120186220079 L41.0468882393823,1.8617867989375203 L31.567847520397518,5.88103715833468 L16.354741662461777,10.322167426716298 L7.830650151851242,17.039467044946065 L3.638946276074152,17.56415834420251 L0.7824956919941979,17.0010900920628 L-4.781829260165516,20.952202557194134 L-10.849957633976631,22.785090015899154 L-18.84221750430805,23.279534830583508 L-21.246541694831347,23.820468025552895 L-23.327627407485018,26.334258404181384 L-25.82296714491084,27.028937422051264 L-27.296952502451518,29.45047459466664 L-32.00916819787312,29.24039624132448 L-35.05060121671409,30.532350505060112 L-41.64022201700354,30.048235383721927 L-44.11637803821514,24.48686177251825 L-43.84431200434131,19.2826575397241 L-45.40094442910595,16.473685463217716 L-47.26408789283775,9.432176280739169 L-50.000000000000036,5.518450641202616 L-48.09455715604981,5.055489970200978 L-49.07113683749537,0.7053752487218836 L-47.91694355322414,-1.1307015623066183 L-48.33907099403072,-5.283038357911979 L-44.15918200253244,-8.32005388577357 L-45.13576168397806,-12.333401563258645 L-42.61287927111399,-17.013152508163778 L-38.70259051572304,-14.537739082418588 L-36.121652370117225,-15.398216818835262 L-25.134685872597302,-15.616901663223437 L-23.389129544827068,-14.664913316259998 L-14.18608680750596,-13.71267743747442 L-10.536563306263519,-14.188919142778262 L-8.156344907032766,-11.01538029456285 L-3.7132439045288885,-12.602278244808979 L3.1095804335614665,-22.59863191066004 L11.995287374925013,-26.882827003817702 L39.445976179822345,-30.532350505060112 L46.892628311928156,-14.82111541647228 L49.999999999999964,-8.169259403829116 Z" stroke-width="4" stroke="#ff0000" fill="#ff0000" fill-opacity="0.5" />
</svg>