<?xml version="1.0" encoding="UTF-8"?>
<svg xmlns="http://www.w3.org/2000/svg" xmlns:xlink="http://www.w3.org/1999/xlink"
     width="101" height="101" viewBox="-50.5 -50.5 101 101">
<defs>
</defs>
<path d="M43.73751761641923,-33.360887302770465 L43.73751761641923,-33.360887302770465 L47.80735127948339,-29.514284765833647 L50.000000000000014,-22.195364742329286 L48.53095122412823,-19.858801354906877 L46.797689570778,-12.869158020304628 L48.45431629755352,-5.724899755083802 L45.74124330856294,-2.723540450833758 L43.12352424092576,5.286456233895179 L47.65764243271054,7.519646968898093 L21.49291958980309,14.626475866852845 L22.310097263758916,20.762857237702345 L15.779384014875168,21.943171339158265 L10.87010129899131,25.378059458459717 L9.82168239013369,28.367390666110794 L6.735221069086534,29.045542512423626 L-0.7632667965471155,36.13678230740279 L-5.538429768633749,41.71708623455477 L-8.449780972240974,41.9171492635054 L-11.250628888384014,40.92397337608839 L-20.88784166368837,39.97981521567153 L-22.43798309082419,39.335523107956696 L-22.502589920799934,38.61993327208631 L-25.904954756681093,36.67636530752049 L-31.496398684410764,36.17999723224444 L-38.55645165114725,38.13961128123371 L-44.183100394944056,32.75356758087386 L-49.999999999999986,25.69931741629587 L-49.60300383390187,-1.73571900641887 L-31.649228800695287,-1.627000533288722 L-32.38397736820935,-4.603398303736593 L-31.099402518312658,-7.832886195668242 L-32.614778866246276,-11.876870228908905 L-31.634079434584617,-16.05854363461488 L-32.545274574716245,-18.73552371151709 L-29.571101355467313,-18.518526502121727 L-29.076518094525298,-15.838433777999267 L-25.035646708504906,-16.04650691572442 L-19.56093998497134,-15.251169506059101 L-16.6794391544291,-11.336399132769925 L-9.774897836623964,-10.133805030158612 L-4.503815148417658,-12.855793468527985 L-2.56915401093911,-8.337721361166663 L4.038194164519352,-7.132894085064932 L7.215103323074227,-3.4587373775041867 L10.756485364306902,1.2865752215174442 L17.355366449542995,1.3578729496729791 L16.634430792961968,-7.939819854464335 L14.26801703247456,-6.371864773153974 L8.239905775598812,-9.727445055525395 L5.910473023221129,-11.261540398237774 L6.978059286013905,-19.91627754983791 L8.50948171837095,-30.1247171349505 L6.579718042446692,-33.92720802873291 L9.037036621889678,-39.43132538846655 L11.348198738644966,-40.46192202085818 L22.92943645996303,-41.9171492635054 L26.326007115977138,-41.0398311065547 L29.927848664989057,-38.84483712275858 L33.36466817757953,-37.40086197047813 L38.84428098495883,-35.949644093363894 L43.73751761641923,-33.360887302770465 Z" stroke-width="4" stroke="#ff0000" fill="#ff0000" fill-opacity="0.5" />
</svg>