<?xml version="1.0" encoding="UTF-8"?>
<svg xmlns="http://www.w3.org/2000/svg" xmlns:xlink="http://www.w3.org/1999/xlink"
     width="101" height="101" viewBox="-50.5 -50.5 101 101">
<defs>
</defs>
<path d="M28.136939096067795,44.31811575431723 L28.136939096067795,44.31811575431723 L21.12969448174084,43.00058597599281 L16.687324133048882,44.58311664086136 L10.308873284833803,42.35000102166794 L4.9454594111106225,42.206268822583766 L-3.459005079996589,36.24949658136732 L-13.653089029461587,34.226211780556305 L-17.530707712670058,25.866028354910316 L-17.563414269207506,21.215883706505796 L-23.208848039748815,19.798217288335145 L-38.12802092375917,5.317768387221374 L-42.2726970121816,-2.310768973197348 L-44.92544790251573,-4.662411254957554 L-50.0,-15.201884878457744 L-35.26545239785465,-13.758340600358425 L-30.983174117921592,-12.239852036118268 L-26.531944919574972,-12.54573282263118 L-19.231092716694114,-21.077582825959844 L-7.766488896447034,-31.9195360704806 L-3.0475299694751747,-32.9563774159975 L-1.4445791288402343,-37.52683196594619 L6.06133171448403,-42.77850832527534 L16.04628353460195,-44.58311664086131 L16.89919828728907,-39.66524226383158 L27.895100410183225,-39.92751430829457 L34.00446370013851,-37.14533456988111 L36.84592654405336,-33.88355094860218 L43.12355524619898,-32.925727378129835 L49.97070779176699,-28.68977349951584 L50.0,-12.004828864030479 L47.429681233014776,-2.868705124884052 L46.86424406130806,6.982717992626868 L48.98290650683831,10.887585548210563 L47.49371015083116,18.648280598789732 L45.502446400334364,19.84794285514664 L42.026072965546085,29.35534731106893 L28.136939096067795,44.31811575431723 Z" stroke-width="4" stroke="#ff0000" fill="#ff0000" fill-opacity="0.5" />
</svg>